M48
;GenerationSoftware,Autodesk,EAGLE,9.6.2*%
;CreationDate,2022-12-28T16:50:22Z*%
FMAT,2
ICI,OFF
METRIC,TZ,000.000
T13C0.300
T12C0.350
T11C0.650
T10C0.700
T9C0.790
T8C0.940
T7C1.000
T6C1.016
T5C1.090
T4C1.118
T3C1.170
T2C1.500
T1C3.000
%
G90
M71
T1
X135255Y84709
X135255Y4064
X4064Y4064
X4064Y84836
T2
X94996Y62959
T3
X94996Y42959
T4
X107442Y16129
X101600Y18669
X101600Y16129
X101600Y13589
X107442Y18669
X107442Y13589
T5
X52228Y1953
X52228Y7953
X40228Y7953
X40228Y1953
T6
X56642Y15621
X54102Y15621
X121031Y62992
X123571Y62992
X51562Y15621
X126111Y62992
X128651Y62992
X131191Y62992
X133731Y62992
X136271Y62992
T7
X24512Y11120
X19812Y8120
X19812Y14120
T8
X134239Y46025
X134239Y52832
T9
X50228Y6203
X42228Y6203
X46228Y6203
T10
X81443Y2159
X73243Y2159
T11
X79768Y5239
X74918Y5239
T12
X62484Y49276
X38100Y46736
X29464Y47244
X46736Y47752
X69088Y48768
X5080Y74422
X69596Y69850
X72644Y7493
X91948Y23114
X60706Y77343
X93853Y73152
X56515Y81026
X54737Y82550
T13
X119507Y49784
X50165Y69469
X93726Y53848
X119126Y53340
X88773Y49911
X52070Y72009
X91059Y51816
X116713Y51816
X22987Y70739
X119507Y47625
X87249Y47752
X59944Y66675
X53213Y69469
X120904Y11176
X81280Y31750
X85598Y33528
X118364Y9525
X96647Y21336
X36449Y76708
X62484Y60960
X54864Y54991
X42926Y24257
X12827Y40767
X78486Y70358
X67056Y24511
X92102Y81126
X20193Y72771
X10922Y74676
X14859Y70358
X50292Y65659
X61722Y69342
X48514Y60706
X21209Y81026
X80010Y18669
X77216Y21717
X78232Y53467
X16737Y21998
X21082Y77216
X93472Y13843
X93726Y30353
X87249Y30353
X37580Y75287
X39415Y75287
X36662Y74370
X38497Y74370
X40332Y74370
X37580Y73452
X39415Y73452
X36662Y72535
X38497Y72535
X40332Y72535
X37580Y71617
X39415Y71617
X105791Y30861
X87249Y27559
X69342Y27559
X61849Y27559
X28321Y40386
X25527Y68326
X28511Y78423
X89408Y83312
X67564Y13843
X133985Y30861
X133985Y21971
X133985Y13335
X115443Y30861
X126365Y35814
X121412Y73152
X78232Y9707
X93980Y81915
X63881Y54737
X28575Y79682
X11430Y45339
X14351Y45339
X83185Y6858
X107823Y28829
X76454Y59309
X132334Y27178
X132080Y18669
X35306Y73406
X36703Y70104
X38481Y70104
X40386Y70104
X41783Y73533
X40386Y76708
X38481Y76708
X91694Y25273
M30