G04 EAGLE Gerber RS-274X export*
G75*
%MOMM*%
%FSLAX34Y34*%
%LPD*%
%INSilkscreen Bottom*%
%IPPOS*%
%AMOC8*
5,1,8,0,0,1.08239X$1,22.5*%
G01*
%ADD10C,0.508000*%
%ADD11C,0.203200*%


D10*
X422910Y240030D02*
X422910Y265430D01*
X415854Y265430D01*
X415682Y265428D01*
X415510Y265422D01*
X415339Y265411D01*
X415168Y265397D01*
X414997Y265378D01*
X414827Y265355D01*
X414657Y265328D01*
X414488Y265297D01*
X414320Y265261D01*
X414153Y265222D01*
X413986Y265178D01*
X413821Y265131D01*
X413657Y265079D01*
X413495Y265024D01*
X413333Y264964D01*
X413174Y264901D01*
X413015Y264834D01*
X412859Y264763D01*
X412704Y264688D01*
X412552Y264609D01*
X412401Y264527D01*
X412252Y264441D01*
X412105Y264352D01*
X411961Y264259D01*
X411819Y264162D01*
X411679Y264062D01*
X411542Y263959D01*
X411407Y263852D01*
X411275Y263742D01*
X411145Y263629D01*
X411019Y263513D01*
X410895Y263394D01*
X410774Y263271D01*
X410657Y263146D01*
X410542Y263018D01*
X410430Y262888D01*
X410322Y262754D01*
X410217Y262618D01*
X410115Y262480D01*
X410017Y262339D01*
X409922Y262195D01*
X409831Y262050D01*
X409743Y261902D01*
X409659Y261752D01*
X409579Y261600D01*
X409502Y261447D01*
X409429Y261291D01*
X409360Y261134D01*
X409295Y260975D01*
X409233Y260814D01*
X409176Y260652D01*
X409122Y260489D01*
X409073Y260324D01*
X409027Y260159D01*
X408986Y259992D01*
X408949Y259824D01*
X408915Y259656D01*
X408886Y259486D01*
X408861Y259316D01*
X408840Y259146D01*
X408824Y258975D01*
X408811Y258803D01*
X408803Y258632D01*
X408799Y258460D01*
X408799Y258288D01*
X408803Y258116D01*
X408811Y257945D01*
X408824Y257773D01*
X408840Y257602D01*
X408861Y257432D01*
X408886Y257262D01*
X408915Y257092D01*
X408949Y256924D01*
X408986Y256756D01*
X409027Y256589D01*
X409073Y256424D01*
X409122Y256259D01*
X409176Y256096D01*
X409233Y255934D01*
X409295Y255773D01*
X409360Y255614D01*
X409429Y255457D01*
X409502Y255301D01*
X409579Y255148D01*
X409659Y254996D01*
X409743Y254846D01*
X409831Y254698D01*
X409922Y254553D01*
X410017Y254409D01*
X410115Y254268D01*
X410217Y254130D01*
X410322Y253994D01*
X410430Y253860D01*
X410542Y253730D01*
X410657Y253602D01*
X410774Y253477D01*
X410895Y253354D01*
X411019Y253235D01*
X411145Y253119D01*
X411275Y253006D01*
X411407Y252896D01*
X411542Y252789D01*
X411679Y252686D01*
X411819Y252586D01*
X411961Y252489D01*
X412105Y252396D01*
X412252Y252307D01*
X412401Y252221D01*
X412552Y252139D01*
X412704Y252060D01*
X412859Y251985D01*
X413015Y251914D01*
X413174Y251847D01*
X413333Y251784D01*
X413495Y251724D01*
X413657Y251669D01*
X413821Y251617D01*
X413986Y251570D01*
X414153Y251526D01*
X414320Y251487D01*
X414488Y251451D01*
X414657Y251420D01*
X414827Y251393D01*
X414997Y251370D01*
X415168Y251351D01*
X415339Y251337D01*
X415510Y251326D01*
X415682Y251320D01*
X415854Y251318D01*
X415854Y251319D02*
X422910Y251319D01*
X399359Y256963D02*
X399359Y240030D01*
X399359Y256963D02*
X390892Y256963D01*
X390892Y254141D01*
X383564Y251319D02*
X383564Y245674D01*
X383564Y251319D02*
X383562Y251468D01*
X383556Y251617D01*
X383546Y251766D01*
X383533Y251914D01*
X383515Y252062D01*
X383493Y252209D01*
X383468Y252356D01*
X383439Y252502D01*
X383405Y252647D01*
X383368Y252792D01*
X383328Y252935D01*
X383283Y253077D01*
X383235Y253218D01*
X383183Y253358D01*
X383127Y253496D01*
X383068Y253633D01*
X383005Y253768D01*
X382939Y253901D01*
X382869Y254033D01*
X382795Y254162D01*
X382719Y254290D01*
X382639Y254416D01*
X382555Y254539D01*
X382469Y254661D01*
X382379Y254779D01*
X382286Y254896D01*
X382190Y255010D01*
X382091Y255121D01*
X381989Y255230D01*
X381884Y255336D01*
X381777Y255439D01*
X381667Y255540D01*
X381554Y255637D01*
X381439Y255732D01*
X381321Y255823D01*
X381201Y255911D01*
X381079Y255996D01*
X380954Y256078D01*
X380828Y256156D01*
X380699Y256231D01*
X380568Y256303D01*
X380436Y256371D01*
X380302Y256436D01*
X380166Y256497D01*
X380028Y256555D01*
X379889Y256608D01*
X379749Y256658D01*
X379607Y256705D01*
X379465Y256748D01*
X379321Y256786D01*
X379176Y256821D01*
X379030Y256853D01*
X378884Y256880D01*
X378737Y256904D01*
X378589Y256923D01*
X378441Y256939D01*
X378292Y256951D01*
X378143Y256959D01*
X377994Y256963D01*
X377846Y256963D01*
X377697Y256959D01*
X377548Y256951D01*
X377399Y256939D01*
X377251Y256923D01*
X377103Y256904D01*
X376956Y256880D01*
X376810Y256853D01*
X376664Y256821D01*
X376519Y256786D01*
X376375Y256748D01*
X376233Y256705D01*
X376091Y256658D01*
X375951Y256608D01*
X375812Y256555D01*
X375674Y256497D01*
X375538Y256436D01*
X375404Y256371D01*
X375272Y256303D01*
X375141Y256231D01*
X375012Y256156D01*
X374886Y256078D01*
X374761Y255996D01*
X374639Y255911D01*
X374519Y255823D01*
X374401Y255732D01*
X374286Y255637D01*
X374173Y255540D01*
X374063Y255439D01*
X373956Y255336D01*
X373851Y255230D01*
X373749Y255121D01*
X373650Y255010D01*
X373554Y254896D01*
X373461Y254779D01*
X373371Y254661D01*
X373285Y254539D01*
X373201Y254416D01*
X373121Y254290D01*
X373045Y254162D01*
X372971Y254033D01*
X372901Y253901D01*
X372835Y253768D01*
X372772Y253633D01*
X372713Y253496D01*
X372657Y253358D01*
X372605Y253218D01*
X372557Y253077D01*
X372512Y252935D01*
X372472Y252792D01*
X372435Y252647D01*
X372401Y252502D01*
X372372Y252356D01*
X372347Y252209D01*
X372325Y252062D01*
X372307Y251914D01*
X372294Y251766D01*
X372284Y251617D01*
X372278Y251468D01*
X372276Y251319D01*
X372275Y251319D02*
X372275Y245674D01*
X372276Y245674D02*
X372278Y245525D01*
X372284Y245376D01*
X372294Y245227D01*
X372307Y245079D01*
X372325Y244931D01*
X372347Y244784D01*
X372372Y244637D01*
X372401Y244491D01*
X372435Y244346D01*
X372472Y244201D01*
X372512Y244058D01*
X372557Y243916D01*
X372605Y243775D01*
X372657Y243635D01*
X372713Y243497D01*
X372772Y243360D01*
X372835Y243225D01*
X372901Y243092D01*
X372971Y242960D01*
X373045Y242831D01*
X373121Y242703D01*
X373201Y242577D01*
X373285Y242454D01*
X373371Y242332D01*
X373461Y242214D01*
X373554Y242097D01*
X373650Y241983D01*
X373749Y241872D01*
X373851Y241763D01*
X373956Y241657D01*
X374063Y241554D01*
X374173Y241453D01*
X374286Y241356D01*
X374401Y241261D01*
X374519Y241170D01*
X374639Y241082D01*
X374761Y240997D01*
X374886Y240915D01*
X375012Y240837D01*
X375141Y240762D01*
X375272Y240690D01*
X375404Y240622D01*
X375538Y240557D01*
X375674Y240496D01*
X375812Y240438D01*
X375951Y240385D01*
X376091Y240335D01*
X376233Y240288D01*
X376375Y240245D01*
X376519Y240207D01*
X376664Y240172D01*
X376810Y240140D01*
X376956Y240113D01*
X377103Y240089D01*
X377251Y240070D01*
X377399Y240054D01*
X377548Y240042D01*
X377697Y240034D01*
X377846Y240030D01*
X377994Y240030D01*
X378143Y240034D01*
X378292Y240042D01*
X378441Y240054D01*
X378589Y240070D01*
X378737Y240089D01*
X378884Y240113D01*
X379030Y240140D01*
X379176Y240172D01*
X379321Y240207D01*
X379465Y240245D01*
X379607Y240288D01*
X379749Y240335D01*
X379889Y240385D01*
X380028Y240438D01*
X380166Y240496D01*
X380302Y240557D01*
X380436Y240622D01*
X380568Y240690D01*
X380699Y240762D01*
X380828Y240837D01*
X380954Y240915D01*
X381079Y240997D01*
X381201Y241082D01*
X381321Y241170D01*
X381439Y241261D01*
X381554Y241356D01*
X381667Y241453D01*
X381777Y241554D01*
X381884Y241657D01*
X381989Y241763D01*
X382091Y241872D01*
X382190Y241983D01*
X382286Y242097D01*
X382379Y242214D01*
X382469Y242332D01*
X382555Y242454D01*
X382639Y242577D01*
X382719Y242703D01*
X382795Y242831D01*
X382869Y242960D01*
X382939Y243092D01*
X383005Y243225D01*
X383068Y243360D01*
X383127Y243497D01*
X383183Y243635D01*
X383235Y243775D01*
X383283Y243916D01*
X383328Y244058D01*
X383368Y244201D01*
X383405Y244346D01*
X383439Y244491D01*
X383468Y244637D01*
X383493Y244784D01*
X383515Y244931D01*
X383533Y245079D01*
X383546Y245227D01*
X383556Y245376D01*
X383562Y245525D01*
X383564Y245674D01*
X364803Y256963D02*
X356337Y256963D01*
X361981Y265430D02*
X361981Y244263D01*
X361979Y244135D01*
X361973Y244007D01*
X361964Y243880D01*
X361950Y243753D01*
X361933Y243626D01*
X361912Y243500D01*
X361887Y243375D01*
X361858Y243250D01*
X361826Y243126D01*
X361789Y243004D01*
X361749Y242882D01*
X361706Y242762D01*
X361659Y242643D01*
X361608Y242526D01*
X361554Y242410D01*
X361496Y242296D01*
X361435Y242184D01*
X361371Y242073D01*
X361303Y241965D01*
X361232Y241858D01*
X361157Y241754D01*
X361080Y241652D01*
X361000Y241553D01*
X360916Y241456D01*
X360830Y241362D01*
X360741Y241270D01*
X360649Y241181D01*
X360555Y241095D01*
X360458Y241011D01*
X360359Y240931D01*
X360257Y240854D01*
X360153Y240779D01*
X360046Y240708D01*
X359938Y240640D01*
X359827Y240576D01*
X359715Y240515D01*
X359601Y240457D01*
X359485Y240403D01*
X359368Y240352D01*
X359249Y240305D01*
X359129Y240262D01*
X359007Y240222D01*
X358885Y240185D01*
X358761Y240153D01*
X358636Y240124D01*
X358511Y240099D01*
X358385Y240078D01*
X358258Y240061D01*
X358131Y240047D01*
X358004Y240038D01*
X357876Y240032D01*
X357748Y240030D01*
X356337Y240030D01*
X347724Y245674D02*
X347724Y251319D01*
X347722Y251468D01*
X347716Y251617D01*
X347706Y251766D01*
X347693Y251914D01*
X347675Y252062D01*
X347653Y252209D01*
X347628Y252356D01*
X347599Y252502D01*
X347565Y252647D01*
X347528Y252792D01*
X347488Y252935D01*
X347443Y253077D01*
X347395Y253218D01*
X347343Y253358D01*
X347287Y253496D01*
X347228Y253633D01*
X347165Y253768D01*
X347099Y253901D01*
X347029Y254033D01*
X346955Y254162D01*
X346879Y254290D01*
X346799Y254416D01*
X346715Y254539D01*
X346629Y254661D01*
X346539Y254779D01*
X346446Y254896D01*
X346350Y255010D01*
X346251Y255121D01*
X346149Y255230D01*
X346044Y255336D01*
X345937Y255439D01*
X345827Y255540D01*
X345714Y255637D01*
X345599Y255732D01*
X345481Y255823D01*
X345361Y255911D01*
X345239Y255996D01*
X345114Y256078D01*
X344988Y256156D01*
X344859Y256231D01*
X344728Y256303D01*
X344596Y256371D01*
X344462Y256436D01*
X344326Y256497D01*
X344188Y256555D01*
X344049Y256608D01*
X343909Y256658D01*
X343767Y256705D01*
X343625Y256748D01*
X343481Y256786D01*
X343336Y256821D01*
X343190Y256853D01*
X343044Y256880D01*
X342897Y256904D01*
X342749Y256923D01*
X342601Y256939D01*
X342452Y256951D01*
X342303Y256959D01*
X342154Y256963D01*
X342006Y256963D01*
X341857Y256959D01*
X341708Y256951D01*
X341559Y256939D01*
X341411Y256923D01*
X341263Y256904D01*
X341116Y256880D01*
X340970Y256853D01*
X340824Y256821D01*
X340679Y256786D01*
X340535Y256748D01*
X340393Y256705D01*
X340251Y256658D01*
X340111Y256608D01*
X339972Y256555D01*
X339834Y256497D01*
X339698Y256436D01*
X339564Y256371D01*
X339432Y256303D01*
X339301Y256231D01*
X339172Y256156D01*
X339046Y256078D01*
X338921Y255996D01*
X338799Y255911D01*
X338679Y255823D01*
X338561Y255732D01*
X338446Y255637D01*
X338333Y255540D01*
X338223Y255439D01*
X338116Y255336D01*
X338011Y255230D01*
X337909Y255121D01*
X337810Y255010D01*
X337714Y254896D01*
X337621Y254779D01*
X337531Y254661D01*
X337445Y254539D01*
X337361Y254416D01*
X337281Y254290D01*
X337205Y254162D01*
X337131Y254033D01*
X337061Y253901D01*
X336995Y253768D01*
X336932Y253633D01*
X336873Y253496D01*
X336817Y253358D01*
X336765Y253218D01*
X336717Y253077D01*
X336672Y252935D01*
X336632Y252792D01*
X336595Y252647D01*
X336561Y252502D01*
X336532Y252356D01*
X336507Y252209D01*
X336485Y252062D01*
X336467Y251914D01*
X336454Y251766D01*
X336444Y251617D01*
X336438Y251468D01*
X336436Y251319D01*
X336436Y245674D01*
X336438Y245525D01*
X336444Y245376D01*
X336454Y245227D01*
X336467Y245079D01*
X336485Y244931D01*
X336507Y244784D01*
X336532Y244637D01*
X336561Y244491D01*
X336595Y244346D01*
X336632Y244201D01*
X336672Y244058D01*
X336717Y243916D01*
X336765Y243775D01*
X336817Y243635D01*
X336873Y243497D01*
X336932Y243360D01*
X336995Y243225D01*
X337061Y243092D01*
X337131Y242960D01*
X337205Y242831D01*
X337281Y242703D01*
X337361Y242577D01*
X337445Y242454D01*
X337531Y242332D01*
X337621Y242214D01*
X337714Y242097D01*
X337810Y241983D01*
X337909Y241872D01*
X338011Y241763D01*
X338116Y241657D01*
X338223Y241554D01*
X338333Y241453D01*
X338446Y241356D01*
X338561Y241261D01*
X338679Y241170D01*
X338799Y241082D01*
X338921Y240997D01*
X339046Y240915D01*
X339172Y240837D01*
X339301Y240762D01*
X339432Y240690D01*
X339564Y240622D01*
X339698Y240557D01*
X339834Y240496D01*
X339972Y240438D01*
X340111Y240385D01*
X340251Y240335D01*
X340393Y240288D01*
X340535Y240245D01*
X340679Y240207D01*
X340824Y240172D01*
X340970Y240140D01*
X341116Y240113D01*
X341263Y240089D01*
X341411Y240070D01*
X341559Y240054D01*
X341708Y240042D01*
X341857Y240034D01*
X342006Y240030D01*
X342154Y240030D01*
X342303Y240034D01*
X342452Y240042D01*
X342601Y240054D01*
X342749Y240070D01*
X342897Y240089D01*
X343044Y240113D01*
X343190Y240140D01*
X343336Y240172D01*
X343481Y240207D01*
X343625Y240245D01*
X343767Y240288D01*
X343909Y240335D01*
X344049Y240385D01*
X344188Y240438D01*
X344326Y240496D01*
X344462Y240557D01*
X344596Y240622D01*
X344728Y240690D01*
X344859Y240762D01*
X344988Y240837D01*
X345114Y240915D01*
X345239Y240997D01*
X345361Y241082D01*
X345481Y241170D01*
X345599Y241261D01*
X345714Y241356D01*
X345827Y241453D01*
X345937Y241554D01*
X346044Y241657D01*
X346149Y241763D01*
X346251Y241872D01*
X346350Y241983D01*
X346446Y242097D01*
X346539Y242214D01*
X346629Y242332D01*
X346715Y242454D01*
X346799Y242577D01*
X346879Y242703D01*
X346955Y242831D01*
X347029Y242960D01*
X347099Y243092D01*
X347165Y243225D01*
X347228Y243360D01*
X347287Y243497D01*
X347343Y243635D01*
X347395Y243775D01*
X347443Y243916D01*
X347488Y244058D01*
X347528Y244201D01*
X347565Y244346D01*
X347599Y244491D01*
X347628Y244637D01*
X347653Y244784D01*
X347675Y244931D01*
X347693Y245079D01*
X347706Y245227D01*
X347716Y245376D01*
X347722Y245525D01*
X347724Y245674D01*
X328964Y256963D02*
X320497Y256963D01*
X326141Y265430D02*
X326141Y244263D01*
X326139Y244135D01*
X326133Y244007D01*
X326124Y243880D01*
X326110Y243753D01*
X326093Y243626D01*
X326072Y243500D01*
X326047Y243375D01*
X326018Y243250D01*
X325986Y243126D01*
X325949Y243004D01*
X325909Y242882D01*
X325866Y242762D01*
X325819Y242643D01*
X325768Y242526D01*
X325714Y242410D01*
X325656Y242296D01*
X325595Y242184D01*
X325531Y242073D01*
X325463Y241965D01*
X325392Y241858D01*
X325317Y241754D01*
X325240Y241652D01*
X325160Y241553D01*
X325076Y241456D01*
X324990Y241362D01*
X324901Y241270D01*
X324809Y241181D01*
X324715Y241095D01*
X324618Y241011D01*
X324519Y240931D01*
X324417Y240854D01*
X324313Y240779D01*
X324206Y240708D01*
X324098Y240640D01*
X323987Y240576D01*
X323875Y240515D01*
X323761Y240457D01*
X323645Y240403D01*
X323528Y240352D01*
X323409Y240305D01*
X323289Y240262D01*
X323167Y240222D01*
X323045Y240185D01*
X322921Y240153D01*
X322796Y240124D01*
X322671Y240099D01*
X322545Y240078D01*
X322418Y240061D01*
X322291Y240047D01*
X322164Y240038D01*
X322036Y240032D01*
X321908Y240030D01*
X320497Y240030D01*
X312681Y231563D02*
X309859Y231563D01*
X301392Y256963D01*
X312681Y256963D02*
X307037Y240030D01*
X291872Y231563D02*
X291872Y256963D01*
X284817Y256963D01*
X284689Y256961D01*
X284561Y256955D01*
X284434Y256946D01*
X284307Y256932D01*
X284180Y256915D01*
X284054Y256894D01*
X283929Y256869D01*
X283804Y256840D01*
X283680Y256808D01*
X283558Y256771D01*
X283436Y256731D01*
X283316Y256688D01*
X283197Y256641D01*
X283080Y256590D01*
X282964Y256536D01*
X282850Y256478D01*
X282738Y256417D01*
X282627Y256353D01*
X282519Y256285D01*
X282412Y256214D01*
X282308Y256139D01*
X282206Y256062D01*
X282107Y255982D01*
X282010Y255898D01*
X281916Y255812D01*
X281824Y255723D01*
X281735Y255631D01*
X281649Y255537D01*
X281565Y255440D01*
X281485Y255341D01*
X281408Y255239D01*
X281333Y255135D01*
X281262Y255028D01*
X281194Y254920D01*
X281130Y254810D01*
X281069Y254697D01*
X281011Y254583D01*
X280957Y254467D01*
X280906Y254350D01*
X280859Y254231D01*
X280816Y254111D01*
X280776Y253989D01*
X280739Y253867D01*
X280707Y253743D01*
X280678Y253618D01*
X280653Y253493D01*
X280632Y253367D01*
X280615Y253240D01*
X280601Y253113D01*
X280592Y252986D01*
X280586Y252858D01*
X280584Y252730D01*
X280583Y252730D02*
X280583Y244263D01*
X280584Y244263D02*
X280586Y244135D01*
X280592Y244007D01*
X280601Y243880D01*
X280615Y243753D01*
X280632Y243626D01*
X280653Y243500D01*
X280678Y243375D01*
X280707Y243250D01*
X280739Y243126D01*
X280776Y243004D01*
X280816Y242882D01*
X280859Y242762D01*
X280906Y242643D01*
X280957Y242526D01*
X281011Y242410D01*
X281069Y242296D01*
X281130Y242184D01*
X281194Y242073D01*
X281262Y241965D01*
X281333Y241858D01*
X281408Y241754D01*
X281485Y241652D01*
X281565Y241553D01*
X281649Y241456D01*
X281735Y241362D01*
X281824Y241270D01*
X281916Y241181D01*
X282010Y241095D01*
X282107Y241011D01*
X282206Y240931D01*
X282308Y240854D01*
X282412Y240779D01*
X282519Y240708D01*
X282627Y240640D01*
X282738Y240576D01*
X282850Y240515D01*
X282964Y240457D01*
X283080Y240403D01*
X283197Y240352D01*
X283316Y240305D01*
X283436Y240262D01*
X283558Y240222D01*
X283680Y240185D01*
X283804Y240153D01*
X283929Y240124D01*
X284054Y240099D01*
X284180Y240078D01*
X284307Y240061D01*
X284434Y240047D01*
X284561Y240038D01*
X284689Y240032D01*
X284817Y240030D01*
X291872Y240030D01*
X271197Y240030D02*
X271197Y256963D01*
X271902Y264019D02*
X271902Y265430D01*
X270491Y265430D01*
X270491Y264019D01*
X271902Y264019D01*
X260913Y256963D02*
X260913Y240030D01*
X260913Y256963D02*
X253857Y256963D01*
X253729Y256961D01*
X253601Y256955D01*
X253474Y256946D01*
X253347Y256932D01*
X253220Y256915D01*
X253094Y256894D01*
X252969Y256869D01*
X252844Y256840D01*
X252720Y256808D01*
X252598Y256771D01*
X252476Y256731D01*
X252356Y256688D01*
X252237Y256641D01*
X252120Y256590D01*
X252004Y256536D01*
X251890Y256478D01*
X251778Y256417D01*
X251667Y256353D01*
X251559Y256285D01*
X251452Y256214D01*
X251348Y256139D01*
X251246Y256062D01*
X251147Y255982D01*
X251050Y255898D01*
X250956Y255812D01*
X250864Y255723D01*
X250775Y255631D01*
X250689Y255537D01*
X250605Y255440D01*
X250525Y255341D01*
X250448Y255239D01*
X250373Y255135D01*
X250302Y255028D01*
X250234Y254920D01*
X250170Y254810D01*
X250109Y254697D01*
X250051Y254583D01*
X249997Y254467D01*
X249946Y254350D01*
X249899Y254231D01*
X249856Y254111D01*
X249816Y253989D01*
X249779Y253867D01*
X249747Y253743D01*
X249718Y253618D01*
X249693Y253493D01*
X249672Y253367D01*
X249655Y253240D01*
X249641Y253113D01*
X249632Y252986D01*
X249626Y252858D01*
X249624Y252730D01*
X249624Y240030D01*
X235277Y240030D02*
X228221Y240030D01*
X235277Y240030D02*
X235405Y240032D01*
X235533Y240038D01*
X235660Y240047D01*
X235787Y240061D01*
X235914Y240078D01*
X236040Y240099D01*
X236165Y240124D01*
X236290Y240153D01*
X236414Y240185D01*
X236536Y240222D01*
X236658Y240262D01*
X236778Y240305D01*
X236897Y240352D01*
X237014Y240403D01*
X237130Y240457D01*
X237244Y240515D01*
X237356Y240576D01*
X237467Y240640D01*
X237575Y240708D01*
X237682Y240779D01*
X237786Y240854D01*
X237888Y240931D01*
X237987Y241011D01*
X238084Y241095D01*
X238178Y241181D01*
X238270Y241270D01*
X238359Y241362D01*
X238445Y241456D01*
X238529Y241553D01*
X238609Y241652D01*
X238686Y241754D01*
X238761Y241858D01*
X238832Y241965D01*
X238900Y242073D01*
X238964Y242184D01*
X239025Y242296D01*
X239083Y242410D01*
X239137Y242526D01*
X239188Y242643D01*
X239235Y242762D01*
X239278Y242882D01*
X239318Y243004D01*
X239355Y243126D01*
X239387Y243250D01*
X239416Y243375D01*
X239441Y243500D01*
X239462Y243626D01*
X239479Y243753D01*
X239493Y243880D01*
X239502Y244007D01*
X239508Y244135D01*
X239510Y244263D01*
X239510Y252730D01*
X239508Y252858D01*
X239502Y252986D01*
X239493Y253113D01*
X239479Y253240D01*
X239462Y253367D01*
X239441Y253493D01*
X239416Y253618D01*
X239387Y253743D01*
X239355Y253867D01*
X239318Y253989D01*
X239278Y254111D01*
X239235Y254231D01*
X239188Y254350D01*
X239137Y254467D01*
X239083Y254583D01*
X239025Y254697D01*
X238964Y254809D01*
X238900Y254920D01*
X238832Y255028D01*
X238761Y255135D01*
X238686Y255239D01*
X238609Y255341D01*
X238529Y255440D01*
X238445Y255537D01*
X238359Y255631D01*
X238270Y255723D01*
X238178Y255812D01*
X238084Y255898D01*
X237987Y255982D01*
X237888Y256062D01*
X237786Y256139D01*
X237682Y256214D01*
X237575Y256285D01*
X237467Y256353D01*
X237356Y256417D01*
X237244Y256478D01*
X237130Y256536D01*
X237014Y256590D01*
X236897Y256641D01*
X236778Y256688D01*
X236658Y256731D01*
X236536Y256771D01*
X236414Y256808D01*
X236290Y256840D01*
X236165Y256869D01*
X236040Y256894D01*
X235914Y256915D01*
X235787Y256932D01*
X235660Y256946D01*
X235533Y256955D01*
X235405Y256961D01*
X235277Y256963D01*
X228221Y256963D01*
X228221Y235797D01*
X228223Y235669D01*
X228229Y235541D01*
X228238Y235414D01*
X228252Y235287D01*
X228269Y235160D01*
X228290Y235034D01*
X228315Y234909D01*
X228344Y234784D01*
X228376Y234660D01*
X228413Y234538D01*
X228453Y234416D01*
X228496Y234296D01*
X228543Y234177D01*
X228594Y234060D01*
X228648Y233944D01*
X228706Y233830D01*
X228767Y233718D01*
X228831Y233607D01*
X228899Y233499D01*
X228970Y233392D01*
X229045Y233288D01*
X229122Y233186D01*
X229202Y233087D01*
X229286Y232990D01*
X229372Y232896D01*
X229461Y232804D01*
X229553Y232715D01*
X229647Y232629D01*
X229744Y232545D01*
X229843Y232465D01*
X229945Y232388D01*
X230049Y232313D01*
X230156Y232242D01*
X230264Y232174D01*
X230375Y232110D01*
X230487Y232049D01*
X230601Y231991D01*
X230717Y231937D01*
X230834Y231886D01*
X230953Y231839D01*
X231073Y231796D01*
X231195Y231756D01*
X231317Y231719D01*
X231441Y231687D01*
X231566Y231658D01*
X231691Y231633D01*
X231817Y231612D01*
X231944Y231595D01*
X232071Y231581D01*
X232198Y231572D01*
X232326Y231566D01*
X232454Y231564D01*
X232454Y231563D02*
X238099Y231563D01*
X204130Y240030D02*
X204130Y265430D01*
X204130Y240030D02*
X192841Y240030D01*
X179617Y249908D02*
X173267Y249908D01*
X179617Y249908D02*
X179757Y249906D01*
X179896Y249900D01*
X180036Y249890D01*
X180175Y249876D01*
X180314Y249859D01*
X180452Y249837D01*
X180589Y249811D01*
X180726Y249782D01*
X180862Y249749D01*
X180996Y249712D01*
X181130Y249671D01*
X181262Y249626D01*
X181394Y249577D01*
X181523Y249525D01*
X181651Y249470D01*
X181778Y249410D01*
X181903Y249347D01*
X182026Y249281D01*
X182147Y249211D01*
X182266Y249138D01*
X182383Y249061D01*
X182497Y248981D01*
X182610Y248898D01*
X182720Y248812D01*
X182827Y248722D01*
X182932Y248630D01*
X183034Y248535D01*
X183134Y248437D01*
X183231Y248336D01*
X183325Y248232D01*
X183415Y248126D01*
X183503Y248017D01*
X183588Y247906D01*
X183669Y247792D01*
X183748Y247677D01*
X183823Y247559D01*
X183894Y247439D01*
X183962Y247316D01*
X184027Y247193D01*
X184088Y247067D01*
X184146Y246939D01*
X184200Y246811D01*
X184250Y246680D01*
X184297Y246548D01*
X184340Y246415D01*
X184379Y246281D01*
X184414Y246146D01*
X184445Y246010D01*
X184473Y245872D01*
X184496Y245735D01*
X184516Y245596D01*
X184532Y245457D01*
X184544Y245318D01*
X184552Y245179D01*
X184556Y245039D01*
X184556Y244899D01*
X184552Y244759D01*
X184544Y244620D01*
X184532Y244481D01*
X184516Y244342D01*
X184496Y244203D01*
X184473Y244066D01*
X184445Y243928D01*
X184414Y243792D01*
X184379Y243657D01*
X184340Y243523D01*
X184297Y243390D01*
X184250Y243258D01*
X184200Y243127D01*
X184146Y242999D01*
X184088Y242871D01*
X184027Y242745D01*
X183962Y242622D01*
X183894Y242500D01*
X183823Y242379D01*
X183748Y242261D01*
X183669Y242146D01*
X183588Y242032D01*
X183503Y241921D01*
X183415Y241812D01*
X183325Y241706D01*
X183231Y241602D01*
X183134Y241501D01*
X183034Y241403D01*
X182932Y241308D01*
X182827Y241216D01*
X182720Y241126D01*
X182610Y241040D01*
X182497Y240957D01*
X182383Y240877D01*
X182266Y240800D01*
X182147Y240727D01*
X182026Y240657D01*
X181903Y240591D01*
X181778Y240528D01*
X181651Y240468D01*
X181523Y240413D01*
X181394Y240361D01*
X181262Y240312D01*
X181130Y240267D01*
X180996Y240226D01*
X180862Y240189D01*
X180726Y240156D01*
X180589Y240127D01*
X180452Y240101D01*
X180314Y240079D01*
X180175Y240062D01*
X180036Y240048D01*
X179896Y240038D01*
X179757Y240032D01*
X179617Y240030D01*
X173267Y240030D01*
X173267Y252730D01*
X173269Y252858D01*
X173275Y252986D01*
X173284Y253113D01*
X173298Y253240D01*
X173315Y253367D01*
X173336Y253493D01*
X173361Y253618D01*
X173390Y253743D01*
X173422Y253867D01*
X173459Y253989D01*
X173499Y254111D01*
X173542Y254231D01*
X173589Y254350D01*
X173640Y254467D01*
X173694Y254583D01*
X173752Y254697D01*
X173813Y254809D01*
X173877Y254920D01*
X173945Y255028D01*
X174016Y255135D01*
X174091Y255239D01*
X174168Y255341D01*
X174248Y255440D01*
X174332Y255537D01*
X174418Y255631D01*
X174507Y255723D01*
X174599Y255812D01*
X174693Y255898D01*
X174790Y255982D01*
X174889Y256062D01*
X174991Y256139D01*
X175095Y256214D01*
X175202Y256285D01*
X175310Y256353D01*
X175421Y256417D01*
X175533Y256478D01*
X175647Y256536D01*
X175763Y256590D01*
X175880Y256641D01*
X175999Y256688D01*
X176119Y256731D01*
X176241Y256771D01*
X176363Y256808D01*
X176487Y256840D01*
X176612Y256869D01*
X176737Y256894D01*
X176863Y256915D01*
X176990Y256932D01*
X177117Y256946D01*
X177244Y256955D01*
X177372Y256961D01*
X177500Y256963D01*
X183144Y256963D01*
X162052Y265430D02*
X162052Y240030D01*
X154997Y240030D01*
X154869Y240032D01*
X154741Y240038D01*
X154614Y240047D01*
X154487Y240061D01*
X154360Y240078D01*
X154234Y240099D01*
X154109Y240124D01*
X153984Y240153D01*
X153860Y240185D01*
X153738Y240222D01*
X153616Y240262D01*
X153496Y240305D01*
X153377Y240352D01*
X153260Y240403D01*
X153144Y240457D01*
X153030Y240515D01*
X152918Y240576D01*
X152807Y240640D01*
X152699Y240708D01*
X152592Y240779D01*
X152488Y240854D01*
X152386Y240931D01*
X152287Y241011D01*
X152190Y241095D01*
X152096Y241181D01*
X152004Y241270D01*
X151915Y241362D01*
X151829Y241456D01*
X151745Y241553D01*
X151665Y241652D01*
X151588Y241754D01*
X151513Y241858D01*
X151442Y241965D01*
X151374Y242073D01*
X151310Y242183D01*
X151249Y242296D01*
X151191Y242410D01*
X151137Y242526D01*
X151086Y242643D01*
X151039Y242762D01*
X150996Y242882D01*
X150956Y243004D01*
X150919Y243126D01*
X150887Y243250D01*
X150858Y243375D01*
X150833Y243500D01*
X150812Y243626D01*
X150795Y243753D01*
X150781Y243880D01*
X150772Y244007D01*
X150766Y244135D01*
X150764Y244263D01*
X150764Y252730D01*
X150766Y252858D01*
X150772Y252986D01*
X150781Y253113D01*
X150795Y253240D01*
X150812Y253367D01*
X150833Y253493D01*
X150858Y253618D01*
X150887Y253743D01*
X150919Y253867D01*
X150956Y253989D01*
X150996Y254111D01*
X151039Y254231D01*
X151086Y254350D01*
X151137Y254467D01*
X151191Y254583D01*
X151249Y254697D01*
X151310Y254809D01*
X151374Y254920D01*
X151442Y255028D01*
X151513Y255135D01*
X151588Y255239D01*
X151665Y255341D01*
X151745Y255440D01*
X151829Y255537D01*
X151915Y255631D01*
X152004Y255723D01*
X152096Y255812D01*
X152190Y255898D01*
X152287Y255982D01*
X152386Y256062D01*
X152488Y256139D01*
X152592Y256214D01*
X152699Y256285D01*
X152807Y256353D01*
X152918Y256417D01*
X153030Y256478D01*
X153144Y256536D01*
X153260Y256590D01*
X153377Y256641D01*
X153496Y256688D01*
X153616Y256731D01*
X153738Y256771D01*
X153860Y256808D01*
X153984Y256840D01*
X154109Y256869D01*
X154234Y256894D01*
X154360Y256915D01*
X154487Y256932D01*
X154614Y256946D01*
X154741Y256955D01*
X154869Y256961D01*
X154997Y256963D01*
X162052Y256963D01*
X528320Y225354D02*
X528320Y219710D01*
X521264Y219710D02*
X521264Y225354D01*
X512733Y212654D02*
X512733Y201366D01*
X512734Y212654D02*
X512732Y212826D01*
X512726Y212998D01*
X512715Y213169D01*
X512701Y213340D01*
X512682Y213511D01*
X512659Y213681D01*
X512632Y213851D01*
X512601Y214020D01*
X512565Y214188D01*
X512526Y214355D01*
X512482Y214522D01*
X512435Y214687D01*
X512383Y214851D01*
X512328Y215013D01*
X512268Y215175D01*
X512205Y215334D01*
X512138Y215493D01*
X512067Y215649D01*
X511992Y215804D01*
X511913Y215956D01*
X511831Y216107D01*
X511745Y216256D01*
X511656Y216403D01*
X511563Y216547D01*
X511466Y216689D01*
X511366Y216829D01*
X511263Y216966D01*
X511156Y217101D01*
X511046Y217233D01*
X510933Y217363D01*
X510817Y217489D01*
X510698Y217613D01*
X510575Y217734D01*
X510450Y217851D01*
X510322Y217966D01*
X510192Y218078D01*
X510058Y218186D01*
X509922Y218291D01*
X509784Y218393D01*
X509643Y218491D01*
X509499Y218586D01*
X509354Y218677D01*
X509206Y218765D01*
X509056Y218849D01*
X508904Y218929D01*
X508751Y219006D01*
X508595Y219079D01*
X508438Y219148D01*
X508279Y219213D01*
X508118Y219275D01*
X507956Y219332D01*
X507793Y219386D01*
X507628Y219435D01*
X507463Y219481D01*
X507296Y219522D01*
X507128Y219559D01*
X506960Y219593D01*
X506790Y219622D01*
X506620Y219647D01*
X506450Y219668D01*
X506279Y219684D01*
X506107Y219697D01*
X505936Y219705D01*
X505764Y219709D01*
X505592Y219709D01*
X505420Y219705D01*
X505249Y219697D01*
X505077Y219684D01*
X504906Y219668D01*
X504736Y219647D01*
X504566Y219622D01*
X504396Y219593D01*
X504228Y219559D01*
X504060Y219522D01*
X503893Y219481D01*
X503728Y219435D01*
X503563Y219386D01*
X503400Y219332D01*
X503238Y219275D01*
X503077Y219213D01*
X502918Y219148D01*
X502761Y219079D01*
X502605Y219006D01*
X502452Y218929D01*
X502300Y218849D01*
X502150Y218765D01*
X502002Y218677D01*
X501857Y218586D01*
X501713Y218491D01*
X501572Y218393D01*
X501434Y218291D01*
X501298Y218186D01*
X501164Y218078D01*
X501034Y217966D01*
X500906Y217851D01*
X500781Y217734D01*
X500658Y217613D01*
X500539Y217489D01*
X500423Y217363D01*
X500310Y217233D01*
X500200Y217101D01*
X500093Y216966D01*
X499990Y216829D01*
X499890Y216689D01*
X499793Y216547D01*
X499700Y216403D01*
X499611Y216256D01*
X499525Y216107D01*
X499443Y215956D01*
X499364Y215804D01*
X499289Y215649D01*
X499218Y215493D01*
X499151Y215334D01*
X499088Y215175D01*
X499028Y215013D01*
X498973Y214851D01*
X498921Y214687D01*
X498874Y214522D01*
X498830Y214355D01*
X498791Y214188D01*
X498755Y214020D01*
X498724Y213851D01*
X498697Y213681D01*
X498674Y213511D01*
X498655Y213340D01*
X498641Y213169D01*
X498630Y212998D01*
X498624Y212826D01*
X498622Y212654D01*
X498622Y201366D01*
X498624Y201194D01*
X498630Y201022D01*
X498641Y200851D01*
X498655Y200680D01*
X498674Y200509D01*
X498697Y200339D01*
X498724Y200169D01*
X498755Y200000D01*
X498791Y199832D01*
X498830Y199665D01*
X498874Y199498D01*
X498921Y199333D01*
X498973Y199169D01*
X499028Y199007D01*
X499088Y198845D01*
X499151Y198686D01*
X499218Y198527D01*
X499289Y198371D01*
X499364Y198216D01*
X499443Y198064D01*
X499525Y197913D01*
X499611Y197764D01*
X499700Y197617D01*
X499793Y197473D01*
X499890Y197331D01*
X499990Y197191D01*
X500093Y197054D01*
X500200Y196919D01*
X500310Y196787D01*
X500423Y196657D01*
X500539Y196531D01*
X500658Y196407D01*
X500781Y196286D01*
X500906Y196169D01*
X501034Y196054D01*
X501164Y195942D01*
X501298Y195834D01*
X501434Y195729D01*
X501572Y195627D01*
X501713Y195529D01*
X501857Y195434D01*
X502002Y195343D01*
X502150Y195255D01*
X502300Y195171D01*
X502452Y195091D01*
X502605Y195014D01*
X502761Y194941D01*
X502918Y194872D01*
X503077Y194807D01*
X503238Y194745D01*
X503400Y194688D01*
X503563Y194634D01*
X503728Y194585D01*
X503893Y194539D01*
X504060Y194498D01*
X504228Y194461D01*
X504396Y194427D01*
X504566Y194398D01*
X504736Y194373D01*
X504906Y194352D01*
X505077Y194336D01*
X505249Y194323D01*
X505420Y194315D01*
X505592Y194311D01*
X505764Y194311D01*
X505936Y194315D01*
X506107Y194323D01*
X506279Y194336D01*
X506450Y194352D01*
X506620Y194373D01*
X506790Y194398D01*
X506960Y194427D01*
X507128Y194461D01*
X507296Y194498D01*
X507463Y194539D01*
X507628Y194585D01*
X507793Y194634D01*
X507956Y194688D01*
X508118Y194745D01*
X508279Y194807D01*
X508438Y194872D01*
X508595Y194941D01*
X508751Y195014D01*
X508904Y195091D01*
X509056Y195171D01*
X509206Y195255D01*
X509354Y195343D01*
X509499Y195434D01*
X509643Y195529D01*
X509784Y195627D01*
X509922Y195729D01*
X510058Y195834D01*
X510192Y195942D01*
X510322Y196054D01*
X510450Y196169D01*
X510575Y196286D01*
X510698Y196407D01*
X510817Y196531D01*
X510933Y196657D01*
X511046Y196787D01*
X511156Y196919D01*
X511263Y197054D01*
X511366Y197191D01*
X511466Y197331D01*
X511563Y197473D01*
X511656Y197617D01*
X511745Y197764D01*
X511831Y197913D01*
X511913Y198064D01*
X511992Y198216D01*
X512067Y198371D01*
X512138Y198527D01*
X512205Y198686D01*
X512268Y198845D01*
X512328Y199007D01*
X512383Y199169D01*
X512435Y199333D01*
X512482Y199498D01*
X512526Y199665D01*
X512565Y199832D01*
X512601Y200000D01*
X512632Y200169D01*
X512659Y200339D01*
X512682Y200509D01*
X512701Y200680D01*
X512715Y200851D01*
X512726Y201022D01*
X512732Y201194D01*
X512734Y201366D01*
X488225Y198543D02*
X488225Y211243D01*
X488225Y198543D02*
X488223Y198415D01*
X488217Y198287D01*
X488208Y198160D01*
X488194Y198033D01*
X488177Y197906D01*
X488156Y197780D01*
X488131Y197655D01*
X488102Y197530D01*
X488070Y197406D01*
X488033Y197284D01*
X487993Y197162D01*
X487950Y197042D01*
X487903Y196923D01*
X487852Y196806D01*
X487798Y196690D01*
X487740Y196576D01*
X487679Y196464D01*
X487615Y196353D01*
X487547Y196245D01*
X487476Y196138D01*
X487401Y196034D01*
X487324Y195932D01*
X487244Y195833D01*
X487160Y195736D01*
X487074Y195642D01*
X486985Y195550D01*
X486893Y195461D01*
X486799Y195375D01*
X486702Y195291D01*
X486603Y195211D01*
X486501Y195134D01*
X486397Y195059D01*
X486290Y194988D01*
X486182Y194920D01*
X486071Y194856D01*
X485959Y194795D01*
X485845Y194737D01*
X485729Y194683D01*
X485612Y194632D01*
X485493Y194585D01*
X485373Y194542D01*
X485251Y194502D01*
X485129Y194465D01*
X485005Y194433D01*
X484880Y194404D01*
X484755Y194379D01*
X484629Y194358D01*
X484502Y194341D01*
X484375Y194327D01*
X484248Y194318D01*
X484120Y194312D01*
X483992Y194310D01*
X476936Y194310D01*
X476936Y211243D01*
X465791Y211243D02*
X465791Y194310D01*
X465791Y211243D02*
X457324Y211243D01*
X457324Y208421D01*
X436221Y194310D02*
X424932Y194310D01*
X436221Y194310D02*
X436221Y219710D01*
X424932Y219710D01*
X427755Y208421D02*
X436221Y208421D01*
X408694Y194310D02*
X408546Y194312D01*
X408399Y194318D01*
X408251Y194327D01*
X408104Y194341D01*
X407957Y194358D01*
X407811Y194379D01*
X407665Y194405D01*
X407521Y194433D01*
X407376Y194466D01*
X407233Y194502D01*
X407091Y194542D01*
X406950Y194586D01*
X406810Y194634D01*
X406671Y194685D01*
X406534Y194740D01*
X406398Y194798D01*
X406264Y194860D01*
X406132Y194925D01*
X406001Y194994D01*
X405872Y195066D01*
X405745Y195142D01*
X405620Y195221D01*
X405497Y195303D01*
X405377Y195388D01*
X405258Y195476D01*
X405142Y195568D01*
X405029Y195662D01*
X404917Y195760D01*
X404809Y195860D01*
X404703Y195963D01*
X404600Y196069D01*
X404500Y196177D01*
X404402Y196289D01*
X404308Y196402D01*
X404216Y196518D01*
X404128Y196637D01*
X404043Y196757D01*
X403961Y196880D01*
X403882Y197005D01*
X403806Y197132D01*
X403734Y197261D01*
X403665Y197392D01*
X403600Y197524D01*
X403538Y197658D01*
X403480Y197794D01*
X403425Y197931D01*
X403374Y198070D01*
X403326Y198210D01*
X403282Y198351D01*
X403242Y198493D01*
X403206Y198636D01*
X403173Y198781D01*
X403145Y198925D01*
X403119Y199071D01*
X403098Y199217D01*
X403081Y199364D01*
X403067Y199511D01*
X403058Y199659D01*
X403052Y199806D01*
X403050Y199954D01*
X408694Y194310D02*
X408979Y194313D01*
X409264Y194324D01*
X409549Y194341D01*
X409833Y194365D01*
X410117Y194395D01*
X410400Y194433D01*
X410682Y194477D01*
X410962Y194528D01*
X411242Y194585D01*
X411520Y194650D01*
X411796Y194721D01*
X412071Y194798D01*
X412343Y194882D01*
X412614Y194973D01*
X412882Y195070D01*
X413148Y195173D01*
X413411Y195283D01*
X413672Y195399D01*
X413930Y195521D01*
X414185Y195649D01*
X414436Y195784D01*
X414685Y195924D01*
X414930Y196070D01*
X415171Y196223D01*
X415409Y196380D01*
X415643Y196544D01*
X415872Y196713D01*
X416098Y196887D01*
X416320Y197067D01*
X416537Y197252D01*
X416749Y197442D01*
X416957Y197638D01*
X417161Y197838D01*
X416454Y214066D02*
X416452Y214214D01*
X416446Y214361D01*
X416437Y214509D01*
X416423Y214656D01*
X416406Y214803D01*
X416385Y214949D01*
X416359Y215095D01*
X416331Y215239D01*
X416298Y215384D01*
X416262Y215527D01*
X416222Y215669D01*
X416178Y215810D01*
X416130Y215950D01*
X416079Y216089D01*
X416024Y216226D01*
X415966Y216362D01*
X415904Y216496D01*
X415839Y216628D01*
X415770Y216759D01*
X415698Y216888D01*
X415622Y217015D01*
X415543Y217140D01*
X415461Y217263D01*
X415376Y217383D01*
X415288Y217502D01*
X415196Y217618D01*
X415102Y217731D01*
X415004Y217843D01*
X414904Y217951D01*
X414801Y218057D01*
X414695Y218160D01*
X414587Y218260D01*
X414475Y218358D01*
X414362Y218452D01*
X414246Y218544D01*
X414127Y218632D01*
X414007Y218717D01*
X413884Y218799D01*
X413759Y218878D01*
X413632Y218954D01*
X413503Y219026D01*
X413372Y219095D01*
X413240Y219160D01*
X413106Y219222D01*
X412970Y219280D01*
X412833Y219335D01*
X412694Y219386D01*
X412554Y219434D01*
X412413Y219478D01*
X412271Y219518D01*
X412128Y219554D01*
X411983Y219587D01*
X411839Y219615D01*
X411693Y219641D01*
X411547Y219662D01*
X411400Y219679D01*
X411253Y219693D01*
X411105Y219702D01*
X410958Y219708D01*
X410810Y219710D01*
X410558Y219707D01*
X410306Y219698D01*
X410054Y219683D01*
X409803Y219662D01*
X409552Y219635D01*
X409302Y219602D01*
X409053Y219563D01*
X408804Y219518D01*
X408557Y219467D01*
X408312Y219411D01*
X408067Y219348D01*
X407824Y219280D01*
X407583Y219206D01*
X407344Y219126D01*
X407107Y219041D01*
X406871Y218950D01*
X406638Y218853D01*
X406408Y218751D01*
X406180Y218643D01*
X405954Y218530D01*
X405732Y218412D01*
X405512Y218288D01*
X405295Y218159D01*
X405081Y218025D01*
X404871Y217886D01*
X404664Y217742D01*
X404460Y217593D01*
X413633Y209127D02*
X413760Y209204D01*
X413885Y209284D01*
X414008Y209368D01*
X414129Y209455D01*
X414247Y209545D01*
X414364Y209638D01*
X414477Y209734D01*
X414588Y209833D01*
X414697Y209935D01*
X414803Y210039D01*
X414906Y210147D01*
X415006Y210257D01*
X415104Y210369D01*
X415198Y210484D01*
X415290Y210601D01*
X415378Y210721D01*
X415463Y210843D01*
X415545Y210967D01*
X415624Y211093D01*
X415700Y211222D01*
X415772Y211352D01*
X415841Y211484D01*
X415906Y211617D01*
X415968Y211753D01*
X416026Y211890D01*
X416081Y212028D01*
X416132Y212168D01*
X416179Y212309D01*
X416223Y212451D01*
X416263Y212595D01*
X416299Y212739D01*
X416332Y212884D01*
X416361Y213030D01*
X416386Y213177D01*
X416407Y213324D01*
X416424Y213472D01*
X416438Y213620D01*
X416447Y213769D01*
X416453Y213917D01*
X416455Y214066D01*
X405871Y204893D02*
X405744Y204816D01*
X405619Y204736D01*
X405496Y204652D01*
X405375Y204565D01*
X405257Y204475D01*
X405141Y204382D01*
X405027Y204286D01*
X404916Y204187D01*
X404807Y204085D01*
X404701Y203981D01*
X404598Y203873D01*
X404498Y203764D01*
X404400Y203651D01*
X404306Y203536D01*
X404214Y203419D01*
X404126Y203299D01*
X404041Y203177D01*
X403959Y203053D01*
X403880Y202927D01*
X403804Y202798D01*
X403732Y202668D01*
X403663Y202536D01*
X403598Y202403D01*
X403536Y202267D01*
X403478Y202130D01*
X403423Y201992D01*
X403372Y201852D01*
X403325Y201711D01*
X403281Y201569D01*
X403241Y201425D01*
X403205Y201281D01*
X403172Y201136D01*
X403143Y200990D01*
X403118Y200843D01*
X403097Y200696D01*
X403080Y200548D01*
X403066Y200400D01*
X403057Y200251D01*
X403051Y200103D01*
X403049Y199954D01*
X405872Y204893D02*
X413633Y209127D01*
X392973Y219710D02*
X392973Y194310D01*
X392973Y219710D02*
X385917Y219710D01*
X385745Y219708D01*
X385573Y219702D01*
X385402Y219691D01*
X385231Y219677D01*
X385060Y219658D01*
X384890Y219635D01*
X384720Y219608D01*
X384551Y219577D01*
X384383Y219541D01*
X384216Y219502D01*
X384049Y219458D01*
X383884Y219411D01*
X383720Y219359D01*
X383558Y219304D01*
X383396Y219244D01*
X383237Y219181D01*
X383078Y219114D01*
X382922Y219043D01*
X382767Y218968D01*
X382615Y218889D01*
X382464Y218807D01*
X382315Y218721D01*
X382168Y218632D01*
X382024Y218539D01*
X381882Y218442D01*
X381742Y218342D01*
X381605Y218239D01*
X381470Y218132D01*
X381338Y218022D01*
X381208Y217909D01*
X381082Y217793D01*
X380958Y217674D01*
X380837Y217551D01*
X380720Y217426D01*
X380605Y217298D01*
X380493Y217168D01*
X380385Y217034D01*
X380280Y216898D01*
X380178Y216760D01*
X380080Y216619D01*
X379985Y216475D01*
X379894Y216330D01*
X379806Y216182D01*
X379722Y216032D01*
X379642Y215880D01*
X379565Y215727D01*
X379492Y215571D01*
X379423Y215414D01*
X379358Y215255D01*
X379296Y215094D01*
X379239Y214932D01*
X379185Y214769D01*
X379136Y214604D01*
X379090Y214439D01*
X379049Y214272D01*
X379012Y214104D01*
X378978Y213936D01*
X378949Y213766D01*
X378924Y213596D01*
X378903Y213426D01*
X378887Y213255D01*
X378874Y213083D01*
X378866Y212912D01*
X378862Y212740D01*
X378862Y212568D01*
X378866Y212396D01*
X378874Y212225D01*
X378887Y212053D01*
X378903Y211882D01*
X378924Y211712D01*
X378949Y211542D01*
X378978Y211372D01*
X379012Y211204D01*
X379049Y211036D01*
X379090Y210869D01*
X379136Y210704D01*
X379185Y210539D01*
X379239Y210376D01*
X379296Y210214D01*
X379358Y210053D01*
X379423Y209894D01*
X379492Y209737D01*
X379565Y209581D01*
X379642Y209428D01*
X379722Y209276D01*
X379806Y209126D01*
X379894Y208978D01*
X379985Y208833D01*
X380080Y208689D01*
X380178Y208548D01*
X380280Y208410D01*
X380385Y208274D01*
X380493Y208140D01*
X380605Y208010D01*
X380720Y207882D01*
X380837Y207757D01*
X380958Y207634D01*
X381082Y207515D01*
X381208Y207399D01*
X381338Y207286D01*
X381470Y207176D01*
X381605Y207069D01*
X381742Y206966D01*
X381882Y206866D01*
X382024Y206769D01*
X382168Y206676D01*
X382315Y206587D01*
X382464Y206501D01*
X382615Y206419D01*
X382767Y206340D01*
X382922Y206265D01*
X383078Y206194D01*
X383237Y206127D01*
X383396Y206064D01*
X383558Y206004D01*
X383720Y205949D01*
X383884Y205897D01*
X384049Y205850D01*
X384216Y205806D01*
X384383Y205767D01*
X384551Y205731D01*
X384720Y205700D01*
X384890Y205673D01*
X385060Y205650D01*
X385231Y205631D01*
X385402Y205617D01*
X385573Y205606D01*
X385745Y205600D01*
X385917Y205598D01*
X385917Y205599D02*
X392973Y205599D01*
X370170Y194310D02*
X363115Y194310D01*
X362943Y194312D01*
X362771Y194318D01*
X362600Y194329D01*
X362429Y194343D01*
X362258Y194362D01*
X362088Y194385D01*
X361918Y194412D01*
X361749Y194443D01*
X361581Y194479D01*
X361414Y194518D01*
X361247Y194562D01*
X361082Y194609D01*
X360918Y194661D01*
X360756Y194716D01*
X360594Y194776D01*
X360435Y194839D01*
X360276Y194906D01*
X360120Y194977D01*
X359965Y195052D01*
X359813Y195131D01*
X359662Y195213D01*
X359513Y195299D01*
X359366Y195388D01*
X359222Y195481D01*
X359080Y195578D01*
X358940Y195678D01*
X358803Y195781D01*
X358668Y195888D01*
X358536Y195998D01*
X358406Y196111D01*
X358280Y196227D01*
X358156Y196346D01*
X358035Y196469D01*
X357918Y196594D01*
X357803Y196722D01*
X357691Y196852D01*
X357583Y196986D01*
X357478Y197122D01*
X357376Y197260D01*
X357278Y197401D01*
X357183Y197545D01*
X357092Y197690D01*
X357004Y197838D01*
X356920Y197988D01*
X356840Y198140D01*
X356763Y198293D01*
X356690Y198449D01*
X356621Y198606D01*
X356556Y198765D01*
X356494Y198926D01*
X356437Y199088D01*
X356383Y199251D01*
X356334Y199416D01*
X356288Y199581D01*
X356247Y199748D01*
X356210Y199916D01*
X356176Y200084D01*
X356147Y200254D01*
X356122Y200424D01*
X356101Y200594D01*
X356085Y200765D01*
X356072Y200937D01*
X356064Y201108D01*
X356060Y201280D01*
X356060Y201452D01*
X356064Y201624D01*
X356072Y201795D01*
X356085Y201967D01*
X356101Y202138D01*
X356122Y202308D01*
X356147Y202478D01*
X356176Y202648D01*
X356210Y202816D01*
X356247Y202984D01*
X356288Y203151D01*
X356334Y203316D01*
X356383Y203481D01*
X356437Y203644D01*
X356494Y203806D01*
X356556Y203967D01*
X356621Y204126D01*
X356690Y204283D01*
X356763Y204439D01*
X356840Y204592D01*
X356920Y204744D01*
X357004Y204894D01*
X357092Y205042D01*
X357183Y205187D01*
X357278Y205331D01*
X357376Y205472D01*
X357478Y205610D01*
X357583Y205746D01*
X357691Y205880D01*
X357803Y206010D01*
X357918Y206138D01*
X358035Y206263D01*
X358156Y206386D01*
X358280Y206505D01*
X358406Y206621D01*
X358536Y206734D01*
X358668Y206844D01*
X358803Y206951D01*
X358940Y207054D01*
X359080Y207154D01*
X359222Y207251D01*
X359366Y207344D01*
X359513Y207433D01*
X359662Y207519D01*
X359813Y207601D01*
X359965Y207680D01*
X360120Y207755D01*
X360276Y207826D01*
X360435Y207893D01*
X360594Y207956D01*
X360756Y208016D01*
X360918Y208071D01*
X361082Y208123D01*
X361247Y208170D01*
X361414Y208214D01*
X361581Y208253D01*
X361749Y208289D01*
X361918Y208320D01*
X362088Y208347D01*
X362258Y208370D01*
X362429Y208389D01*
X362600Y208403D01*
X362771Y208414D01*
X362943Y208420D01*
X363115Y208422D01*
X361704Y219710D02*
X370170Y219710D01*
X361704Y219710D02*
X361555Y219708D01*
X361406Y219702D01*
X361257Y219692D01*
X361109Y219679D01*
X360961Y219661D01*
X360814Y219639D01*
X360667Y219614D01*
X360521Y219585D01*
X360376Y219551D01*
X360231Y219514D01*
X360088Y219474D01*
X359946Y219429D01*
X359805Y219381D01*
X359665Y219329D01*
X359527Y219273D01*
X359390Y219214D01*
X359255Y219151D01*
X359122Y219085D01*
X358990Y219015D01*
X358861Y218941D01*
X358733Y218865D01*
X358607Y218785D01*
X358484Y218701D01*
X358362Y218615D01*
X358244Y218525D01*
X358127Y218432D01*
X358013Y218336D01*
X357902Y218237D01*
X357793Y218135D01*
X357687Y218030D01*
X357584Y217923D01*
X357483Y217813D01*
X357386Y217700D01*
X357291Y217585D01*
X357200Y217467D01*
X357112Y217347D01*
X357027Y217225D01*
X356945Y217100D01*
X356867Y216974D01*
X356792Y216845D01*
X356720Y216714D01*
X356652Y216582D01*
X356587Y216448D01*
X356526Y216312D01*
X356468Y216174D01*
X356415Y216035D01*
X356365Y215895D01*
X356318Y215753D01*
X356275Y215611D01*
X356237Y215467D01*
X356202Y215322D01*
X356170Y215176D01*
X356143Y215030D01*
X356119Y214883D01*
X356100Y214735D01*
X356084Y214587D01*
X356072Y214438D01*
X356064Y214289D01*
X356060Y214140D01*
X356060Y213992D01*
X356064Y213843D01*
X356072Y213694D01*
X356084Y213545D01*
X356100Y213397D01*
X356119Y213249D01*
X356143Y213102D01*
X356170Y212956D01*
X356202Y212810D01*
X356237Y212665D01*
X356275Y212521D01*
X356318Y212379D01*
X356365Y212237D01*
X356415Y212097D01*
X356468Y211958D01*
X356526Y211820D01*
X356587Y211684D01*
X356652Y211550D01*
X356720Y211418D01*
X356792Y211287D01*
X356867Y211158D01*
X356945Y211032D01*
X357027Y210907D01*
X357112Y210785D01*
X357200Y210665D01*
X357291Y210547D01*
X357386Y210432D01*
X357483Y210319D01*
X357584Y210209D01*
X357687Y210102D01*
X357793Y209997D01*
X357902Y209895D01*
X358013Y209796D01*
X358127Y209700D01*
X358244Y209607D01*
X358362Y209517D01*
X358484Y209431D01*
X358607Y209347D01*
X358733Y209267D01*
X358861Y209191D01*
X358990Y209117D01*
X359122Y209047D01*
X359255Y208981D01*
X359390Y208918D01*
X359527Y208859D01*
X359665Y208803D01*
X359805Y208751D01*
X359946Y208703D01*
X360088Y208658D01*
X360231Y208618D01*
X360376Y208581D01*
X360521Y208547D01*
X360667Y208518D01*
X360814Y208493D01*
X360961Y208471D01*
X361109Y208453D01*
X361257Y208440D01*
X361406Y208430D01*
X361555Y208424D01*
X361704Y208422D01*
X361704Y208421D02*
X367348Y208421D01*
X338516Y219710D02*
X338358Y219708D01*
X338199Y219702D01*
X338041Y219692D01*
X337884Y219678D01*
X337726Y219661D01*
X337570Y219639D01*
X337413Y219614D01*
X337258Y219584D01*
X337103Y219551D01*
X336949Y219514D01*
X336796Y219473D01*
X336644Y219428D01*
X336494Y219379D01*
X336344Y219327D01*
X336196Y219271D01*
X336049Y219211D01*
X335904Y219148D01*
X335761Y219081D01*
X335619Y219011D01*
X335479Y218937D01*
X335341Y218859D01*
X335205Y218778D01*
X335071Y218694D01*
X334939Y218607D01*
X334809Y218516D01*
X334682Y218422D01*
X334557Y218325D01*
X334434Y218224D01*
X334314Y218121D01*
X334197Y218015D01*
X334082Y217906D01*
X333970Y217794D01*
X333861Y217679D01*
X333755Y217562D01*
X333652Y217442D01*
X333551Y217319D01*
X333454Y217194D01*
X333360Y217067D01*
X333269Y216937D01*
X333182Y216805D01*
X333098Y216671D01*
X333017Y216535D01*
X332939Y216397D01*
X332865Y216257D01*
X332795Y216115D01*
X332728Y215972D01*
X332665Y215827D01*
X332605Y215680D01*
X332549Y215532D01*
X332497Y215382D01*
X332448Y215232D01*
X332403Y215080D01*
X332362Y214927D01*
X332325Y214773D01*
X332292Y214618D01*
X332262Y214463D01*
X332237Y214306D01*
X332215Y214150D01*
X332198Y213992D01*
X332184Y213835D01*
X332174Y213677D01*
X332168Y213518D01*
X332166Y213360D01*
X338516Y219710D02*
X338713Y219708D01*
X338910Y219700D01*
X339107Y219689D01*
X339304Y219672D01*
X339500Y219650D01*
X339696Y219624D01*
X339890Y219593D01*
X340085Y219558D01*
X340278Y219518D01*
X340470Y219473D01*
X340661Y219423D01*
X340850Y219369D01*
X341039Y219310D01*
X341226Y219247D01*
X341411Y219179D01*
X341595Y219107D01*
X341776Y219030D01*
X341956Y218949D01*
X342134Y218864D01*
X342310Y218774D01*
X342483Y218680D01*
X342655Y218582D01*
X342823Y218480D01*
X342990Y218374D01*
X343153Y218264D01*
X343314Y218150D01*
X343472Y218032D01*
X343628Y217910D01*
X343780Y217784D01*
X343929Y217655D01*
X344075Y217523D01*
X344218Y217386D01*
X344357Y217247D01*
X344493Y217104D01*
X344626Y216958D01*
X344755Y216808D01*
X344880Y216656D01*
X345002Y216501D01*
X345119Y216342D01*
X345233Y216181D01*
X345343Y216018D01*
X345449Y215851D01*
X345551Y215682D01*
X345649Y215511D01*
X345743Y215337D01*
X345832Y215161D01*
X345917Y214983D01*
X345998Y214803D01*
X346075Y214621D01*
X346147Y214438D01*
X346214Y214252D01*
X346277Y214065D01*
X334284Y208421D02*
X334164Y208538D01*
X334047Y208658D01*
X333933Y208781D01*
X333822Y208906D01*
X333714Y209034D01*
X333610Y209165D01*
X333509Y209298D01*
X333411Y209434D01*
X333316Y209572D01*
X333225Y209712D01*
X333137Y209854D01*
X333053Y209999D01*
X332972Y210146D01*
X332895Y210294D01*
X332822Y210445D01*
X332752Y210597D01*
X332686Y210751D01*
X332624Y210906D01*
X332566Y211063D01*
X332511Y211221D01*
X332461Y211381D01*
X332414Y211541D01*
X332371Y211703D01*
X332333Y211866D01*
X332298Y212030D01*
X332267Y212194D01*
X332241Y212360D01*
X332218Y212525D01*
X332200Y212692D01*
X332185Y212858D01*
X332175Y213025D01*
X332169Y213193D01*
X332167Y213360D01*
X334283Y208421D02*
X346277Y194310D01*
X332166Y194310D01*
X308550Y194310D02*
X308550Y219710D01*
X301494Y219710D01*
X301322Y219708D01*
X301150Y219702D01*
X300979Y219691D01*
X300808Y219677D01*
X300637Y219658D01*
X300467Y219635D01*
X300297Y219608D01*
X300128Y219577D01*
X299960Y219541D01*
X299793Y219502D01*
X299626Y219458D01*
X299461Y219411D01*
X299297Y219359D01*
X299135Y219304D01*
X298973Y219244D01*
X298814Y219181D01*
X298655Y219114D01*
X298499Y219043D01*
X298344Y218968D01*
X298192Y218889D01*
X298041Y218807D01*
X297892Y218721D01*
X297745Y218632D01*
X297601Y218539D01*
X297459Y218442D01*
X297319Y218342D01*
X297182Y218239D01*
X297047Y218132D01*
X296915Y218022D01*
X296785Y217909D01*
X296659Y217793D01*
X296535Y217674D01*
X296414Y217551D01*
X296297Y217426D01*
X296182Y217298D01*
X296070Y217168D01*
X295962Y217034D01*
X295857Y216898D01*
X295755Y216760D01*
X295657Y216619D01*
X295562Y216475D01*
X295471Y216330D01*
X295383Y216182D01*
X295299Y216032D01*
X295219Y215880D01*
X295142Y215727D01*
X295069Y215571D01*
X295000Y215414D01*
X294935Y215255D01*
X294873Y215094D01*
X294816Y214932D01*
X294762Y214769D01*
X294713Y214604D01*
X294667Y214439D01*
X294626Y214272D01*
X294589Y214104D01*
X294555Y213936D01*
X294526Y213766D01*
X294501Y213596D01*
X294480Y213426D01*
X294464Y213255D01*
X294451Y213083D01*
X294443Y212912D01*
X294439Y212740D01*
X294439Y212568D01*
X294443Y212396D01*
X294451Y212225D01*
X294464Y212053D01*
X294480Y211882D01*
X294501Y211712D01*
X294526Y211542D01*
X294555Y211372D01*
X294589Y211204D01*
X294626Y211036D01*
X294667Y210869D01*
X294713Y210704D01*
X294762Y210539D01*
X294816Y210376D01*
X294873Y210214D01*
X294935Y210053D01*
X295000Y209894D01*
X295069Y209737D01*
X295142Y209581D01*
X295219Y209428D01*
X295299Y209276D01*
X295383Y209126D01*
X295471Y208978D01*
X295562Y208833D01*
X295657Y208689D01*
X295755Y208548D01*
X295857Y208410D01*
X295962Y208274D01*
X296070Y208140D01*
X296182Y208010D01*
X296297Y207882D01*
X296414Y207757D01*
X296535Y207634D01*
X296659Y207515D01*
X296785Y207399D01*
X296915Y207286D01*
X297047Y207176D01*
X297182Y207069D01*
X297319Y206966D01*
X297459Y206866D01*
X297601Y206769D01*
X297745Y206676D01*
X297892Y206587D01*
X298041Y206501D01*
X298192Y206419D01*
X298344Y206340D01*
X298499Y206265D01*
X298655Y206194D01*
X298814Y206127D01*
X298973Y206064D01*
X299135Y206004D01*
X299297Y205949D01*
X299461Y205897D01*
X299626Y205850D01*
X299793Y205806D01*
X299960Y205767D01*
X300128Y205731D01*
X300297Y205700D01*
X300467Y205673D01*
X300637Y205650D01*
X300808Y205631D01*
X300979Y205617D01*
X301150Y205606D01*
X301322Y205600D01*
X301494Y205598D01*
X301494Y205599D02*
X308550Y205599D01*
X284999Y211243D02*
X284999Y194310D01*
X284999Y211243D02*
X276532Y211243D01*
X276532Y208421D01*
X269204Y205599D02*
X269204Y199954D01*
X269204Y205599D02*
X269202Y205748D01*
X269196Y205897D01*
X269186Y206046D01*
X269173Y206194D01*
X269155Y206342D01*
X269133Y206489D01*
X269108Y206636D01*
X269079Y206782D01*
X269045Y206927D01*
X269008Y207072D01*
X268968Y207215D01*
X268923Y207357D01*
X268875Y207498D01*
X268823Y207638D01*
X268767Y207776D01*
X268708Y207913D01*
X268645Y208048D01*
X268579Y208181D01*
X268509Y208313D01*
X268435Y208442D01*
X268359Y208570D01*
X268279Y208696D01*
X268195Y208819D01*
X268109Y208941D01*
X268019Y209059D01*
X267926Y209176D01*
X267830Y209290D01*
X267731Y209401D01*
X267629Y209510D01*
X267524Y209616D01*
X267417Y209719D01*
X267307Y209820D01*
X267194Y209917D01*
X267079Y210012D01*
X266961Y210103D01*
X266841Y210191D01*
X266719Y210276D01*
X266594Y210358D01*
X266468Y210436D01*
X266339Y210511D01*
X266208Y210583D01*
X266076Y210651D01*
X265942Y210716D01*
X265806Y210777D01*
X265668Y210835D01*
X265529Y210888D01*
X265389Y210938D01*
X265247Y210985D01*
X265105Y211028D01*
X264961Y211066D01*
X264816Y211101D01*
X264670Y211133D01*
X264524Y211160D01*
X264377Y211184D01*
X264229Y211203D01*
X264081Y211219D01*
X263932Y211231D01*
X263783Y211239D01*
X263634Y211243D01*
X263486Y211243D01*
X263337Y211239D01*
X263188Y211231D01*
X263039Y211219D01*
X262891Y211203D01*
X262743Y211184D01*
X262596Y211160D01*
X262450Y211133D01*
X262304Y211101D01*
X262159Y211066D01*
X262015Y211028D01*
X261873Y210985D01*
X261731Y210938D01*
X261591Y210888D01*
X261452Y210835D01*
X261314Y210777D01*
X261178Y210716D01*
X261044Y210651D01*
X260912Y210583D01*
X260781Y210511D01*
X260652Y210436D01*
X260526Y210358D01*
X260401Y210276D01*
X260279Y210191D01*
X260159Y210103D01*
X260041Y210012D01*
X259926Y209917D01*
X259813Y209820D01*
X259703Y209719D01*
X259596Y209616D01*
X259491Y209510D01*
X259389Y209401D01*
X259290Y209290D01*
X259194Y209176D01*
X259101Y209059D01*
X259011Y208941D01*
X258925Y208819D01*
X258841Y208696D01*
X258761Y208570D01*
X258685Y208442D01*
X258611Y208313D01*
X258541Y208181D01*
X258475Y208048D01*
X258412Y207913D01*
X258353Y207776D01*
X258297Y207638D01*
X258245Y207498D01*
X258197Y207357D01*
X258152Y207215D01*
X258112Y207072D01*
X258075Y206927D01*
X258041Y206782D01*
X258012Y206636D01*
X257987Y206489D01*
X257965Y206342D01*
X257947Y206194D01*
X257934Y206046D01*
X257924Y205897D01*
X257918Y205748D01*
X257916Y205599D01*
X257915Y205599D02*
X257915Y199954D01*
X257916Y199954D02*
X257918Y199805D01*
X257924Y199656D01*
X257934Y199507D01*
X257947Y199359D01*
X257965Y199211D01*
X257987Y199064D01*
X258012Y198917D01*
X258041Y198771D01*
X258075Y198626D01*
X258112Y198481D01*
X258152Y198338D01*
X258197Y198196D01*
X258245Y198055D01*
X258297Y197915D01*
X258353Y197777D01*
X258412Y197640D01*
X258475Y197505D01*
X258541Y197372D01*
X258611Y197240D01*
X258685Y197111D01*
X258761Y196983D01*
X258841Y196857D01*
X258925Y196734D01*
X259011Y196612D01*
X259101Y196494D01*
X259194Y196377D01*
X259290Y196263D01*
X259389Y196152D01*
X259491Y196043D01*
X259596Y195937D01*
X259703Y195834D01*
X259813Y195733D01*
X259926Y195636D01*
X260041Y195541D01*
X260159Y195450D01*
X260279Y195362D01*
X260401Y195277D01*
X260526Y195195D01*
X260652Y195117D01*
X260781Y195042D01*
X260912Y194970D01*
X261044Y194902D01*
X261178Y194837D01*
X261314Y194776D01*
X261452Y194718D01*
X261591Y194665D01*
X261731Y194615D01*
X261873Y194568D01*
X262015Y194525D01*
X262159Y194487D01*
X262304Y194452D01*
X262450Y194420D01*
X262596Y194393D01*
X262743Y194369D01*
X262891Y194350D01*
X263039Y194334D01*
X263188Y194322D01*
X263337Y194314D01*
X263486Y194310D01*
X263634Y194310D01*
X263783Y194314D01*
X263932Y194322D01*
X264081Y194334D01*
X264229Y194350D01*
X264377Y194369D01*
X264524Y194393D01*
X264670Y194420D01*
X264816Y194452D01*
X264961Y194487D01*
X265105Y194525D01*
X265247Y194568D01*
X265389Y194615D01*
X265529Y194665D01*
X265668Y194718D01*
X265806Y194776D01*
X265942Y194837D01*
X266076Y194902D01*
X266208Y194970D01*
X266339Y195042D01*
X266468Y195117D01*
X266594Y195195D01*
X266719Y195277D01*
X266841Y195362D01*
X266961Y195450D01*
X267079Y195541D01*
X267194Y195636D01*
X267307Y195733D01*
X267417Y195834D01*
X267524Y195937D01*
X267629Y196043D01*
X267731Y196152D01*
X267830Y196263D01*
X267926Y196377D01*
X268019Y196494D01*
X268109Y196612D01*
X268195Y196734D01*
X268279Y196857D01*
X268359Y196983D01*
X268435Y197111D01*
X268509Y197240D01*
X268579Y197372D01*
X268645Y197505D01*
X268708Y197640D01*
X268767Y197777D01*
X268823Y197915D01*
X268875Y198055D01*
X268923Y198196D01*
X268968Y198338D01*
X269008Y198481D01*
X269045Y198626D01*
X269079Y198771D01*
X269108Y198917D01*
X269133Y199064D01*
X269155Y199211D01*
X269173Y199359D01*
X269186Y199507D01*
X269196Y199656D01*
X269202Y199805D01*
X269204Y199954D01*
X244365Y194310D02*
X237309Y194310D01*
X244365Y194310D02*
X244493Y194312D01*
X244621Y194318D01*
X244748Y194327D01*
X244875Y194341D01*
X245002Y194358D01*
X245128Y194379D01*
X245253Y194404D01*
X245378Y194433D01*
X245502Y194465D01*
X245624Y194502D01*
X245746Y194542D01*
X245866Y194585D01*
X245985Y194632D01*
X246102Y194683D01*
X246218Y194737D01*
X246332Y194795D01*
X246444Y194856D01*
X246555Y194920D01*
X246663Y194988D01*
X246770Y195059D01*
X246874Y195134D01*
X246976Y195211D01*
X247075Y195291D01*
X247172Y195375D01*
X247266Y195461D01*
X247358Y195550D01*
X247447Y195642D01*
X247533Y195736D01*
X247617Y195833D01*
X247697Y195932D01*
X247774Y196034D01*
X247849Y196138D01*
X247920Y196245D01*
X247988Y196353D01*
X248052Y196464D01*
X248113Y196576D01*
X248171Y196690D01*
X248225Y196806D01*
X248276Y196923D01*
X248323Y197042D01*
X248366Y197162D01*
X248406Y197284D01*
X248443Y197406D01*
X248475Y197530D01*
X248504Y197655D01*
X248529Y197780D01*
X248550Y197906D01*
X248567Y198033D01*
X248581Y198160D01*
X248590Y198287D01*
X248596Y198415D01*
X248598Y198543D01*
X248598Y207010D01*
X248596Y207138D01*
X248590Y207266D01*
X248581Y207393D01*
X248567Y207520D01*
X248550Y207647D01*
X248529Y207773D01*
X248504Y207898D01*
X248475Y208023D01*
X248443Y208147D01*
X248406Y208269D01*
X248366Y208391D01*
X248323Y208511D01*
X248276Y208630D01*
X248225Y208747D01*
X248171Y208863D01*
X248113Y208977D01*
X248052Y209089D01*
X247988Y209200D01*
X247920Y209308D01*
X247849Y209415D01*
X247774Y209519D01*
X247697Y209621D01*
X247617Y209720D01*
X247533Y209817D01*
X247447Y209911D01*
X247358Y210003D01*
X247266Y210092D01*
X247172Y210178D01*
X247075Y210262D01*
X246976Y210342D01*
X246874Y210419D01*
X246770Y210494D01*
X246663Y210565D01*
X246555Y210633D01*
X246444Y210697D01*
X246332Y210758D01*
X246218Y210816D01*
X246102Y210870D01*
X245985Y210921D01*
X245866Y210968D01*
X245746Y211011D01*
X245624Y211051D01*
X245502Y211088D01*
X245378Y211120D01*
X245253Y211149D01*
X245128Y211174D01*
X245002Y211195D01*
X244875Y211212D01*
X244748Y211226D01*
X244621Y211235D01*
X244493Y211241D01*
X244365Y211243D01*
X237309Y211243D01*
X237309Y190077D01*
X237310Y190077D02*
X237312Y189949D01*
X237318Y189821D01*
X237327Y189694D01*
X237341Y189567D01*
X237358Y189440D01*
X237379Y189314D01*
X237404Y189189D01*
X237433Y189064D01*
X237465Y188940D01*
X237502Y188818D01*
X237542Y188696D01*
X237585Y188576D01*
X237632Y188457D01*
X237683Y188340D01*
X237737Y188224D01*
X237795Y188110D01*
X237856Y187998D01*
X237920Y187887D01*
X237988Y187779D01*
X238059Y187672D01*
X238134Y187568D01*
X238211Y187466D01*
X238291Y187367D01*
X238375Y187270D01*
X238461Y187176D01*
X238550Y187084D01*
X238642Y186995D01*
X238736Y186909D01*
X238833Y186825D01*
X238932Y186745D01*
X239034Y186668D01*
X239138Y186593D01*
X239245Y186522D01*
X239353Y186454D01*
X239464Y186390D01*
X239576Y186329D01*
X239690Y186271D01*
X239806Y186217D01*
X239923Y186166D01*
X240042Y186119D01*
X240162Y186076D01*
X240284Y186036D01*
X240406Y185999D01*
X240530Y185967D01*
X240655Y185938D01*
X240780Y185913D01*
X240906Y185892D01*
X241033Y185875D01*
X241160Y185861D01*
X241287Y185852D01*
X241415Y185846D01*
X241543Y185844D01*
X241543Y185843D02*
X247187Y185843D01*
X226062Y194310D02*
X226062Y211243D01*
X217595Y211243D01*
X217595Y208421D01*
X205430Y204188D02*
X199080Y204188D01*
X205430Y204188D02*
X205570Y204186D01*
X205709Y204180D01*
X205849Y204170D01*
X205988Y204156D01*
X206127Y204139D01*
X206265Y204117D01*
X206402Y204091D01*
X206539Y204062D01*
X206675Y204029D01*
X206809Y203992D01*
X206943Y203951D01*
X207075Y203906D01*
X207207Y203857D01*
X207336Y203805D01*
X207464Y203750D01*
X207591Y203690D01*
X207716Y203627D01*
X207839Y203561D01*
X207960Y203491D01*
X208079Y203418D01*
X208196Y203341D01*
X208310Y203261D01*
X208423Y203178D01*
X208533Y203092D01*
X208640Y203002D01*
X208745Y202910D01*
X208847Y202815D01*
X208947Y202717D01*
X209044Y202616D01*
X209138Y202512D01*
X209228Y202406D01*
X209316Y202297D01*
X209401Y202186D01*
X209482Y202072D01*
X209561Y201957D01*
X209636Y201839D01*
X209707Y201719D01*
X209775Y201596D01*
X209840Y201473D01*
X209901Y201347D01*
X209959Y201219D01*
X210013Y201091D01*
X210063Y200960D01*
X210110Y200828D01*
X210153Y200695D01*
X210192Y200561D01*
X210227Y200426D01*
X210258Y200290D01*
X210286Y200152D01*
X210309Y200015D01*
X210329Y199876D01*
X210345Y199737D01*
X210357Y199598D01*
X210365Y199459D01*
X210369Y199319D01*
X210369Y199179D01*
X210365Y199039D01*
X210357Y198900D01*
X210345Y198761D01*
X210329Y198622D01*
X210309Y198483D01*
X210286Y198346D01*
X210258Y198208D01*
X210227Y198072D01*
X210192Y197937D01*
X210153Y197803D01*
X210110Y197670D01*
X210063Y197538D01*
X210013Y197407D01*
X209959Y197279D01*
X209901Y197151D01*
X209840Y197025D01*
X209775Y196902D01*
X209707Y196780D01*
X209636Y196659D01*
X209561Y196541D01*
X209482Y196426D01*
X209401Y196312D01*
X209316Y196201D01*
X209228Y196092D01*
X209138Y195986D01*
X209044Y195882D01*
X208947Y195781D01*
X208847Y195683D01*
X208745Y195588D01*
X208640Y195496D01*
X208533Y195406D01*
X208423Y195320D01*
X208310Y195237D01*
X208196Y195157D01*
X208079Y195080D01*
X207960Y195007D01*
X207839Y194937D01*
X207716Y194871D01*
X207591Y194808D01*
X207464Y194748D01*
X207336Y194693D01*
X207207Y194641D01*
X207075Y194592D01*
X206943Y194547D01*
X206809Y194506D01*
X206675Y194469D01*
X206539Y194436D01*
X206402Y194407D01*
X206265Y194381D01*
X206127Y194359D01*
X205988Y194342D01*
X205849Y194328D01*
X205709Y194318D01*
X205570Y194312D01*
X205430Y194310D01*
X199080Y194310D01*
X199080Y207010D01*
X199082Y207138D01*
X199088Y207266D01*
X199097Y207393D01*
X199111Y207520D01*
X199128Y207647D01*
X199149Y207773D01*
X199174Y207898D01*
X199203Y208023D01*
X199235Y208147D01*
X199272Y208269D01*
X199312Y208391D01*
X199355Y208511D01*
X199402Y208630D01*
X199453Y208747D01*
X199507Y208863D01*
X199565Y208977D01*
X199626Y209089D01*
X199690Y209200D01*
X199758Y209308D01*
X199829Y209415D01*
X199904Y209519D01*
X199981Y209621D01*
X200061Y209720D01*
X200145Y209817D01*
X200231Y209911D01*
X200320Y210003D01*
X200412Y210092D01*
X200506Y210178D01*
X200603Y210262D01*
X200702Y210342D01*
X200804Y210419D01*
X200908Y210494D01*
X201015Y210565D01*
X201123Y210633D01*
X201234Y210697D01*
X201346Y210758D01*
X201460Y210816D01*
X201576Y210870D01*
X201693Y210921D01*
X201812Y210968D01*
X201932Y211011D01*
X202054Y211051D01*
X202176Y211088D01*
X202300Y211120D01*
X202425Y211149D01*
X202550Y211174D01*
X202676Y211195D01*
X202803Y211212D01*
X202930Y211226D01*
X203057Y211235D01*
X203185Y211241D01*
X203313Y211243D01*
X208958Y211243D01*
X187604Y211243D02*
X187604Y194310D01*
X187604Y211243D02*
X174904Y211243D01*
X174776Y211241D01*
X174648Y211235D01*
X174521Y211226D01*
X174394Y211212D01*
X174267Y211195D01*
X174141Y211174D01*
X174016Y211149D01*
X173891Y211120D01*
X173767Y211088D01*
X173645Y211051D01*
X173523Y211011D01*
X173403Y210968D01*
X173284Y210921D01*
X173167Y210870D01*
X173051Y210816D01*
X172937Y210758D01*
X172825Y210697D01*
X172714Y210633D01*
X172606Y210565D01*
X172499Y210494D01*
X172395Y210419D01*
X172293Y210342D01*
X172194Y210262D01*
X172097Y210178D01*
X172003Y210092D01*
X171911Y210003D01*
X171822Y209911D01*
X171736Y209817D01*
X171652Y209720D01*
X171572Y209621D01*
X171495Y209519D01*
X171420Y209415D01*
X171349Y209308D01*
X171281Y209200D01*
X171217Y209089D01*
X171156Y208977D01*
X171098Y208863D01*
X171044Y208747D01*
X170993Y208630D01*
X170946Y208511D01*
X170903Y208391D01*
X170863Y208269D01*
X170826Y208147D01*
X170794Y208023D01*
X170765Y207898D01*
X170740Y207773D01*
X170719Y207647D01*
X170702Y207520D01*
X170688Y207393D01*
X170679Y207266D01*
X170673Y207138D01*
X170671Y207010D01*
X170670Y207010D02*
X170670Y194310D01*
X179137Y194310D02*
X179137Y211243D01*
X158932Y211243D02*
X158932Y194310D01*
X158932Y211243D02*
X146232Y211243D01*
X146104Y211241D01*
X145976Y211235D01*
X145849Y211226D01*
X145722Y211212D01*
X145595Y211195D01*
X145469Y211174D01*
X145344Y211149D01*
X145219Y211120D01*
X145095Y211088D01*
X144973Y211051D01*
X144851Y211011D01*
X144731Y210968D01*
X144612Y210921D01*
X144495Y210870D01*
X144379Y210816D01*
X144265Y210758D01*
X144153Y210697D01*
X144042Y210633D01*
X143934Y210565D01*
X143827Y210494D01*
X143723Y210419D01*
X143621Y210342D01*
X143522Y210262D01*
X143425Y210178D01*
X143331Y210092D01*
X143239Y210003D01*
X143150Y209911D01*
X143064Y209817D01*
X142980Y209720D01*
X142900Y209621D01*
X142823Y209519D01*
X142748Y209415D01*
X142677Y209308D01*
X142609Y209200D01*
X142545Y209089D01*
X142484Y208977D01*
X142426Y208863D01*
X142372Y208747D01*
X142321Y208630D01*
X142274Y208511D01*
X142231Y208391D01*
X142191Y208269D01*
X142154Y208147D01*
X142122Y208023D01*
X142093Y207898D01*
X142068Y207773D01*
X142047Y207647D01*
X142030Y207520D01*
X142016Y207393D01*
X142007Y207266D01*
X142001Y207138D01*
X141999Y207010D01*
X141999Y194310D01*
X150465Y194310D02*
X150465Y211243D01*
X127187Y194310D02*
X120131Y194310D01*
X127187Y194310D02*
X127315Y194312D01*
X127443Y194318D01*
X127570Y194327D01*
X127697Y194341D01*
X127824Y194358D01*
X127950Y194379D01*
X128075Y194404D01*
X128200Y194433D01*
X128324Y194465D01*
X128446Y194502D01*
X128568Y194542D01*
X128688Y194585D01*
X128807Y194632D01*
X128924Y194683D01*
X129040Y194737D01*
X129154Y194795D01*
X129266Y194856D01*
X129377Y194920D01*
X129485Y194988D01*
X129592Y195059D01*
X129696Y195134D01*
X129798Y195211D01*
X129897Y195291D01*
X129994Y195375D01*
X130088Y195461D01*
X130180Y195550D01*
X130269Y195642D01*
X130355Y195736D01*
X130439Y195833D01*
X130519Y195932D01*
X130596Y196034D01*
X130671Y196138D01*
X130742Y196245D01*
X130810Y196353D01*
X130874Y196464D01*
X130935Y196576D01*
X130993Y196690D01*
X131047Y196806D01*
X131098Y196923D01*
X131145Y197042D01*
X131188Y197162D01*
X131228Y197284D01*
X131265Y197406D01*
X131297Y197530D01*
X131326Y197655D01*
X131351Y197780D01*
X131372Y197906D01*
X131389Y198033D01*
X131403Y198160D01*
X131412Y198287D01*
X131418Y198415D01*
X131420Y198543D01*
X131420Y205599D01*
X131418Y205748D01*
X131412Y205897D01*
X131402Y206046D01*
X131389Y206194D01*
X131371Y206342D01*
X131349Y206489D01*
X131324Y206636D01*
X131295Y206782D01*
X131261Y206927D01*
X131224Y207072D01*
X131184Y207215D01*
X131139Y207357D01*
X131091Y207498D01*
X131039Y207638D01*
X130983Y207776D01*
X130924Y207913D01*
X130861Y208048D01*
X130795Y208181D01*
X130725Y208313D01*
X130651Y208442D01*
X130575Y208570D01*
X130495Y208696D01*
X130411Y208819D01*
X130325Y208941D01*
X130235Y209059D01*
X130142Y209176D01*
X130046Y209290D01*
X129947Y209401D01*
X129845Y209510D01*
X129740Y209616D01*
X129633Y209719D01*
X129523Y209820D01*
X129410Y209917D01*
X129295Y210012D01*
X129177Y210103D01*
X129057Y210191D01*
X128935Y210276D01*
X128810Y210358D01*
X128684Y210436D01*
X128555Y210511D01*
X128424Y210583D01*
X128292Y210651D01*
X128158Y210716D01*
X128022Y210777D01*
X127884Y210835D01*
X127745Y210888D01*
X127605Y210938D01*
X127463Y210985D01*
X127321Y211028D01*
X127177Y211066D01*
X127032Y211101D01*
X126886Y211133D01*
X126740Y211160D01*
X126593Y211184D01*
X126445Y211203D01*
X126297Y211219D01*
X126148Y211231D01*
X125999Y211239D01*
X125850Y211243D01*
X125702Y211243D01*
X125553Y211239D01*
X125404Y211231D01*
X125255Y211219D01*
X125107Y211203D01*
X124959Y211184D01*
X124812Y211160D01*
X124666Y211133D01*
X124520Y211101D01*
X124375Y211066D01*
X124231Y211028D01*
X124089Y210985D01*
X123947Y210938D01*
X123807Y210888D01*
X123668Y210835D01*
X123530Y210777D01*
X123394Y210716D01*
X123260Y210651D01*
X123128Y210583D01*
X122997Y210511D01*
X122868Y210436D01*
X122742Y210358D01*
X122617Y210276D01*
X122495Y210191D01*
X122375Y210103D01*
X122257Y210012D01*
X122142Y209917D01*
X122029Y209820D01*
X121919Y209719D01*
X121812Y209616D01*
X121707Y209510D01*
X121605Y209401D01*
X121506Y209290D01*
X121410Y209176D01*
X121317Y209059D01*
X121227Y208941D01*
X121141Y208819D01*
X121057Y208696D01*
X120977Y208570D01*
X120901Y208442D01*
X120827Y208313D01*
X120757Y208181D01*
X120691Y208048D01*
X120628Y207913D01*
X120569Y207776D01*
X120513Y207638D01*
X120461Y207498D01*
X120413Y207357D01*
X120368Y207215D01*
X120328Y207072D01*
X120291Y206927D01*
X120257Y206782D01*
X120228Y206636D01*
X120203Y206489D01*
X120181Y206342D01*
X120163Y206194D01*
X120150Y206046D01*
X120140Y205897D01*
X120134Y205748D01*
X120132Y205599D01*
X120131Y205599D02*
X120131Y202777D01*
X131420Y202777D01*
X109782Y194310D02*
X109782Y211243D01*
X101315Y211243D01*
X101315Y208421D01*
X95056Y219710D02*
X95056Y225354D01*
X88001Y225354D02*
X88001Y219710D01*
D11*
X244094Y11938D02*
X241723Y4826D01*
X239353Y11938D01*
X234400Y13123D02*
X231436Y15494D01*
X231436Y4826D01*
X228473Y4826D02*
X234400Y4826D01*
X223732Y4826D02*
X223732Y5419D01*
X223139Y5419D01*
X223139Y4826D01*
X223732Y4826D01*
X218398Y13123D02*
X215434Y15494D01*
X215434Y4826D01*
X212471Y4826D02*
X218398Y4826D01*
X200491Y4826D02*
X200491Y15494D01*
X197527Y15494D01*
X197419Y15492D01*
X197311Y15486D01*
X197203Y15476D01*
X197096Y15462D01*
X196989Y15445D01*
X196883Y15423D01*
X196778Y15398D01*
X196673Y15368D01*
X196570Y15335D01*
X196469Y15298D01*
X196368Y15258D01*
X196269Y15214D01*
X196172Y15166D01*
X196077Y15115D01*
X195983Y15060D01*
X195892Y15002D01*
X195803Y14941D01*
X195716Y14876D01*
X195632Y14809D01*
X195550Y14738D01*
X195470Y14664D01*
X195394Y14588D01*
X195320Y14508D01*
X195250Y14426D01*
X195182Y14342D01*
X195117Y14255D01*
X195056Y14166D01*
X194998Y14075D01*
X194943Y13981D01*
X194892Y13886D01*
X194844Y13789D01*
X194800Y13690D01*
X194760Y13589D01*
X194723Y13488D01*
X194690Y13385D01*
X194660Y13280D01*
X194635Y13175D01*
X194613Y13069D01*
X194596Y12962D01*
X194582Y12855D01*
X194572Y12747D01*
X194566Y12639D01*
X194564Y12531D01*
X194564Y7789D01*
X194566Y7683D01*
X194572Y7578D01*
X194581Y7472D01*
X194594Y7367D01*
X194611Y7263D01*
X194632Y7159D01*
X194656Y7056D01*
X194684Y6954D01*
X194716Y6853D01*
X194751Y6754D01*
X194790Y6655D01*
X194832Y6558D01*
X194877Y6463D01*
X194926Y6369D01*
X194979Y6277D01*
X195034Y6187D01*
X195093Y6099D01*
X195155Y6013D01*
X195220Y5930D01*
X195288Y5849D01*
X195358Y5770D01*
X195432Y5694D01*
X195508Y5620D01*
X195587Y5550D01*
X195668Y5482D01*
X195751Y5417D01*
X195837Y5355D01*
X195925Y5296D01*
X196015Y5241D01*
X196107Y5188D01*
X196201Y5139D01*
X196296Y5094D01*
X196393Y5052D01*
X196492Y5013D01*
X196591Y4978D01*
X196692Y4946D01*
X196794Y4918D01*
X196897Y4894D01*
X197001Y4873D01*
X197105Y4856D01*
X197210Y4843D01*
X197316Y4834D01*
X197421Y4828D01*
X197527Y4826D01*
X200491Y4826D01*
X187071Y4826D02*
X184108Y4826D01*
X187071Y4826D02*
X187153Y4828D01*
X187235Y4834D01*
X187317Y4843D01*
X187398Y4856D01*
X187478Y4873D01*
X187558Y4894D01*
X187636Y4918D01*
X187713Y4946D01*
X187789Y4977D01*
X187864Y5012D01*
X187936Y5051D01*
X188007Y5092D01*
X188076Y5137D01*
X188142Y5185D01*
X188207Y5236D01*
X188269Y5290D01*
X188328Y5347D01*
X188385Y5406D01*
X188439Y5468D01*
X188490Y5533D01*
X188538Y5599D01*
X188583Y5668D01*
X188624Y5739D01*
X188663Y5811D01*
X188698Y5886D01*
X188729Y5962D01*
X188757Y6039D01*
X188781Y6117D01*
X188802Y6197D01*
X188819Y6277D01*
X188832Y6358D01*
X188841Y6440D01*
X188847Y6522D01*
X188849Y6604D01*
X188849Y9567D01*
X188847Y9664D01*
X188841Y9760D01*
X188831Y9856D01*
X188817Y9952D01*
X188800Y10047D01*
X188778Y10142D01*
X188753Y10235D01*
X188724Y10327D01*
X188691Y10418D01*
X188654Y10508D01*
X188614Y10596D01*
X188570Y10682D01*
X188523Y10766D01*
X188473Y10849D01*
X188419Y10929D01*
X188361Y11007D01*
X188301Y11083D01*
X188238Y11156D01*
X188172Y11226D01*
X188102Y11294D01*
X188031Y11359D01*
X187956Y11421D01*
X187879Y11479D01*
X187800Y11535D01*
X187719Y11587D01*
X187635Y11636D01*
X187550Y11682D01*
X187463Y11724D01*
X187374Y11762D01*
X187284Y11797D01*
X187192Y11828D01*
X187099Y11855D01*
X187006Y11879D01*
X186911Y11898D01*
X186815Y11914D01*
X186719Y11926D01*
X186623Y11934D01*
X186526Y11938D01*
X186430Y11938D01*
X186333Y11934D01*
X186237Y11926D01*
X186141Y11914D01*
X186045Y11898D01*
X185950Y11879D01*
X185857Y11855D01*
X185764Y11828D01*
X185672Y11797D01*
X185582Y11762D01*
X185493Y11724D01*
X185406Y11682D01*
X185321Y11636D01*
X185237Y11587D01*
X185156Y11535D01*
X185077Y11479D01*
X185000Y11421D01*
X184925Y11359D01*
X184854Y11294D01*
X184784Y11226D01*
X184718Y11156D01*
X184655Y11083D01*
X184595Y11007D01*
X184537Y10929D01*
X184483Y10849D01*
X184433Y10766D01*
X184386Y10682D01*
X184342Y10596D01*
X184302Y10508D01*
X184265Y10418D01*
X184232Y10327D01*
X184203Y10235D01*
X184178Y10142D01*
X184156Y10047D01*
X184139Y9952D01*
X184125Y9856D01*
X184115Y9760D01*
X184109Y9664D01*
X184107Y9567D01*
X184108Y9567D02*
X184108Y8382D01*
X188849Y8382D01*
X177145Y4826D02*
X174775Y4826D01*
X177145Y4826D02*
X177227Y4828D01*
X177309Y4834D01*
X177391Y4843D01*
X177472Y4856D01*
X177552Y4873D01*
X177632Y4894D01*
X177710Y4918D01*
X177787Y4946D01*
X177863Y4977D01*
X177938Y5012D01*
X178010Y5051D01*
X178081Y5092D01*
X178150Y5137D01*
X178216Y5185D01*
X178281Y5236D01*
X178343Y5290D01*
X178402Y5347D01*
X178459Y5406D01*
X178513Y5468D01*
X178564Y5533D01*
X178612Y5599D01*
X178657Y5668D01*
X178698Y5739D01*
X178737Y5811D01*
X178772Y5886D01*
X178803Y5962D01*
X178831Y6039D01*
X178855Y6117D01*
X178876Y6197D01*
X178893Y6277D01*
X178906Y6358D01*
X178915Y6440D01*
X178921Y6522D01*
X178923Y6604D01*
X178923Y10160D01*
X178921Y10242D01*
X178915Y10324D01*
X178906Y10406D01*
X178893Y10487D01*
X178876Y10567D01*
X178855Y10647D01*
X178831Y10725D01*
X178803Y10802D01*
X178772Y10878D01*
X178737Y10953D01*
X178698Y11025D01*
X178657Y11096D01*
X178612Y11165D01*
X178564Y11231D01*
X178513Y11296D01*
X178459Y11358D01*
X178402Y11417D01*
X178343Y11474D01*
X178281Y11528D01*
X178216Y11579D01*
X178150Y11627D01*
X178081Y11672D01*
X178010Y11713D01*
X177938Y11752D01*
X177863Y11787D01*
X177787Y11818D01*
X177710Y11846D01*
X177632Y11870D01*
X177552Y11891D01*
X177472Y11908D01*
X177391Y11921D01*
X177309Y11930D01*
X177227Y11936D01*
X177145Y11938D01*
X174775Y11938D01*
X170773Y5419D02*
X170773Y4826D01*
X170773Y5419D02*
X170180Y5419D01*
X170180Y4826D01*
X170773Y4826D01*
X156083Y15494D02*
X155981Y15492D01*
X155879Y15486D01*
X155777Y15476D01*
X155676Y15463D01*
X155575Y15445D01*
X155475Y15424D01*
X155376Y15399D01*
X155278Y15370D01*
X155181Y15337D01*
X155086Y15301D01*
X154992Y15261D01*
X154900Y15217D01*
X154809Y15170D01*
X154720Y15119D01*
X154633Y15066D01*
X154549Y15008D01*
X154466Y14948D01*
X154386Y14885D01*
X154309Y14818D01*
X154234Y14749D01*
X154161Y14676D01*
X154092Y14601D01*
X154025Y14524D01*
X153962Y14444D01*
X153902Y14361D01*
X153844Y14277D01*
X153791Y14190D01*
X153740Y14101D01*
X153693Y14010D01*
X153649Y13918D01*
X153609Y13824D01*
X153573Y13728D01*
X153540Y13632D01*
X153511Y13534D01*
X153486Y13435D01*
X153465Y13335D01*
X153447Y13234D01*
X153434Y13133D01*
X153424Y13031D01*
X153418Y12929D01*
X153416Y12827D01*
X156083Y15494D02*
X156199Y15492D01*
X156316Y15486D01*
X156432Y15476D01*
X156547Y15462D01*
X156662Y15445D01*
X156777Y15423D01*
X156890Y15397D01*
X157003Y15368D01*
X157115Y15335D01*
X157225Y15298D01*
X157334Y15257D01*
X157442Y15213D01*
X157548Y15165D01*
X157652Y15113D01*
X157755Y15058D01*
X157856Y15000D01*
X157954Y14938D01*
X158051Y14873D01*
X158145Y14804D01*
X158237Y14732D01*
X158326Y14658D01*
X158413Y14580D01*
X158497Y14499D01*
X158578Y14416D01*
X158656Y14330D01*
X158732Y14241D01*
X158804Y14150D01*
X158873Y14056D01*
X158939Y13960D01*
X159002Y13862D01*
X159061Y13762D01*
X159117Y13660D01*
X159169Y13556D01*
X159218Y13450D01*
X159263Y13342D01*
X159305Y13234D01*
X159342Y13123D01*
X154305Y10752D02*
X154230Y10826D01*
X154158Y10903D01*
X154089Y10983D01*
X154022Y11065D01*
X153959Y11149D01*
X153899Y11236D01*
X153842Y11324D01*
X153788Y11415D01*
X153738Y11508D01*
X153691Y11602D01*
X153648Y11698D01*
X153608Y11796D01*
X153572Y11895D01*
X153539Y11995D01*
X153511Y12097D01*
X153486Y12199D01*
X153464Y12303D01*
X153447Y12407D01*
X153433Y12511D01*
X153424Y12616D01*
X153418Y12722D01*
X153416Y12827D01*
X154305Y10753D02*
X159343Y4826D01*
X153416Y4826D01*
X145542Y9567D02*
X141986Y9567D01*
X145542Y9567D02*
X145637Y9569D01*
X145733Y9575D01*
X145828Y9584D01*
X145922Y9598D01*
X146016Y9615D01*
X146109Y9636D01*
X146202Y9661D01*
X146293Y9689D01*
X146383Y9721D01*
X146471Y9757D01*
X146558Y9796D01*
X146644Y9839D01*
X146728Y9885D01*
X146809Y9934D01*
X146889Y9987D01*
X146966Y10043D01*
X147042Y10101D01*
X147114Y10163D01*
X147184Y10228D01*
X147252Y10296D01*
X147317Y10366D01*
X147379Y10438D01*
X147437Y10514D01*
X147493Y10591D01*
X147546Y10671D01*
X147595Y10753D01*
X147641Y10836D01*
X147684Y10922D01*
X147723Y11009D01*
X147759Y11097D01*
X147791Y11187D01*
X147819Y11278D01*
X147844Y11371D01*
X147865Y11464D01*
X147882Y11558D01*
X147896Y11652D01*
X147905Y11747D01*
X147911Y11843D01*
X147913Y11938D01*
X147913Y12531D01*
X147911Y12638D01*
X147905Y12745D01*
X147896Y12851D01*
X147882Y12957D01*
X147865Y13063D01*
X147844Y13168D01*
X147819Y13272D01*
X147790Y13375D01*
X147758Y13477D01*
X147722Y13578D01*
X147682Y13677D01*
X147639Y13775D01*
X147592Y13871D01*
X147542Y13966D01*
X147489Y14059D01*
X147432Y14149D01*
X147372Y14238D01*
X147309Y14324D01*
X147243Y14408D01*
X147173Y14490D01*
X147101Y14569D01*
X147026Y14645D01*
X146948Y14719D01*
X146868Y14789D01*
X146785Y14857D01*
X146700Y14922D01*
X146613Y14983D01*
X146523Y15042D01*
X146432Y15097D01*
X146338Y15149D01*
X146242Y15197D01*
X146145Y15242D01*
X146047Y15284D01*
X145947Y15321D01*
X145845Y15356D01*
X145743Y15386D01*
X145639Y15413D01*
X145535Y15436D01*
X145429Y15455D01*
X145323Y15470D01*
X145217Y15482D01*
X145110Y15490D01*
X145003Y15494D01*
X144897Y15494D01*
X144790Y15490D01*
X144683Y15482D01*
X144577Y15470D01*
X144471Y15455D01*
X144365Y15436D01*
X144261Y15413D01*
X144157Y15386D01*
X144055Y15356D01*
X143953Y15321D01*
X143853Y15284D01*
X143755Y15242D01*
X143658Y15197D01*
X143562Y15149D01*
X143469Y15097D01*
X143377Y15042D01*
X143287Y14983D01*
X143200Y14922D01*
X143115Y14857D01*
X143032Y14789D01*
X142952Y14719D01*
X142874Y14645D01*
X142799Y14569D01*
X142727Y14490D01*
X142657Y14408D01*
X142591Y14324D01*
X142528Y14238D01*
X142468Y14149D01*
X142411Y14059D01*
X142358Y13966D01*
X142308Y13871D01*
X142261Y13775D01*
X142218Y13677D01*
X142178Y13578D01*
X142142Y13477D01*
X142110Y13375D01*
X142081Y13272D01*
X142056Y13168D01*
X142035Y13063D01*
X142018Y12957D01*
X142004Y12851D01*
X141995Y12745D01*
X141989Y12638D01*
X141987Y12531D01*
X141986Y12531D02*
X141986Y9567D01*
X141987Y9567D02*
X141989Y9432D01*
X141995Y9296D01*
X142004Y9161D01*
X142018Y9027D01*
X142035Y8892D01*
X142056Y8759D01*
X142081Y8625D01*
X142110Y8493D01*
X142143Y8362D01*
X142179Y8231D01*
X142219Y8102D01*
X142263Y7974D01*
X142310Y7847D01*
X142361Y7721D01*
X142415Y7598D01*
X142473Y7475D01*
X142535Y7355D01*
X142600Y7236D01*
X142668Y7119D01*
X142740Y7004D01*
X142814Y6891D01*
X142892Y6780D01*
X142974Y6672D01*
X143058Y6566D01*
X143145Y6462D01*
X143235Y6361D01*
X143328Y6263D01*
X143424Y6167D01*
X143522Y6074D01*
X143623Y5984D01*
X143727Y5897D01*
X143833Y5813D01*
X143941Y5731D01*
X144052Y5653D01*
X144165Y5579D01*
X144280Y5507D01*
X144397Y5439D01*
X144516Y5374D01*
X144636Y5312D01*
X144759Y5254D01*
X144882Y5200D01*
X145008Y5149D01*
X145135Y5102D01*
X145263Y5058D01*
X145392Y5018D01*
X145523Y4982D01*
X145654Y4949D01*
X145787Y4920D01*
X145920Y4895D01*
X146053Y4874D01*
X146188Y4857D01*
X146322Y4843D01*
X146457Y4834D01*
X146593Y4828D01*
X146728Y4826D01*
X137310Y4826D02*
X136717Y4826D01*
X137310Y4826D02*
X137310Y5419D01*
X136717Y5419D01*
X136717Y4826D01*
X137606Y2455D01*
X122555Y15494D02*
X122453Y15492D01*
X122351Y15486D01*
X122249Y15476D01*
X122148Y15463D01*
X122047Y15445D01*
X121947Y15424D01*
X121848Y15399D01*
X121750Y15370D01*
X121653Y15337D01*
X121558Y15301D01*
X121464Y15261D01*
X121372Y15217D01*
X121281Y15170D01*
X121192Y15119D01*
X121105Y15066D01*
X121021Y15008D01*
X120938Y14948D01*
X120858Y14885D01*
X120781Y14818D01*
X120706Y14749D01*
X120633Y14676D01*
X120564Y14601D01*
X120497Y14524D01*
X120434Y14444D01*
X120374Y14361D01*
X120316Y14277D01*
X120263Y14190D01*
X120212Y14101D01*
X120165Y14010D01*
X120121Y13918D01*
X120081Y13824D01*
X120045Y13728D01*
X120012Y13632D01*
X119983Y13534D01*
X119958Y13435D01*
X119937Y13335D01*
X119919Y13234D01*
X119906Y13133D01*
X119896Y13031D01*
X119890Y12929D01*
X119888Y12827D01*
X122555Y15494D02*
X122671Y15492D01*
X122788Y15486D01*
X122904Y15476D01*
X123019Y15462D01*
X123134Y15445D01*
X123249Y15423D01*
X123362Y15397D01*
X123475Y15368D01*
X123587Y15335D01*
X123697Y15298D01*
X123806Y15257D01*
X123914Y15213D01*
X124020Y15165D01*
X124124Y15113D01*
X124227Y15058D01*
X124328Y15000D01*
X124426Y14938D01*
X124523Y14873D01*
X124617Y14804D01*
X124709Y14732D01*
X124798Y14658D01*
X124885Y14580D01*
X124969Y14499D01*
X125050Y14416D01*
X125128Y14330D01*
X125204Y14241D01*
X125276Y14150D01*
X125345Y14056D01*
X125411Y13960D01*
X125474Y13862D01*
X125533Y13762D01*
X125589Y13660D01*
X125641Y13556D01*
X125690Y13450D01*
X125735Y13342D01*
X125777Y13234D01*
X125814Y13123D01*
X120777Y10752D02*
X120702Y10826D01*
X120630Y10903D01*
X120561Y10983D01*
X120494Y11065D01*
X120431Y11149D01*
X120371Y11236D01*
X120314Y11324D01*
X120260Y11415D01*
X120210Y11508D01*
X120163Y11602D01*
X120120Y11698D01*
X120080Y11796D01*
X120044Y11895D01*
X120011Y11995D01*
X119983Y12097D01*
X119958Y12199D01*
X119936Y12303D01*
X119919Y12407D01*
X119905Y12511D01*
X119896Y12616D01*
X119890Y12722D01*
X119888Y12827D01*
X120777Y10753D02*
X125815Y4826D01*
X119888Y4826D01*
X114385Y10160D02*
X114382Y10370D01*
X114375Y10580D01*
X114362Y10789D01*
X114345Y10998D01*
X114322Y11207D01*
X114295Y11415D01*
X114263Y11622D01*
X114225Y11829D01*
X114183Y12034D01*
X114136Y12239D01*
X114084Y12442D01*
X114027Y12644D01*
X113965Y12845D01*
X113899Y13044D01*
X113827Y13241D01*
X113751Y13437D01*
X113671Y13631D01*
X113586Y13823D01*
X113496Y14012D01*
X113465Y14097D01*
X113431Y14181D01*
X113393Y14263D01*
X113351Y14344D01*
X113306Y14423D01*
X113258Y14500D01*
X113207Y14575D01*
X113153Y14647D01*
X113096Y14718D01*
X113036Y14786D01*
X112973Y14851D01*
X112908Y14914D01*
X112840Y14974D01*
X112769Y15031D01*
X112697Y15085D01*
X112622Y15137D01*
X112545Y15185D01*
X112466Y15230D01*
X112385Y15271D01*
X112303Y15309D01*
X112219Y15344D01*
X112134Y15375D01*
X112048Y15403D01*
X111961Y15427D01*
X111872Y15447D01*
X111783Y15464D01*
X111693Y15477D01*
X111603Y15487D01*
X111513Y15492D01*
X111422Y15494D01*
X111331Y15492D01*
X111241Y15487D01*
X111151Y15477D01*
X111061Y15464D01*
X110972Y15447D01*
X110883Y15427D01*
X110796Y15403D01*
X110710Y15375D01*
X110625Y15344D01*
X110541Y15309D01*
X110459Y15271D01*
X110378Y15230D01*
X110299Y15185D01*
X110222Y15137D01*
X110147Y15086D01*
X110075Y15031D01*
X110004Y14974D01*
X109936Y14914D01*
X109871Y14851D01*
X109808Y14786D01*
X109748Y14718D01*
X109691Y14647D01*
X109637Y14575D01*
X109586Y14500D01*
X109538Y14423D01*
X109493Y14344D01*
X109451Y14263D01*
X109413Y14181D01*
X109379Y14097D01*
X109348Y14012D01*
X109347Y14012D02*
X109257Y13823D01*
X109172Y13631D01*
X109092Y13437D01*
X109016Y13241D01*
X108944Y13044D01*
X108878Y12845D01*
X108816Y12644D01*
X108759Y12442D01*
X108707Y12239D01*
X108660Y12034D01*
X108618Y11829D01*
X108580Y11622D01*
X108548Y11415D01*
X108521Y11207D01*
X108498Y10998D01*
X108481Y10789D01*
X108468Y10580D01*
X108461Y10370D01*
X108458Y10160D01*
X114385Y10160D02*
X114382Y9950D01*
X114375Y9740D01*
X114362Y9531D01*
X114345Y9322D01*
X114322Y9113D01*
X114295Y8905D01*
X114263Y8698D01*
X114225Y8491D01*
X114183Y8286D01*
X114136Y8081D01*
X114084Y7878D01*
X114027Y7676D01*
X113965Y7475D01*
X113899Y7276D01*
X113827Y7079D01*
X113751Y6883D01*
X113671Y6689D01*
X113586Y6498D01*
X113496Y6308D01*
X113465Y6223D01*
X113431Y6139D01*
X113393Y6057D01*
X113351Y5976D01*
X113306Y5897D01*
X113258Y5820D01*
X113207Y5745D01*
X113153Y5673D01*
X113096Y5602D01*
X113036Y5534D01*
X112973Y5469D01*
X112908Y5406D01*
X112840Y5346D01*
X112769Y5289D01*
X112697Y5234D01*
X112622Y5183D01*
X112545Y5135D01*
X112466Y5090D01*
X112385Y5049D01*
X112303Y5011D01*
X112219Y4976D01*
X112134Y4945D01*
X112048Y4917D01*
X111961Y4893D01*
X111872Y4873D01*
X111783Y4856D01*
X111693Y4843D01*
X111603Y4833D01*
X111513Y4828D01*
X111422Y4826D01*
X109348Y6308D02*
X109258Y6498D01*
X109173Y6689D01*
X109093Y6883D01*
X109017Y7079D01*
X108945Y7276D01*
X108879Y7475D01*
X108817Y7676D01*
X108760Y7878D01*
X108708Y8081D01*
X108661Y8286D01*
X108619Y8491D01*
X108581Y8698D01*
X108549Y8905D01*
X108522Y9113D01*
X108499Y9322D01*
X108482Y9531D01*
X108469Y9740D01*
X108462Y9950D01*
X108459Y10160D01*
X109348Y6308D02*
X109379Y6223D01*
X109413Y6139D01*
X109452Y6057D01*
X109493Y5976D01*
X109538Y5897D01*
X109586Y5820D01*
X109637Y5745D01*
X109691Y5673D01*
X109748Y5602D01*
X109808Y5534D01*
X109871Y5469D01*
X109936Y5406D01*
X110004Y5346D01*
X110075Y5289D01*
X110147Y5234D01*
X110222Y5183D01*
X110299Y5135D01*
X110378Y5090D01*
X110459Y5049D01*
X110541Y5011D01*
X110625Y4976D01*
X110710Y4945D01*
X110796Y4917D01*
X110883Y4893D01*
X110972Y4873D01*
X111061Y4856D01*
X111151Y4843D01*
X111241Y4833D01*
X111331Y4828D01*
X111422Y4826D01*
X113792Y7197D02*
X109051Y13123D01*
X99695Y15494D02*
X99593Y15492D01*
X99491Y15486D01*
X99389Y15476D01*
X99288Y15463D01*
X99187Y15445D01*
X99087Y15424D01*
X98988Y15399D01*
X98890Y15370D01*
X98793Y15337D01*
X98698Y15301D01*
X98604Y15261D01*
X98512Y15217D01*
X98421Y15170D01*
X98332Y15119D01*
X98245Y15066D01*
X98161Y15008D01*
X98078Y14948D01*
X97998Y14885D01*
X97921Y14818D01*
X97846Y14749D01*
X97773Y14676D01*
X97704Y14601D01*
X97637Y14524D01*
X97574Y14444D01*
X97514Y14361D01*
X97456Y14277D01*
X97403Y14190D01*
X97352Y14101D01*
X97305Y14010D01*
X97261Y13918D01*
X97221Y13824D01*
X97185Y13728D01*
X97152Y13632D01*
X97123Y13534D01*
X97098Y13435D01*
X97077Y13335D01*
X97059Y13234D01*
X97046Y13133D01*
X97036Y13031D01*
X97030Y12929D01*
X97028Y12827D01*
X99695Y15494D02*
X99811Y15492D01*
X99928Y15486D01*
X100044Y15476D01*
X100159Y15462D01*
X100274Y15445D01*
X100389Y15423D01*
X100502Y15397D01*
X100615Y15368D01*
X100727Y15335D01*
X100837Y15298D01*
X100946Y15257D01*
X101054Y15213D01*
X101160Y15165D01*
X101264Y15113D01*
X101367Y15058D01*
X101468Y15000D01*
X101566Y14938D01*
X101663Y14873D01*
X101757Y14804D01*
X101849Y14732D01*
X101938Y14658D01*
X102025Y14580D01*
X102109Y14499D01*
X102190Y14416D01*
X102268Y14330D01*
X102344Y14241D01*
X102416Y14150D01*
X102485Y14056D01*
X102551Y13960D01*
X102614Y13862D01*
X102673Y13762D01*
X102729Y13660D01*
X102781Y13556D01*
X102830Y13450D01*
X102875Y13342D01*
X102917Y13234D01*
X102954Y13123D01*
X97917Y10752D02*
X97842Y10826D01*
X97770Y10903D01*
X97701Y10983D01*
X97634Y11065D01*
X97571Y11149D01*
X97511Y11236D01*
X97454Y11324D01*
X97400Y11415D01*
X97350Y11508D01*
X97303Y11602D01*
X97260Y11698D01*
X97220Y11796D01*
X97184Y11895D01*
X97151Y11995D01*
X97123Y12097D01*
X97098Y12199D01*
X97076Y12303D01*
X97059Y12407D01*
X97045Y12511D01*
X97036Y12616D01*
X97030Y12722D01*
X97028Y12827D01*
X97917Y10753D02*
X102955Y4826D01*
X97028Y4826D01*
X88265Y15494D02*
X88163Y15492D01*
X88061Y15486D01*
X87959Y15476D01*
X87858Y15463D01*
X87757Y15445D01*
X87657Y15424D01*
X87558Y15399D01*
X87460Y15370D01*
X87363Y15337D01*
X87268Y15301D01*
X87174Y15261D01*
X87082Y15217D01*
X86991Y15170D01*
X86902Y15119D01*
X86815Y15066D01*
X86731Y15008D01*
X86648Y14948D01*
X86568Y14885D01*
X86491Y14818D01*
X86416Y14749D01*
X86343Y14676D01*
X86274Y14601D01*
X86207Y14524D01*
X86144Y14444D01*
X86084Y14361D01*
X86026Y14277D01*
X85973Y14190D01*
X85922Y14101D01*
X85875Y14010D01*
X85831Y13918D01*
X85791Y13824D01*
X85755Y13728D01*
X85722Y13632D01*
X85693Y13534D01*
X85668Y13435D01*
X85647Y13335D01*
X85629Y13234D01*
X85616Y13133D01*
X85606Y13031D01*
X85600Y12929D01*
X85598Y12827D01*
X88265Y15494D02*
X88381Y15492D01*
X88498Y15486D01*
X88614Y15476D01*
X88729Y15462D01*
X88844Y15445D01*
X88959Y15423D01*
X89072Y15397D01*
X89185Y15368D01*
X89297Y15335D01*
X89407Y15298D01*
X89516Y15257D01*
X89624Y15213D01*
X89730Y15165D01*
X89834Y15113D01*
X89937Y15058D01*
X90038Y15000D01*
X90136Y14938D01*
X90233Y14873D01*
X90327Y14804D01*
X90419Y14732D01*
X90508Y14658D01*
X90595Y14580D01*
X90679Y14499D01*
X90760Y14416D01*
X90838Y14330D01*
X90914Y14241D01*
X90986Y14150D01*
X91055Y14056D01*
X91121Y13960D01*
X91184Y13862D01*
X91243Y13762D01*
X91299Y13660D01*
X91351Y13556D01*
X91400Y13450D01*
X91445Y13342D01*
X91487Y13234D01*
X91524Y13123D01*
X86487Y10752D02*
X86412Y10826D01*
X86340Y10903D01*
X86271Y10983D01*
X86204Y11065D01*
X86141Y11149D01*
X86081Y11236D01*
X86024Y11324D01*
X85970Y11415D01*
X85920Y11508D01*
X85873Y11602D01*
X85830Y11698D01*
X85790Y11796D01*
X85754Y11895D01*
X85721Y11995D01*
X85693Y12097D01*
X85668Y12199D01*
X85646Y12303D01*
X85629Y12407D01*
X85615Y12511D01*
X85606Y12616D01*
X85600Y12722D01*
X85598Y12827D01*
X86487Y10753D02*
X91525Y4826D01*
X85598Y4826D01*
M02*
