M48
;GenerationSoftware,Autodesk,EAGLE,9.6.2*%
;CreationDate,2022-12-21T18:30:31Z*%
FMAT,2
ICI,OFF
METRIC,TZ,000.000
T13C0.200
T12C0.254
T11C0.650
T10C0.700
T9C0.790
T8C0.940
T7C1.000
T6C1.016
T5C1.090
T4C1.118
T3C1.170
T2C1.500
T1C3.000
%
G90
M71
T1
X135255Y84709
X135255Y4064
X4064Y84836
X4064Y4064
T2
X94996Y62959
T3
X94996Y42959
T4
X101600Y13589
X101600Y18669
X101600Y16129
X107442Y18669
X107442Y16129
X107442Y13589
T5
X40228Y1953
X52228Y1953
X52228Y7953
X40228Y7953
T6
X56642Y15621
X54102Y15621
X51562Y15621
X136271Y62992
X133731Y62992
X131191Y62992
X128651Y62992
X126111Y62992
X123571Y62992
X121031Y62992
T7
X24512Y11120
X19812Y8120
X19812Y14120
T8
X134239Y46025
X134239Y52832
T9
X50228Y6203
X42228Y6203
X46228Y6203
T10
X81443Y2159
X73243Y2159
T11
X79768Y5239
X74918Y5239
T12
X82804Y51308
X119507Y49784
X49784Y53721
X49784Y67945
X93726Y53848
X119126Y53340
X51816Y56388
X51816Y66675
X91059Y51816
X116713Y51816
X119507Y47625
X85217Y49276
X53848Y65278
X53848Y55118
X120904Y11176
X81280Y31750
X85598Y33528
X118364Y9525
X94996Y21336
X91694Y23622
X62230Y60960
X57785Y58928
X42926Y24257
X12827Y40767
X78486Y70358
X36068Y60960
X18288Y60198
X10922Y74676
X14859Y70358
X51943Y49911
X55499Y70104
X52070Y42164
X26416Y44577
X40640Y78867
X80010Y18669
X77216Y21717
X78232Y53467
X16737Y21998
X19812Y54991
X92229Y80872
X18542Y81407
X20320Y61341
X38100Y60960
X40005Y60960
X67056Y24511
X41402Y57785
X40005Y54356
X38100Y54356
X36322Y54356
X34925Y57658
X132080Y18669
X132334Y27178
X76454Y59309
X83185Y6858
X97536Y28194
X87249Y30353
X106426Y24257
X87249Y27559
X69342Y27559
X61849Y27559
X25273Y40259
X23876Y44577
X24193Y62674
X67564Y13843
X133985Y30861
X133985Y21971
X133985Y13335
X114681Y30861
X126365Y35814
X121412Y73152
X78232Y9707
X93980Y81915
X63881Y54737
X28194Y63934
X11430Y45339
X14351Y45339
T13
X39034Y55869
X37199Y55869
X39951Y56786
X38116Y56786
X36281Y56786
X39034Y57704
X37199Y57704
X39951Y58621
X38116Y58621
X39034Y59539
X37199Y59539
X36281Y58621
M30