G04 EAGLE Gerber RS-274X export*
G75*
%MOMM*%
%FSLAX34Y34*%
%LPD*%
%IN*%
%IPPOS*%
%AMOC8*
5,1,8,0,0,1.08239X$1,22.5*%
G01*
%ADD10C,0.254000*%


D10*
X0Y0D02*
X1393700Y0D01*
X1393700Y888900D01*
X0Y888900D01*
X0Y0D01*
X240120Y103200D02*
X250120Y103200D01*
X250120Y119200D01*
X240120Y119200D01*
X240120Y103200D01*
X190120Y76200D02*
X206120Y76200D01*
X206120Y86200D01*
X190120Y86200D01*
X190120Y76200D01*
X190120Y136200D02*
X206120Y136200D01*
X206120Y146200D01*
X190120Y146200D01*
X190120Y136200D01*
X728930Y18390D02*
X728943Y18085D01*
X728983Y17782D01*
X729049Y17484D01*
X729141Y17193D01*
X729258Y16911D01*
X729399Y16640D01*
X729563Y16382D01*
X729749Y16140D01*
X729955Y15915D01*
X730180Y15709D01*
X730422Y15523D01*
X730680Y15359D01*
X730951Y15218D01*
X731233Y15101D01*
X731524Y15009D01*
X731822Y14943D01*
X732125Y14903D01*
X732430Y14890D01*
X732735Y14903D01*
X733038Y14943D01*
X733336Y15009D01*
X733627Y15101D01*
X733909Y15218D01*
X734180Y15359D01*
X734438Y15523D01*
X734680Y15709D01*
X734905Y15915D01*
X735111Y16140D01*
X735297Y16382D01*
X735461Y16640D01*
X735602Y16911D01*
X735719Y17193D01*
X735811Y17484D01*
X735877Y17782D01*
X735917Y18085D01*
X735930Y18390D01*
X735930Y24790D01*
X735917Y25095D01*
X735877Y25398D01*
X735811Y25696D01*
X735719Y25987D01*
X735602Y26269D01*
X735461Y26540D01*
X735297Y26798D01*
X735111Y27040D01*
X734905Y27265D01*
X734680Y27471D01*
X734438Y27657D01*
X734180Y27821D01*
X733909Y27962D01*
X733627Y28079D01*
X733336Y28171D01*
X733038Y28237D01*
X732735Y28277D01*
X732430Y28290D01*
X732125Y28277D01*
X731822Y28237D01*
X731524Y28171D01*
X731233Y28079D01*
X730951Y27962D01*
X730680Y27821D01*
X730422Y27657D01*
X730180Y27471D01*
X729955Y27265D01*
X729749Y27040D01*
X729563Y26798D01*
X729399Y26540D01*
X729258Y26269D01*
X729141Y25987D01*
X729049Y25696D01*
X728983Y25398D01*
X728943Y25095D01*
X728930Y24790D01*
X728930Y18390D01*
X810930Y18390D02*
X810943Y18085D01*
X810983Y17782D01*
X811049Y17484D01*
X811141Y17193D01*
X811258Y16911D01*
X811399Y16640D01*
X811563Y16382D01*
X811749Y16140D01*
X811955Y15915D01*
X812180Y15709D01*
X812422Y15523D01*
X812680Y15359D01*
X812951Y15218D01*
X813233Y15101D01*
X813524Y15009D01*
X813822Y14943D01*
X814125Y14903D01*
X814430Y14890D01*
X814735Y14903D01*
X815038Y14943D01*
X815336Y15009D01*
X815627Y15101D01*
X815909Y15218D01*
X816180Y15359D01*
X816438Y15523D01*
X816680Y15709D01*
X816905Y15915D01*
X817111Y16140D01*
X817297Y16382D01*
X817461Y16640D01*
X817602Y16911D01*
X817719Y17193D01*
X817811Y17484D01*
X817877Y17782D01*
X817917Y18085D01*
X817930Y18390D01*
X817930Y24790D01*
X817917Y25095D01*
X817877Y25398D01*
X817811Y25696D01*
X817719Y25987D01*
X817602Y26269D01*
X817461Y26540D01*
X817297Y26798D01*
X817111Y27040D01*
X816905Y27265D01*
X816680Y27471D01*
X816438Y27657D01*
X816180Y27821D01*
X815909Y27962D01*
X815627Y28079D01*
X815336Y28171D01*
X815038Y28237D01*
X814735Y28277D01*
X814430Y28290D01*
X814125Y28277D01*
X813822Y28237D01*
X813524Y28171D01*
X813233Y28079D01*
X812951Y27962D01*
X812680Y27821D01*
X812422Y27657D01*
X812180Y27471D01*
X811955Y27265D01*
X811749Y27040D01*
X811563Y26798D01*
X811399Y26540D01*
X811258Y26269D01*
X811141Y25987D01*
X811049Y25696D01*
X810983Y25398D01*
X810943Y25095D01*
X810930Y24790D01*
X810930Y18390D01*
X794430Y50390D02*
X794442Y50107D01*
X794479Y49826D01*
X794541Y49549D01*
X794626Y49278D01*
X794735Y49017D01*
X794865Y48765D01*
X795018Y48526D01*
X795190Y48301D01*
X795382Y48092D01*
X795591Y47900D01*
X795816Y47728D01*
X796055Y47575D01*
X796307Y47445D01*
X796568Y47336D01*
X796839Y47251D01*
X797116Y47189D01*
X797397Y47152D01*
X797680Y47140D01*
X797963Y47152D01*
X798244Y47189D01*
X798521Y47251D01*
X798792Y47336D01*
X799054Y47445D01*
X799305Y47575D01*
X799544Y47728D01*
X799769Y47900D01*
X799978Y48092D01*
X800170Y48301D01*
X800342Y48526D01*
X800495Y48765D01*
X800626Y49017D01*
X800734Y49278D01*
X800819Y49549D01*
X800881Y49826D01*
X800918Y50107D01*
X800930Y50390D01*
X800930Y54390D01*
X800918Y54673D01*
X800881Y54954D01*
X800819Y55231D01*
X800734Y55502D01*
X800626Y55764D01*
X800495Y56015D01*
X800342Y56254D01*
X800170Y56479D01*
X799978Y56688D01*
X799769Y56880D01*
X799544Y57052D01*
X799305Y57205D01*
X799054Y57336D01*
X798792Y57444D01*
X798521Y57529D01*
X798244Y57591D01*
X797963Y57628D01*
X797680Y57640D01*
X797397Y57628D01*
X797116Y57591D01*
X796839Y57529D01*
X796568Y57444D01*
X796307Y57336D01*
X796055Y57205D01*
X795816Y57052D01*
X795591Y56880D01*
X795382Y56688D01*
X795190Y56479D01*
X795018Y56254D01*
X794865Y56015D01*
X794735Y55764D01*
X794626Y55502D01*
X794541Y55231D01*
X794479Y54954D01*
X794442Y54673D01*
X794430Y54390D01*
X794430Y50390D01*
X745930Y50390D02*
X745942Y50107D01*
X745979Y49826D01*
X746041Y49549D01*
X746126Y49278D01*
X746235Y49017D01*
X746365Y48765D01*
X746518Y48526D01*
X746690Y48301D01*
X746882Y48092D01*
X747091Y47900D01*
X747316Y47728D01*
X747555Y47575D01*
X747807Y47445D01*
X748068Y47336D01*
X748339Y47251D01*
X748616Y47189D01*
X748897Y47152D01*
X749180Y47140D01*
X749463Y47152D01*
X749744Y47189D01*
X750021Y47251D01*
X750292Y47336D01*
X750554Y47445D01*
X750805Y47575D01*
X751044Y47728D01*
X751269Y47900D01*
X751478Y48092D01*
X751670Y48301D01*
X751842Y48526D01*
X751995Y48765D01*
X752126Y49017D01*
X752234Y49278D01*
X752319Y49549D01*
X752381Y49826D01*
X752418Y50107D01*
X752430Y50390D01*
X752430Y54390D01*
X752418Y54673D01*
X752381Y54954D01*
X752319Y55231D01*
X752234Y55502D01*
X752126Y55764D01*
X751995Y56015D01*
X751842Y56254D01*
X751670Y56479D01*
X751478Y56688D01*
X751269Y56880D01*
X751044Y57052D01*
X750805Y57205D01*
X750554Y57336D01*
X750292Y57444D01*
X750021Y57529D01*
X749744Y57591D01*
X749463Y57628D01*
X749180Y57640D01*
X748897Y57628D01*
X748616Y57591D01*
X748339Y57529D01*
X748068Y57444D01*
X747807Y57336D01*
X747555Y57205D01*
X747316Y57052D01*
X747091Y56880D01*
X746882Y56688D01*
X746690Y56479D01*
X746518Y56254D01*
X746365Y56015D01*
X746235Y55764D01*
X746126Y55502D01*
X746041Y55231D01*
X745979Y54954D01*
X745942Y54673D01*
X745930Y54390D01*
X745930Y50390D01*
X1367550Y846554D02*
X1367474Y845486D01*
X1367321Y844425D01*
X1367093Y843378D01*
X1366791Y842350D01*
X1366417Y841346D01*
X1365972Y840371D01*
X1365458Y839431D01*
X1364879Y838530D01*
X1364237Y837672D01*
X1363535Y836862D01*
X1362778Y836105D01*
X1361968Y835403D01*
X1361110Y834761D01*
X1360209Y834182D01*
X1359269Y833668D01*
X1358294Y833223D01*
X1357290Y832849D01*
X1356262Y832547D01*
X1355215Y832319D01*
X1354154Y832166D01*
X1353086Y832090D01*
X1352014Y832090D01*
X1350946Y832166D01*
X1349885Y832319D01*
X1348838Y832547D01*
X1347810Y832849D01*
X1346806Y833223D01*
X1345831Y833668D01*
X1344891Y834182D01*
X1343990Y834761D01*
X1343132Y835403D01*
X1342322Y836105D01*
X1341565Y836862D01*
X1340863Y837672D01*
X1340221Y838530D01*
X1339642Y839431D01*
X1339128Y840371D01*
X1338683Y841346D01*
X1338309Y842350D01*
X1338007Y843378D01*
X1337779Y844425D01*
X1337626Y845486D01*
X1337550Y846554D01*
X1337550Y847626D01*
X1337626Y848694D01*
X1337779Y849755D01*
X1338007Y850802D01*
X1338309Y851830D01*
X1338683Y852834D01*
X1339128Y853809D01*
X1339642Y854749D01*
X1340221Y855650D01*
X1340863Y856508D01*
X1341565Y857318D01*
X1342322Y858075D01*
X1343132Y858777D01*
X1343990Y859419D01*
X1344891Y859998D01*
X1345831Y860512D01*
X1346806Y860957D01*
X1347810Y861331D01*
X1348838Y861633D01*
X1349885Y861861D01*
X1350946Y862014D01*
X1352014Y862090D01*
X1353086Y862090D01*
X1354154Y862014D01*
X1355215Y861861D01*
X1356262Y861633D01*
X1357290Y861331D01*
X1358294Y860957D01*
X1359269Y860512D01*
X1360209Y859998D01*
X1361110Y859419D01*
X1361968Y858777D01*
X1362778Y858075D01*
X1363535Y857318D01*
X1364237Y856508D01*
X1364879Y855650D01*
X1365458Y854749D01*
X1365972Y853809D01*
X1366417Y852834D01*
X1366791Y851830D01*
X1367093Y850802D01*
X1367321Y849755D01*
X1367474Y848694D01*
X1367550Y847626D01*
X1367550Y846554D01*
X1367550Y40104D02*
X1367474Y39036D01*
X1367321Y37975D01*
X1367093Y36928D01*
X1366791Y35900D01*
X1366417Y34896D01*
X1365972Y33921D01*
X1365458Y32981D01*
X1364879Y32080D01*
X1364237Y31222D01*
X1363535Y30412D01*
X1362778Y29655D01*
X1361968Y28953D01*
X1361110Y28311D01*
X1360209Y27732D01*
X1359269Y27218D01*
X1358294Y26773D01*
X1357290Y26399D01*
X1356262Y26097D01*
X1355215Y25869D01*
X1354154Y25716D01*
X1353086Y25640D01*
X1352014Y25640D01*
X1350946Y25716D01*
X1349885Y25869D01*
X1348838Y26097D01*
X1347810Y26399D01*
X1346806Y26773D01*
X1345831Y27218D01*
X1344891Y27732D01*
X1343990Y28311D01*
X1343132Y28953D01*
X1342322Y29655D01*
X1341565Y30412D01*
X1340863Y31222D01*
X1340221Y32080D01*
X1339642Y32981D01*
X1339128Y33921D01*
X1338683Y34896D01*
X1338309Y35900D01*
X1338007Y36928D01*
X1337779Y37975D01*
X1337626Y39036D01*
X1337550Y40104D01*
X1337550Y41176D01*
X1337626Y42244D01*
X1337779Y43305D01*
X1338007Y44352D01*
X1338309Y45380D01*
X1338683Y46384D01*
X1339128Y47359D01*
X1339642Y48299D01*
X1340221Y49200D01*
X1340863Y50058D01*
X1341565Y50868D01*
X1342322Y51625D01*
X1343132Y52327D01*
X1343990Y52969D01*
X1344891Y53548D01*
X1345831Y54062D01*
X1346806Y54507D01*
X1347810Y54881D01*
X1348838Y55183D01*
X1349885Y55411D01*
X1350946Y55564D01*
X1352014Y55640D01*
X1353086Y55640D01*
X1354154Y55564D01*
X1355215Y55411D01*
X1356262Y55183D01*
X1357290Y54881D01*
X1358294Y54507D01*
X1359269Y54062D01*
X1360209Y53548D01*
X1361110Y52969D01*
X1361968Y52327D01*
X1362778Y51625D01*
X1363535Y50868D01*
X1364237Y50058D01*
X1364879Y49200D01*
X1365458Y48299D01*
X1365972Y47359D01*
X1366417Y46384D01*
X1366791Y45380D01*
X1367093Y44352D01*
X1367321Y43305D01*
X1367474Y42244D01*
X1367550Y41176D01*
X1367550Y40104D01*
X55640Y847824D02*
X55564Y846756D01*
X55411Y845695D01*
X55183Y844648D01*
X54881Y843620D01*
X54507Y842616D01*
X54062Y841641D01*
X53548Y840701D01*
X52969Y839800D01*
X52327Y838942D01*
X51625Y838132D01*
X50868Y837375D01*
X50058Y836673D01*
X49200Y836031D01*
X48299Y835452D01*
X47359Y834938D01*
X46384Y834493D01*
X45380Y834119D01*
X44352Y833817D01*
X43305Y833589D01*
X42244Y833436D01*
X41176Y833360D01*
X40104Y833360D01*
X39036Y833436D01*
X37975Y833589D01*
X36928Y833817D01*
X35900Y834119D01*
X34896Y834493D01*
X33921Y834938D01*
X32981Y835452D01*
X32080Y836031D01*
X31222Y836673D01*
X30412Y837375D01*
X29655Y838132D01*
X28953Y838942D01*
X28311Y839800D01*
X27732Y840701D01*
X27218Y841641D01*
X26773Y842616D01*
X26399Y843620D01*
X26097Y844648D01*
X25869Y845695D01*
X25716Y846756D01*
X25640Y847824D01*
X25640Y848896D01*
X25716Y849964D01*
X25869Y851025D01*
X26097Y852072D01*
X26399Y853100D01*
X26773Y854104D01*
X27218Y855079D01*
X27732Y856019D01*
X28311Y856920D01*
X28953Y857778D01*
X29655Y858588D01*
X30412Y859345D01*
X31222Y860047D01*
X32080Y860689D01*
X32981Y861268D01*
X33921Y861782D01*
X34896Y862227D01*
X35900Y862601D01*
X36928Y862903D01*
X37975Y863131D01*
X39036Y863284D01*
X40104Y863360D01*
X41176Y863360D01*
X42244Y863284D01*
X43305Y863131D01*
X44352Y862903D01*
X45380Y862601D01*
X46384Y862227D01*
X47359Y861782D01*
X48299Y861268D01*
X49200Y860689D01*
X50058Y860047D01*
X50868Y859345D01*
X51625Y858588D01*
X52327Y857778D01*
X52969Y856920D01*
X53548Y856019D01*
X54062Y855079D01*
X54507Y854104D01*
X54881Y853100D01*
X55183Y852072D01*
X55411Y851025D01*
X55564Y849964D01*
X55640Y848896D01*
X55640Y847824D01*
X55640Y40104D02*
X55564Y39036D01*
X55411Y37975D01*
X55183Y36928D01*
X54881Y35900D01*
X54507Y34896D01*
X54062Y33921D01*
X53548Y32981D01*
X52969Y32080D01*
X52327Y31222D01*
X51625Y30412D01*
X50868Y29655D01*
X50058Y28953D01*
X49200Y28311D01*
X48299Y27732D01*
X47359Y27218D01*
X46384Y26773D01*
X45380Y26399D01*
X44352Y26097D01*
X43305Y25869D01*
X42244Y25716D01*
X41176Y25640D01*
X40104Y25640D01*
X39036Y25716D01*
X37975Y25869D01*
X36928Y26097D01*
X35900Y26399D01*
X34896Y26773D01*
X33921Y27218D01*
X32981Y27732D01*
X32080Y28311D01*
X31222Y28953D01*
X30412Y29655D01*
X29655Y30412D01*
X28953Y31222D01*
X28311Y32080D01*
X27732Y32981D01*
X27218Y33921D01*
X26773Y34896D01*
X26399Y35900D01*
X26097Y36928D01*
X25869Y37975D01*
X25716Y39036D01*
X25640Y40104D01*
X25640Y41176D01*
X25716Y42244D01*
X25869Y43305D01*
X26097Y44352D01*
X26399Y45380D01*
X26773Y46384D01*
X27218Y47359D01*
X27732Y48299D01*
X28311Y49200D01*
X28953Y50058D01*
X29655Y50868D01*
X30412Y51625D01*
X31222Y52327D01*
X32080Y52969D01*
X32981Y53548D01*
X33921Y54062D01*
X34896Y54507D01*
X35900Y54881D01*
X36928Y55183D01*
X37975Y55411D01*
X39036Y55564D01*
X40104Y55640D01*
X41176Y55640D01*
X42244Y55564D01*
X43305Y55411D01*
X44352Y55183D01*
X45380Y54881D01*
X46384Y54507D01*
X47359Y54062D01*
X48299Y53548D01*
X49200Y52969D01*
X50058Y52327D01*
X50868Y51625D01*
X51625Y50868D01*
X52327Y50058D01*
X52969Y49200D01*
X53548Y48299D01*
X54062Y47359D01*
X54507Y46384D01*
X54881Y45380D01*
X55183Y44352D01*
X55411Y43305D01*
X55564Y42244D01*
X55640Y41176D01*
X55640Y40104D01*
M02*
