G04 EAGLE Gerber RS-274X export*
G75*
%MOMM*%
%FSLAX34Y34*%
%LPD*%
%INSilkscreen Bottom*%
%IPPOS*%
%AMOC8*
5,1,8,0,0,1.08239X$1,22.5*%
G01*
%ADD10C,0.508000*%


D10*
X1228090Y584962D02*
X1228212Y584964D01*
X1228334Y584970D01*
X1228456Y584980D01*
X1228577Y584993D01*
X1228698Y585011D01*
X1228818Y585032D01*
X1228938Y585058D01*
X1229056Y585087D01*
X1229174Y585119D01*
X1229291Y585156D01*
X1229406Y585196D01*
X1229520Y585240D01*
X1229632Y585288D01*
X1229743Y585339D01*
X1229852Y585394D01*
X1229960Y585452D01*
X1230065Y585514D01*
X1230168Y585579D01*
X1230270Y585647D01*
X1230369Y585719D01*
X1230465Y585793D01*
X1230560Y585871D01*
X1230651Y585952D01*
X1230741Y586035D01*
X1230827Y586121D01*
X1230910Y586211D01*
X1230991Y586302D01*
X1231069Y586397D01*
X1231143Y586493D01*
X1231215Y586592D01*
X1231283Y586694D01*
X1231348Y586797D01*
X1231410Y586902D01*
X1231468Y587010D01*
X1231523Y587119D01*
X1231574Y587230D01*
X1231622Y587342D01*
X1231666Y587456D01*
X1231706Y587571D01*
X1231743Y587688D01*
X1231775Y587806D01*
X1231804Y587924D01*
X1231830Y588044D01*
X1231851Y588164D01*
X1231869Y588285D01*
X1231882Y588406D01*
X1231892Y588528D01*
X1231898Y588650D01*
X1231900Y588772D01*
X1231898Y588894D01*
X1231892Y589016D01*
X1231882Y589138D01*
X1231869Y589259D01*
X1231851Y589380D01*
X1231830Y589500D01*
X1231804Y589620D01*
X1231775Y589738D01*
X1231743Y589856D01*
X1231706Y589973D01*
X1231666Y590088D01*
X1231622Y590202D01*
X1231574Y590314D01*
X1231523Y590425D01*
X1231468Y590534D01*
X1231410Y590642D01*
X1231348Y590747D01*
X1231283Y590850D01*
X1231215Y590952D01*
X1231143Y591051D01*
X1231069Y591147D01*
X1230991Y591242D01*
X1230910Y591333D01*
X1230827Y591423D01*
X1230741Y591509D01*
X1230651Y591592D01*
X1230560Y591673D01*
X1230465Y591751D01*
X1230369Y591825D01*
X1230270Y591897D01*
X1230168Y591965D01*
X1230065Y592030D01*
X1229960Y592092D01*
X1229852Y592150D01*
X1229743Y592205D01*
X1229632Y592256D01*
X1229520Y592304D01*
X1229406Y592348D01*
X1229291Y592388D01*
X1229174Y592425D01*
X1229056Y592457D01*
X1228938Y592486D01*
X1228818Y592512D01*
X1228698Y592533D01*
X1228577Y592551D01*
X1228456Y592564D01*
X1228334Y592574D01*
X1228212Y592580D01*
X1228090Y592582D01*
X1227968Y592580D01*
X1227846Y592574D01*
X1227724Y592564D01*
X1227603Y592551D01*
X1227482Y592533D01*
X1227362Y592512D01*
X1227242Y592486D01*
X1227124Y592457D01*
X1227006Y592425D01*
X1226889Y592388D01*
X1226774Y592348D01*
X1226660Y592304D01*
X1226548Y592256D01*
X1226437Y592205D01*
X1226328Y592150D01*
X1226220Y592092D01*
X1226115Y592030D01*
X1226012Y591965D01*
X1225910Y591897D01*
X1225811Y591825D01*
X1225715Y591751D01*
X1225620Y591673D01*
X1225529Y591592D01*
X1225439Y591509D01*
X1225353Y591423D01*
X1225270Y591333D01*
X1225189Y591242D01*
X1225111Y591147D01*
X1225037Y591051D01*
X1224965Y590952D01*
X1224897Y590850D01*
X1224832Y590747D01*
X1224770Y590642D01*
X1224712Y590534D01*
X1224657Y590425D01*
X1224606Y590314D01*
X1224558Y590202D01*
X1224514Y590088D01*
X1224474Y589973D01*
X1224437Y589856D01*
X1224405Y589738D01*
X1224376Y589620D01*
X1224350Y589500D01*
X1224329Y589380D01*
X1224311Y589259D01*
X1224298Y589138D01*
X1224288Y589016D01*
X1224282Y588894D01*
X1224280Y588772D01*
X1224282Y588650D01*
X1224288Y588528D01*
X1224298Y588406D01*
X1224311Y588285D01*
X1224329Y588164D01*
X1224350Y588044D01*
X1224376Y587924D01*
X1224405Y587806D01*
X1224437Y587688D01*
X1224474Y587571D01*
X1224514Y587456D01*
X1224558Y587342D01*
X1224606Y587230D01*
X1224657Y587119D01*
X1224712Y587010D01*
X1224770Y586902D01*
X1224832Y586797D01*
X1224897Y586694D01*
X1224965Y586592D01*
X1225037Y586493D01*
X1225111Y586397D01*
X1225189Y586302D01*
X1225270Y586211D01*
X1225353Y586121D01*
X1225439Y586035D01*
X1225529Y585952D01*
X1225620Y585871D01*
X1225715Y585793D01*
X1225811Y585719D01*
X1225910Y585647D01*
X1226012Y585579D01*
X1226115Y585514D01*
X1226220Y585452D01*
X1226328Y585394D01*
X1226437Y585339D01*
X1226548Y585288D01*
X1226660Y585240D01*
X1226774Y585196D01*
X1226889Y585156D01*
X1227006Y585119D01*
X1227124Y585087D01*
X1227242Y585058D01*
X1227362Y585032D01*
X1227482Y585011D01*
X1227603Y584993D01*
X1227724Y584980D01*
X1227846Y584970D01*
X1227968Y584964D01*
X1228090Y584962D01*
M02*
