G04 EAGLE Gerber RS-274X export*
G75*
%MOMM*%
%FSLAX34Y34*%
%LPD*%
%INSoldermask Top*%
%IPPOS*%
%AMOC8*
5,1,8,0,0,1.08239X$1,22.5*%
G01*
%ADD10C,3.203200*%
%ADD11R,2.203200X1.103200*%
%ADD12R,1.103200X2.203200*%
%ADD13R,1.533200X1.533200*%
%ADD14C,1.011200*%
%ADD15R,1.400000X1.900000*%
%ADD16R,1.900000X1.400000*%
%ADD17R,1.700000X1.500000*%
%ADD18R,1.500000X1.700000*%
%ADD19R,1.727200X0.965200*%
%ADD20C,1.473200*%
%ADD21R,1.203200X3.203200*%
%ADD22R,1.117600X0.457200*%
%ADD23R,0.457200X1.117600*%
%ADD24R,2.743200X2.743200*%
%ADD25R,1.203200X1.603200*%
%ADD26R,1.603200X1.203200*%
%ADD27R,2.387600X1.854200*%
%ADD28R,1.104800X2.269200*%
%ADD29R,3.404800X2.269200*%
%ADD30R,1.353200X0.553200*%
%ADD31R,1.092200X0.755700*%
%ADD32R,0.838200X1.600200*%
%ADD33R,4.703200X3.203200*%
%ADD34R,2.203200X1.403200*%
%ADD35R,1.553200X0.803200*%
%ADD36R,1.703200X1.103200*%
%ADD37R,0.812800X1.778000*%
%ADD38R,4.503200X2.703200*%
%ADD39R,2.286000X0.736600*%
%ADD40C,1.958200*%
%ADD41C,2.453200*%
%ADD42R,1.600200X0.812800*%
%ADD43R,2.590800X1.295400*%
%ADD44C,1.651000*%
%ADD45C,2.082800*%
%ADD46R,2.205431X1.646941*%
%ADD47R,2.197381X1.646731*%
%ADD48R,0.603200X1.953200*%
%ADD49R,1.578200X2.703200*%
%ADD50C,1.361200*%
%ADD51C,1.411200*%
%ADD52C,2.082800*%
%ADD53C,1.711200*%
%ADD54R,1.403200X1.803200*%
%ADD55R,3.503200X1.803200*%
%ADD56C,1.838200*%
%ADD57R,1.501200X1.501200*%
%ADD58C,1.501200*%
%ADD59R,2.764600X1.833200*%
%ADD60R,2.703200X4.503200*%
%ADD61R,0.838200X1.473200*%
%ADD62C,0.808000*%
%ADD63C,0.858000*%


D10*
X1352550Y847090D03*
X1352550Y40640D03*
X40640Y848360D03*
X40640Y40640D03*
D11*
X309970Y809520D03*
X309970Y796820D03*
X309970Y784120D03*
X309970Y771420D03*
X309970Y758720D03*
X309970Y746020D03*
X309970Y733320D03*
X309970Y720620D03*
X309970Y707920D03*
X309970Y695220D03*
X309970Y682520D03*
X309970Y669820D03*
X309970Y657120D03*
X309970Y644420D03*
D12*
X337820Y634420D03*
X350520Y634420D03*
X363220Y634420D03*
X375920Y634420D03*
X388620Y634420D03*
X401320Y634420D03*
X414020Y634420D03*
X426720Y634420D03*
X439420Y634420D03*
X452120Y634420D03*
D11*
X479970Y644420D03*
X479970Y657120D03*
X479970Y669820D03*
X479970Y682520D03*
X479970Y695220D03*
X479970Y707920D03*
X479970Y720620D03*
X479970Y733320D03*
X479970Y746020D03*
X479970Y758720D03*
X479970Y771420D03*
X479970Y784120D03*
X479970Y796820D03*
X479970Y809520D03*
D13*
X366620Y752870D03*
X384970Y752870D03*
X403320Y752870D03*
X366620Y734520D03*
X384970Y734520D03*
X403320Y734520D03*
X366620Y716170D03*
X384970Y716170D03*
X403320Y716170D03*
D14*
X375795Y752870D03*
X394145Y752870D03*
X366620Y743695D03*
X384970Y743695D03*
X403320Y743695D03*
X375795Y734520D03*
X394145Y734520D03*
X366620Y725345D03*
X384970Y725345D03*
X403320Y725345D03*
X375795Y716170D03*
X394145Y716170D03*
D15*
X1035770Y308610D03*
X998770Y308610D03*
D16*
X1244600Y297730D03*
X1244600Y334730D03*
X1282700Y297730D03*
X1282700Y334730D03*
D17*
X444500Y506490D03*
X444500Y476490D03*
D16*
X445770Y533950D03*
X445770Y570950D03*
D18*
X569200Y29210D03*
X599200Y29210D03*
D15*
X565700Y62230D03*
X602700Y62230D03*
X1104180Y308610D03*
X1141180Y308610D03*
D19*
X1079500Y271780D03*
X1135380Y271780D03*
X1079500Y233680D03*
X1135380Y233680D03*
X985520Y271780D03*
X1041400Y271780D03*
X985520Y233680D03*
X1041400Y233680D03*
D20*
X1158240Y287020D03*
X957580Y284480D03*
D21*
X1080770Y66510D03*
X1106170Y66510D03*
X1131570Y66510D03*
X1055370Y66510D03*
X1029970Y66510D03*
X1004570Y66510D03*
D20*
X1113790Y118110D03*
X957580Y50800D03*
X984250Y119380D03*
X1165860Y82550D03*
X1230630Y110490D03*
D21*
X1184910Y66510D03*
X1210310Y66510D03*
X1235710Y66510D03*
D15*
X798280Y255270D03*
X761280Y255270D03*
X721910Y218440D03*
X758910Y218440D03*
D22*
X759079Y173793D03*
X759079Y168792D03*
X759079Y163791D03*
X759079Y158789D03*
X759079Y153788D03*
X759079Y148787D03*
D23*
X766007Y141859D03*
X771008Y141859D03*
X776009Y141859D03*
X781011Y141859D03*
X786012Y141859D03*
X791013Y141859D03*
D22*
X797941Y148787D03*
X797941Y153788D03*
X797941Y158789D03*
X797941Y163791D03*
X797941Y168792D03*
X797941Y173793D03*
D23*
X791013Y180721D03*
X786012Y180721D03*
X781011Y180721D03*
X776009Y180721D03*
X771008Y180721D03*
X766007Y180721D03*
D24*
X778510Y161290D03*
D15*
X861610Y116840D03*
X898610Y116840D03*
D16*
X829310Y134070D03*
X829310Y97070D03*
D25*
X847090Y275160D03*
X856590Y253160D03*
X837590Y253160D03*
X717550Y276430D03*
X727050Y254430D03*
X708050Y254430D03*
D20*
X703580Y52070D03*
X704850Y101600D03*
X863600Y205740D03*
X863600Y171450D03*
X770890Y287020D03*
X788670Y287020D03*
D16*
X467360Y198840D03*
X467360Y161840D03*
X467360Y262340D03*
X467360Y225340D03*
D26*
X406830Y212090D03*
X428830Y221590D03*
X428830Y202590D03*
D27*
X388112Y160020D03*
X422148Y160020D03*
D20*
X513080Y198120D03*
X377190Y233680D03*
X562610Y210820D03*
X523240Y262890D03*
D28*
X81140Y472162D03*
X104140Y472162D03*
X127140Y472162D03*
D29*
X104140Y533678D03*
D15*
X101050Y433070D03*
X64050Y433070D03*
X128820Y433070D03*
X165820Y433070D03*
D20*
X31750Y514350D03*
X31750Y492760D03*
X31750Y471170D03*
D16*
X175260Y783040D03*
X175260Y746040D03*
D30*
X121040Y769770D03*
X121040Y763270D03*
X121040Y756770D03*
X138040Y756770D03*
X138040Y769770D03*
D31*
X26670Y755238D03*
X26670Y768763D03*
D16*
X76200Y743500D03*
X76200Y780500D03*
D19*
X86360Y662940D03*
X30480Y662940D03*
X86360Y701040D03*
X30480Y701040D03*
D16*
X132080Y664760D03*
X132080Y701760D03*
D20*
X25400Y632460D03*
D32*
X668680Y705210D03*
X687680Y705210D03*
X678180Y724810D03*
D15*
X724450Y708660D03*
X761450Y708660D03*
X596180Y712470D03*
X633180Y712470D03*
D33*
X764340Y807720D03*
X612340Y807720D03*
D20*
X797560Y774700D03*
D34*
X1362630Y110430D03*
X1362630Y166430D03*
D35*
X1325880Y123430D03*
X1325880Y133430D03*
X1325880Y143430D03*
X1325880Y153430D03*
D34*
X1362630Y196790D03*
X1362630Y252790D03*
D35*
X1325880Y209790D03*
X1325880Y219790D03*
X1325880Y229790D03*
X1325880Y239790D03*
D34*
X1362630Y285690D03*
X1362630Y341690D03*
D35*
X1325880Y298690D03*
X1325880Y308690D03*
X1325880Y318690D03*
X1325880Y328690D03*
D36*
X1046850Y826780D03*
X1046850Y859780D03*
X997850Y826780D03*
X997850Y859780D03*
D37*
X906145Y833628D03*
X925195Y833628D03*
X915670Y855472D03*
D38*
X1263240Y829310D03*
X1180240Y829310D03*
D15*
X898440Y793750D03*
X935440Y793750D03*
D16*
X957580Y860510D03*
X957580Y823510D03*
D36*
X1133210Y828050D03*
X1133210Y861050D03*
X1084210Y828050D03*
X1084210Y861050D03*
D15*
X1003850Y795020D03*
X1040850Y795020D03*
X1090210Y795020D03*
X1127210Y795020D03*
D20*
X873760Y819150D03*
X873760Y854710D03*
D39*
X662813Y560070D03*
X662813Y547370D03*
X662813Y534670D03*
X662813Y521970D03*
X662813Y509270D03*
X662813Y496570D03*
X662813Y483870D03*
X662813Y471170D03*
X759587Y471170D03*
X759587Y483870D03*
X759587Y496570D03*
X759587Y509270D03*
X759587Y521970D03*
X759587Y534670D03*
X759587Y547370D03*
X759587Y560070D03*
D40*
X949960Y429590D03*
D41*
X949960Y629590D03*
D15*
X662220Y440690D03*
X699220Y440690D03*
X762720Y440690D03*
X725720Y440690D03*
D20*
X676910Y593090D03*
X721360Y593090D03*
X698500Y593090D03*
X742950Y593090D03*
D42*
X1228112Y520160D03*
X1228112Y509160D03*
X1228112Y498160D03*
X1228112Y487160D03*
X1228112Y476160D03*
X1228112Y465160D03*
X1228112Y454160D03*
X1228112Y443160D03*
X1228112Y432160D03*
D43*
X1248112Y418360D03*
X1248112Y579860D03*
X1338112Y418360D03*
X1338112Y579860D03*
D44*
X1342390Y460248D03*
X1342390Y528320D03*
D16*
X1362710Y705570D03*
X1362710Y668570D03*
X1337310Y705570D03*
X1337310Y668570D03*
X1286510Y706840D03*
X1286510Y669840D03*
X1207770Y671110D03*
X1207770Y708110D03*
X1235710Y671110D03*
X1235710Y708110D03*
D45*
X1210310Y639318D02*
X1210310Y620522D01*
X1235710Y620522D02*
X1235710Y639318D01*
X1261110Y639318D02*
X1261110Y620522D01*
X1286510Y620522D02*
X1286510Y639318D01*
X1311910Y639318D02*
X1311910Y620522D01*
X1337310Y620522D02*
X1337310Y639318D01*
X1362710Y639318D02*
X1362710Y620522D01*
D46*
X744403Y52355D03*
D47*
X802443Y52356D03*
D48*
X760430Y50340D03*
X766930Y50340D03*
X773430Y50340D03*
X779930Y50340D03*
X786430Y50340D03*
D49*
X764055Y19590D03*
X782805Y19590D03*
D50*
X749180Y46600D02*
X749180Y58180D01*
X797680Y58180D02*
X797680Y46600D01*
D51*
X814430Y27630D02*
X814430Y15550D01*
X732430Y15550D02*
X732430Y27630D01*
D45*
X1065022Y135890D02*
X1083818Y135890D01*
X1083818Y161290D02*
X1065022Y161290D01*
X1065022Y186690D02*
X1083818Y186690D01*
X1025398Y135890D02*
X1006602Y135890D01*
X1006602Y161290D02*
X1025398Y161290D01*
X1025398Y186690D02*
X1006602Y186690D01*
D52*
X515620Y156210D03*
X541020Y156210D03*
X566420Y156210D03*
D53*
X205660Y141200D02*
X190580Y141200D01*
X190580Y81200D02*
X205660Y81200D01*
X245120Y103660D02*
X245120Y118740D01*
D54*
X64630Y232160D03*
X87630Y232160D03*
X110630Y232160D03*
D55*
X87630Y296160D03*
D15*
X33570Y190500D03*
X70570Y190500D03*
X102150Y191770D03*
X139150Y191770D03*
D56*
X402280Y19530D03*
X522280Y19530D03*
X522280Y79530D03*
X402280Y79530D03*
D57*
X422280Y62030D03*
D58*
X462280Y62030D03*
X502280Y62030D03*
D59*
X58517Y132080D03*
X93883Y132080D03*
D60*
X217170Y232820D03*
X217170Y315820D03*
D20*
X115570Y99060D03*
X179070Y180340D03*
D61*
X1079754Y308610D03*
X1071626Y308610D03*
X967486Y308610D03*
X975614Y308610D03*
D17*
X359410Y506490D03*
X359410Y476490D03*
D16*
X360680Y533950D03*
X360680Y570950D03*
D17*
X318770Y506490D03*
X318770Y476490D03*
D16*
X320040Y533950D03*
X320040Y570950D03*
D17*
X402590Y506490D03*
X402590Y476490D03*
D16*
X402590Y533950D03*
X402590Y570950D03*
D62*
X364490Y767080D03*
X384810Y767080D03*
X403860Y767080D03*
X417830Y735330D03*
X403860Y701040D03*
X384810Y701040D03*
X367030Y701040D03*
X353060Y734060D03*
X1320800Y186690D03*
X1323340Y271780D03*
X764540Y593090D03*
D63*
X726440Y74930D03*
D62*
X1078230Y288290D03*
D63*
X695960Y698500D03*
X50800Y744220D03*
X690880Y487680D03*
X467360Y477520D03*
X294640Y472440D03*
X381000Y467360D03*
X624840Y492760D03*
D62*
X831850Y68580D03*
X143510Y453390D03*
X114300Y453390D03*
X285750Y796820D03*
X638810Y547370D03*
X939800Y819150D03*
X782320Y97070D03*
X1214120Y731520D03*
X1263650Y358140D03*
X1154430Y308610D03*
X1339850Y133350D03*
X1339850Y219710D03*
X1339850Y308610D03*
X675640Y138430D03*
X894080Y833120D03*
X285115Y784225D03*
X255270Y683260D03*
X283210Y403860D03*
X618490Y275590D03*
X693420Y275590D03*
X872490Y275590D03*
X1057910Y308610D03*
X872490Y303530D03*
X937260Y303530D03*
X934720Y138430D03*
D63*
X919480Y231140D03*
D62*
X210820Y772160D03*
X212090Y810260D03*
X921025Y811255D03*
X229870Y707390D03*
X887730Y499110D03*
X1195070Y497840D03*
X501650Y694690D03*
X937260Y538480D03*
X1191260Y533400D03*
D63*
X547370Y825500D03*
D62*
X520700Y720090D03*
X910590Y518160D03*
X1167130Y518160D03*
D63*
X565150Y810260D03*
D62*
X1195070Y476250D03*
X872490Y477520D03*
X599440Y666750D03*
X532130Y694690D03*
X1209040Y111760D03*
X812800Y317500D03*
X855980Y335280D03*
X1183640Y95250D03*
X966470Y213360D03*
X916940Y252730D03*
X624840Y609600D03*
X548640Y549910D03*
X429260Y242570D03*
X128270Y407670D03*
X784860Y703580D03*
X670560Y245110D03*
D63*
X938530Y731520D03*
D62*
X201930Y727710D03*
X109220Y746760D03*
X148590Y703580D03*
X502920Y656590D03*
X617220Y693420D03*
X485140Y607060D03*
D63*
X607060Y773430D03*
D62*
X800100Y186690D03*
X772160Y217170D03*
X782320Y534670D03*
X167365Y219985D03*
M02*
