G04 EAGLE Gerber RS-274X export*
G75*
%MOMM*%
%FSLAX34Y34*%
%LPD*%
%INSolderpaste Top*%
%IPPOS*%
%AMOC8*
5,1,8,0,0,1.08239X$1,22.5*%
G01*
%ADD10R,2.000000X0.900000*%
%ADD11R,0.900000X2.000000*%
%ADD12R,1.330000X1.330000*%
%ADD13R,1.300000X1.800000*%
%ADD14R,1.800000X1.300000*%
%ADD15R,1.400000X1.600000*%
%ADD16R,1.524000X0.762000*%
%ADD17R,1.000000X3.000000*%
%ADD18R,0.914400X0.254000*%
%ADD19R,0.254000X0.914400*%
%ADD20R,1.000000X1.400000*%
%ADD21R,1.400000X1.000000*%
%ADD22R,2.184400X1.651000*%
%ADD23R,0.901600X2.066000*%
%ADD24R,3.201600X2.066000*%
%ADD25R,1.150000X0.350000*%
%ADD26R,0.889000X0.552500*%
%ADD27R,0.635000X1.397000*%
%ADD28R,4.500000X3.000000*%
%ADD29R,2.000000X1.200000*%
%ADD30R,1.350000X0.600000*%
%ADD31R,1.500000X0.900000*%
%ADD32R,0.609600X1.574800*%
%ADD33R,4.300000X2.500000*%
%ADD34R,2.082800X0.533400*%
%ADD35R,1.397000X0.609600*%
%ADD36R,2.387600X1.092200*%
%ADD37C,0.005000*%
%ADD38R,0.400000X1.750000*%
%ADD39R,1.375000X2.500000*%
%ADD40R,1.200000X1.600000*%
%ADD41R,3.300000X1.600000*%
%ADD42R,2.561400X1.630000*%
%ADD43R,2.500000X4.300000*%

G36*
X790212Y162165D02*
X790212Y162165D01*
X790214Y162164D01*
X790257Y162184D01*
X790301Y162202D01*
X790301Y162204D01*
X790303Y162205D01*
X790336Y162290D01*
X790336Y172990D01*
X790335Y172992D01*
X790336Y172994D01*
X790316Y173037D01*
X790298Y173081D01*
X790296Y173081D01*
X790295Y173083D01*
X790210Y173116D01*
X779510Y173116D01*
X779508Y173115D01*
X779506Y173116D01*
X779463Y173096D01*
X779419Y173078D01*
X779419Y173076D01*
X779417Y173075D01*
X779384Y172990D01*
X779384Y162290D01*
X779385Y162288D01*
X779384Y162286D01*
X779404Y162243D01*
X779422Y162199D01*
X779424Y162199D01*
X779425Y162197D01*
X779510Y162164D01*
X790210Y162164D01*
X790212Y162165D01*
G37*
G36*
X777512Y162165D02*
X777512Y162165D01*
X777514Y162164D01*
X777557Y162184D01*
X777601Y162202D01*
X777601Y162204D01*
X777603Y162205D01*
X777636Y162290D01*
X777636Y172990D01*
X777635Y172992D01*
X777636Y172994D01*
X777616Y173037D01*
X777598Y173081D01*
X777596Y173081D01*
X777595Y173083D01*
X777510Y173116D01*
X766810Y173116D01*
X766808Y173115D01*
X766806Y173116D01*
X766763Y173096D01*
X766719Y173078D01*
X766719Y173076D01*
X766717Y173075D01*
X766684Y172990D01*
X766684Y162290D01*
X766685Y162288D01*
X766684Y162286D01*
X766704Y162243D01*
X766722Y162199D01*
X766724Y162199D01*
X766725Y162197D01*
X766810Y162164D01*
X777510Y162164D01*
X777512Y162165D01*
G37*
G36*
X790212Y149465D02*
X790212Y149465D01*
X790214Y149464D01*
X790257Y149484D01*
X790301Y149502D01*
X790301Y149504D01*
X790303Y149505D01*
X790336Y149590D01*
X790336Y160290D01*
X790335Y160292D01*
X790336Y160294D01*
X790316Y160337D01*
X790298Y160381D01*
X790296Y160381D01*
X790295Y160383D01*
X790210Y160416D01*
X779510Y160416D01*
X779508Y160415D01*
X779506Y160416D01*
X779463Y160396D01*
X779419Y160378D01*
X779419Y160376D01*
X779417Y160375D01*
X779384Y160290D01*
X779384Y149590D01*
X779385Y149588D01*
X779384Y149586D01*
X779404Y149543D01*
X779422Y149499D01*
X779424Y149499D01*
X779425Y149497D01*
X779510Y149464D01*
X790210Y149464D01*
X790212Y149465D01*
G37*
G36*
X777512Y149465D02*
X777512Y149465D01*
X777514Y149464D01*
X777557Y149484D01*
X777601Y149502D01*
X777601Y149504D01*
X777603Y149505D01*
X777636Y149590D01*
X777636Y160290D01*
X777635Y160292D01*
X777636Y160294D01*
X777616Y160337D01*
X777598Y160381D01*
X777596Y160381D01*
X777595Y160383D01*
X777510Y160416D01*
X766810Y160416D01*
X766808Y160415D01*
X766806Y160416D01*
X766763Y160396D01*
X766719Y160378D01*
X766719Y160376D01*
X766717Y160375D01*
X766684Y160290D01*
X766684Y149590D01*
X766685Y149588D01*
X766684Y149586D01*
X766704Y149543D01*
X766722Y149499D01*
X766724Y149499D01*
X766725Y149497D01*
X766810Y149464D01*
X777510Y149464D01*
X777512Y149465D01*
G37*
G36*
X816730Y11086D02*
X816730Y11086D01*
X817665Y11191D01*
X817666Y11192D01*
X817666Y11191D01*
X818554Y11502D01*
X818554Y11503D01*
X818555Y11502D01*
X819351Y12003D01*
X819352Y12003D01*
X820017Y12668D01*
X820017Y12669D01*
X820518Y13465D01*
X820518Y13466D01*
X820829Y14354D01*
X820828Y14355D01*
X820829Y14355D01*
X820829Y14358D01*
X820830Y14362D01*
X820831Y14370D01*
X820831Y14371D01*
X820831Y14375D01*
X820832Y14383D01*
X820833Y14387D01*
X820833Y14388D01*
X820834Y14396D01*
X820834Y14400D01*
X820835Y14409D01*
X820835Y14413D01*
X820836Y14421D01*
X820836Y14422D01*
X820837Y14426D01*
X820838Y14434D01*
X820838Y14438D01*
X820838Y14439D01*
X820839Y14447D01*
X820840Y14451D01*
X820841Y14460D01*
X820841Y14464D01*
X820842Y14468D01*
X820842Y14472D01*
X820842Y14473D01*
X820843Y14477D01*
X820843Y14481D01*
X820844Y14489D01*
X820844Y14490D01*
X820845Y14494D01*
X820846Y14502D01*
X820846Y14506D01*
X820846Y14507D01*
X820847Y14515D01*
X820847Y14519D01*
X820848Y14528D01*
X820849Y14532D01*
X820850Y14540D01*
X820850Y14541D01*
X820850Y14545D01*
X820851Y14553D01*
X820852Y14557D01*
X820852Y14558D01*
X820853Y14566D01*
X820853Y14570D01*
X820854Y14579D01*
X820855Y14583D01*
X820856Y14591D01*
X820856Y14592D01*
X820856Y14596D01*
X820857Y14604D01*
X820857Y14608D01*
X820858Y14608D01*
X820857Y14609D01*
X820858Y14617D01*
X820859Y14621D01*
X820859Y14625D01*
X820859Y14626D01*
X820860Y14630D01*
X820860Y14634D01*
X820861Y14638D01*
X820861Y14642D01*
X820861Y14643D01*
X820862Y14647D01*
X820862Y14651D01*
X820863Y14659D01*
X820863Y14660D01*
X820864Y14664D01*
X820865Y14672D01*
X820865Y14676D01*
X820865Y14677D01*
X820866Y14685D01*
X820867Y14689D01*
X820868Y14698D01*
X820868Y14702D01*
X820869Y14710D01*
X820869Y14711D01*
X820869Y14715D01*
X820870Y14723D01*
X820871Y14727D01*
X820871Y14728D01*
X820872Y14736D01*
X820872Y14740D01*
X820873Y14749D01*
X820874Y14753D01*
X820875Y14761D01*
X820875Y14762D01*
X820875Y14766D01*
X820876Y14774D01*
X820877Y14778D01*
X820877Y14779D01*
X820878Y14787D01*
X820878Y14791D01*
X820879Y14795D01*
X820879Y14796D01*
X820879Y14800D01*
X820880Y14804D01*
X820880Y14808D01*
X820880Y14812D01*
X820881Y14812D01*
X820880Y14813D01*
X820881Y14817D01*
X820881Y14821D01*
X820882Y14829D01*
X820882Y14830D01*
X820883Y14834D01*
X820884Y14842D01*
X820884Y14846D01*
X820884Y14847D01*
X820885Y14855D01*
X820886Y14859D01*
X820887Y14868D01*
X820887Y14872D01*
X820888Y14880D01*
X820888Y14881D01*
X820889Y14885D01*
X820890Y14893D01*
X820890Y14897D01*
X820890Y14898D01*
X820891Y14906D01*
X820891Y14910D01*
X820892Y14910D01*
X820891Y14910D01*
X820892Y14919D01*
X820893Y14923D01*
X820894Y14931D01*
X820894Y14932D01*
X820894Y14936D01*
X820895Y14944D01*
X820896Y14948D01*
X820896Y14949D01*
X820897Y14957D01*
X820897Y14961D01*
X820898Y14965D01*
X820898Y14966D01*
X820898Y14970D01*
X820899Y14974D01*
X820899Y14978D01*
X820900Y14982D01*
X820900Y14983D01*
X820900Y14987D01*
X820901Y14991D01*
X820902Y14999D01*
X820902Y15000D01*
X820902Y15004D01*
X820903Y15012D01*
X820903Y15016D01*
X820903Y15017D01*
X820904Y15025D01*
X820905Y15029D01*
X820906Y15038D01*
X820906Y15042D01*
X820907Y15050D01*
X820907Y15051D01*
X820908Y15055D01*
X820909Y15063D01*
X820909Y15067D01*
X820909Y15068D01*
X820910Y15076D01*
X820911Y15080D01*
X820912Y15089D01*
X820912Y15093D01*
X820913Y15101D01*
X820913Y15102D01*
X820914Y15106D01*
X820914Y15114D01*
X820915Y15114D01*
X820914Y15114D01*
X820915Y15118D01*
X820915Y15119D01*
X820916Y15127D01*
X820916Y15131D01*
X820917Y15135D01*
X820917Y15136D01*
X820917Y15140D01*
X820918Y15144D01*
X820918Y15148D01*
X820919Y15157D01*
X820920Y15161D01*
X820921Y15169D01*
X820921Y15170D01*
X820921Y15174D01*
X820922Y15182D01*
X820923Y15186D01*
X820923Y15187D01*
X820924Y15195D01*
X820924Y15199D01*
X820925Y15208D01*
X820925Y15212D01*
X820926Y15212D01*
X820925Y15212D01*
X820926Y15220D01*
X820926Y15221D01*
X820927Y15225D01*
X820928Y15233D01*
X820928Y15237D01*
X820928Y15238D01*
X820929Y15246D01*
X820930Y15250D01*
X820931Y15259D01*
X820931Y15263D01*
X820932Y15271D01*
X820932Y15272D01*
X820933Y15276D01*
X820934Y15284D01*
X820934Y15288D01*
X820934Y15289D01*
X820934Y15290D01*
X820934Y27890D01*
X820829Y28825D01*
X820828Y28826D01*
X820829Y28826D01*
X820518Y29714D01*
X820518Y29715D01*
X820017Y30511D01*
X820017Y30512D01*
X819352Y31177D01*
X819351Y31177D01*
X818555Y31678D01*
X818554Y31678D01*
X817666Y31989D01*
X817665Y31988D01*
X817665Y31989D01*
X816730Y32094D01*
X814730Y32094D01*
X814726Y32091D01*
X814726Y32090D01*
X814726Y32040D01*
X814729Y32036D01*
X814730Y32036D01*
X815802Y31874D01*
X816816Y31491D01*
X817726Y30903D01*
X818493Y30136D01*
X819081Y29226D01*
X819464Y28212D01*
X819626Y27140D01*
X819626Y16340D01*
X819626Y16339D01*
X819625Y16331D01*
X819624Y16327D01*
X819623Y16318D01*
X819623Y16314D01*
X819622Y16305D01*
X819622Y16301D01*
X819621Y16293D01*
X819620Y16288D01*
X819619Y16280D01*
X819619Y16276D01*
X819618Y16267D01*
X819617Y16263D01*
X819617Y16254D01*
X819616Y16254D01*
X819617Y16254D01*
X819616Y16250D01*
X819615Y16242D01*
X819615Y16237D01*
X819614Y16229D01*
X819613Y16225D01*
X819612Y16216D01*
X819612Y16212D01*
X819611Y16203D01*
X819611Y16199D01*
X819610Y16195D01*
X819610Y16191D01*
X819609Y16186D01*
X819609Y16182D01*
X819608Y16178D01*
X819607Y16169D01*
X819607Y16165D01*
X819606Y16157D01*
X819606Y16152D01*
X819605Y16152D01*
X819606Y16152D01*
X819605Y16144D01*
X819604Y16140D01*
X819603Y16131D01*
X819603Y16127D01*
X819602Y16118D01*
X819601Y16114D01*
X819600Y16106D01*
X819600Y16101D01*
X819599Y16093D01*
X819599Y16089D01*
X819598Y16080D01*
X819597Y16076D01*
X819596Y16067D01*
X819596Y16063D01*
X819595Y16055D01*
X819595Y16050D01*
X819594Y16050D01*
X819595Y16050D01*
X819594Y16042D01*
X819593Y16038D01*
X819592Y16029D01*
X819592Y16025D01*
X819591Y16021D01*
X819591Y16016D01*
X819590Y16012D01*
X819590Y16008D01*
X819589Y16004D01*
X819589Y15999D01*
X819589Y15995D01*
X819588Y15991D01*
X819587Y15982D01*
X819587Y15978D01*
X819586Y15970D01*
X819585Y15965D01*
X819584Y15957D01*
X819584Y15953D01*
X819583Y15944D01*
X819583Y15940D01*
X819582Y15931D01*
X819581Y15927D01*
X819580Y15919D01*
X819580Y15914D01*
X819579Y15906D01*
X819578Y15902D01*
X819578Y15893D01*
X819577Y15889D01*
X819576Y15880D01*
X819576Y15876D01*
X819575Y15868D01*
X819574Y15863D01*
X819573Y15855D01*
X819573Y15851D01*
X819573Y15846D01*
X819572Y15842D01*
X819572Y15838D01*
X819571Y15834D01*
X819571Y15829D01*
X819570Y15825D01*
X819570Y15821D01*
X819569Y15817D01*
X819568Y15808D01*
X819568Y15804D01*
X819567Y15795D01*
X819567Y15791D01*
X819566Y15783D01*
X819565Y15778D01*
X819564Y15770D01*
X819564Y15766D01*
X819563Y15757D01*
X819562Y15753D01*
X819562Y15744D01*
X819561Y15740D01*
X819560Y15732D01*
X819560Y15727D01*
X819559Y15719D01*
X819558Y15715D01*
X819557Y15706D01*
X819557Y15702D01*
X819556Y15693D01*
X819556Y15689D01*
X819555Y15681D01*
X819554Y15676D01*
X819553Y15668D01*
X819553Y15664D01*
X819552Y15659D01*
X819552Y15655D01*
X819551Y15651D01*
X819551Y15647D01*
X819551Y15642D01*
X819550Y15634D01*
X819549Y15630D01*
X819548Y15621D01*
X819548Y15617D01*
X819547Y15608D01*
X819546Y15604D01*
X819546Y15596D01*
X819545Y15596D01*
X819546Y15596D01*
X819545Y15591D01*
X819544Y15583D01*
X819544Y15579D01*
X819543Y15570D01*
X819542Y15566D01*
X819541Y15557D01*
X819541Y15553D01*
X819540Y15545D01*
X819540Y15540D01*
X819539Y15532D01*
X819538Y15528D01*
X819537Y15519D01*
X819537Y15515D01*
X819536Y15506D01*
X819535Y15502D01*
X819535Y15494D01*
X819534Y15494D01*
X819535Y15494D01*
X819534Y15489D01*
X819534Y15485D01*
X819533Y15481D01*
X819533Y15477D01*
X819532Y15472D01*
X819532Y15468D01*
X819531Y15460D01*
X819530Y15455D01*
X819529Y15447D01*
X819529Y15443D01*
X819528Y15434D01*
X819528Y15430D01*
X819527Y15421D01*
X819526Y15417D01*
X819525Y15409D01*
X819525Y15404D01*
X819524Y15396D01*
X819524Y15392D01*
X819523Y15392D01*
X819524Y15392D01*
X819523Y15383D01*
X819522Y15379D01*
X819521Y15370D01*
X819521Y15366D01*
X819520Y15358D01*
X819519Y15353D01*
X819518Y15345D01*
X819518Y15341D01*
X819517Y15332D01*
X819517Y15328D01*
X819516Y15319D01*
X819515Y15315D01*
X819515Y15311D01*
X819514Y15307D01*
X819514Y15302D01*
X819513Y15298D01*
X819513Y15294D01*
X819512Y15285D01*
X819512Y15281D01*
X819511Y15273D01*
X819510Y15268D01*
X819509Y15260D01*
X819509Y15256D01*
X819508Y15247D01*
X819507Y15243D01*
X819507Y15234D01*
X819506Y15230D01*
X819505Y15222D01*
X819505Y15217D01*
X819504Y15209D01*
X819503Y15205D01*
X819502Y15196D01*
X819502Y15192D01*
X819502Y15189D01*
X819125Y14094D01*
X818513Y13111D01*
X817698Y12288D01*
X816721Y11667D01*
X815630Y11279D01*
X814480Y11144D01*
X814476Y11140D01*
X814476Y11090D01*
X814479Y11086D01*
X814480Y11086D01*
X816730Y11086D01*
X816730Y11086D01*
G37*
G36*
X732384Y11089D02*
X732384Y11089D01*
X732384Y11090D01*
X732384Y11140D01*
X732381Y11144D01*
X731230Y11279D01*
X730139Y11667D01*
X729162Y12288D01*
X728347Y13111D01*
X727736Y14094D01*
X727358Y15189D01*
X727234Y16340D01*
X727234Y27140D01*
X727318Y27698D01*
X727320Y27707D01*
X727321Y27715D01*
X727322Y27724D01*
X727324Y27732D01*
X727324Y27733D01*
X727325Y27741D01*
X727326Y27749D01*
X727326Y27750D01*
X727327Y27758D01*
X727329Y27766D01*
X727329Y27767D01*
X727330Y27775D01*
X727396Y28212D01*
X727779Y29226D01*
X728367Y30136D01*
X729134Y30903D01*
X730044Y31491D01*
X731058Y31874D01*
X732131Y32036D01*
X732134Y32040D01*
X732134Y32090D01*
X732131Y32094D01*
X732130Y32094D01*
X730130Y32094D01*
X729195Y31989D01*
X729195Y31988D01*
X729194Y31989D01*
X728306Y31678D01*
X728305Y31678D01*
X727509Y31177D01*
X727508Y31177D01*
X726843Y30512D01*
X726843Y30511D01*
X726342Y29715D01*
X726342Y29714D01*
X726031Y28826D01*
X726032Y28825D01*
X726031Y28825D01*
X725926Y27890D01*
X725926Y15290D01*
X726031Y14355D01*
X726032Y14355D01*
X726031Y14354D01*
X726342Y13466D01*
X726343Y13466D01*
X726342Y13465D01*
X726843Y12669D01*
X726843Y12668D01*
X727508Y12003D01*
X727509Y12003D01*
X728305Y11502D01*
X728306Y11502D01*
X729194Y11191D01*
X729195Y11192D01*
X729195Y11191D01*
X730130Y11086D01*
X732380Y11086D01*
X732384Y11089D01*
G37*
D10*
X306160Y652040D03*
X306160Y639340D03*
X306160Y626640D03*
X306160Y613940D03*
X306160Y601240D03*
X306160Y588540D03*
X306160Y575840D03*
X306160Y563140D03*
X306160Y550440D03*
X306160Y537740D03*
X306160Y525040D03*
X306160Y512340D03*
X306160Y499640D03*
X306160Y486940D03*
D11*
X334010Y476940D03*
X346710Y476940D03*
X359410Y476940D03*
X372110Y476940D03*
X384810Y476940D03*
X397510Y476940D03*
X410210Y476940D03*
X422910Y476940D03*
X435610Y476940D03*
X448310Y476940D03*
D10*
X476160Y486940D03*
X476160Y499640D03*
X476160Y512340D03*
X476160Y525040D03*
X476160Y537740D03*
X476160Y550440D03*
X476160Y563140D03*
X476160Y575840D03*
X476160Y588540D03*
X476160Y601240D03*
X476160Y613940D03*
X476160Y626640D03*
X476160Y639340D03*
X476160Y652040D03*
D12*
X362810Y595390D03*
X381160Y595390D03*
X399510Y595390D03*
X362810Y577040D03*
X381160Y577040D03*
X399510Y577040D03*
X362810Y558690D03*
X381160Y558690D03*
X399510Y558690D03*
D13*
X1031960Y308610D03*
X994960Y308610D03*
D14*
X1244600Y297730D03*
X1244600Y334730D03*
X1282700Y297730D03*
X1282700Y334730D03*
D15*
X372350Y855980D03*
X402350Y855980D03*
D13*
X368850Y824230D03*
X405850Y824230D03*
D15*
X569200Y29210D03*
X599200Y29210D03*
D13*
X565700Y62230D03*
X602700Y62230D03*
X1087670Y308610D03*
X1124670Y308610D03*
D16*
X1079500Y271780D03*
X1135380Y271780D03*
X1079500Y233680D03*
X1135380Y233680D03*
X985520Y271780D03*
X1041400Y271780D03*
X985520Y233680D03*
X1041400Y233680D03*
D17*
X1080770Y66510D03*
X1106170Y66510D03*
X1131570Y66510D03*
X1055370Y66510D03*
X1029970Y66510D03*
X1004570Y66510D03*
X1184910Y66510D03*
X1210310Y66510D03*
X1235710Y66510D03*
D13*
X798280Y255270D03*
X761280Y255270D03*
X721910Y218440D03*
X758910Y218440D03*
D18*
X759079Y173793D03*
X759079Y168792D03*
X759079Y163791D03*
X759079Y158789D03*
X759079Y153788D03*
X759079Y148787D03*
D19*
X766007Y141859D03*
X771008Y141859D03*
X776009Y141859D03*
X781011Y141859D03*
X786012Y141859D03*
X791013Y141859D03*
D18*
X797941Y148787D03*
X797941Y153788D03*
X797941Y158789D03*
X797941Y163791D03*
X797941Y168792D03*
X797941Y173793D03*
D19*
X791013Y180721D03*
X786012Y180721D03*
X781011Y180721D03*
X776009Y180721D03*
X771008Y180721D03*
X766007Y180721D03*
D13*
X861610Y116840D03*
X898610Y116840D03*
D14*
X829310Y134070D03*
X829310Y97070D03*
D20*
X847090Y275160D03*
X856590Y253160D03*
X837590Y253160D03*
X717550Y276430D03*
X727050Y254430D03*
X708050Y254430D03*
D14*
X467360Y198840D03*
X467360Y161840D03*
X467360Y262340D03*
X467360Y225340D03*
D21*
X406830Y212090D03*
X428830Y221590D03*
X428830Y202590D03*
D22*
X388112Y160020D03*
X422148Y160020D03*
D23*
X81140Y472162D03*
X104140Y472162D03*
X127140Y472162D03*
D24*
X104140Y533678D03*
D13*
X101050Y433070D03*
X64050Y433070D03*
X128820Y433070D03*
X165820Y433070D03*
D14*
X175260Y783040D03*
X175260Y746040D03*
D25*
X121040Y769770D03*
X121040Y763270D03*
X121040Y756770D03*
X138040Y756770D03*
X138040Y769770D03*
D26*
X26670Y755238D03*
X26670Y768763D03*
D14*
X76200Y743500D03*
X76200Y780500D03*
D16*
X86360Y662940D03*
X30480Y662940D03*
X86360Y701040D03*
X30480Y701040D03*
D14*
X132080Y664760D03*
X132080Y701760D03*
D27*
X668680Y705210D03*
X687680Y705210D03*
X678180Y724810D03*
D13*
X724450Y708660D03*
X761450Y708660D03*
X596180Y712470D03*
X633180Y712470D03*
D28*
X764340Y807720D03*
X612340Y807720D03*
D29*
X1362630Y110430D03*
X1362630Y166430D03*
D30*
X1325880Y123430D03*
X1325880Y133430D03*
X1325880Y143430D03*
X1325880Y153430D03*
D29*
X1362630Y196790D03*
X1362630Y252790D03*
D30*
X1325880Y209790D03*
X1325880Y219790D03*
X1325880Y229790D03*
X1325880Y239790D03*
D29*
X1362630Y285690D03*
X1362630Y341690D03*
D30*
X1325880Y298690D03*
X1325880Y308690D03*
X1325880Y318690D03*
X1325880Y328690D03*
D31*
X1046850Y826780D03*
X1046850Y859780D03*
X997850Y826780D03*
X997850Y859780D03*
D32*
X906145Y833628D03*
X925195Y833628D03*
X915670Y855472D03*
D33*
X1263240Y829310D03*
X1180240Y829310D03*
D13*
X898440Y793750D03*
X935440Y793750D03*
D14*
X957580Y860510D03*
X957580Y823510D03*
D31*
X1133210Y828050D03*
X1133210Y861050D03*
X1084210Y828050D03*
X1084210Y861050D03*
D13*
X1003850Y795020D03*
X1040850Y795020D03*
X1090210Y795020D03*
X1127210Y795020D03*
D34*
X662813Y560070D03*
X662813Y547370D03*
X662813Y534670D03*
X662813Y521970D03*
X662813Y509270D03*
X662813Y496570D03*
X662813Y483870D03*
X662813Y471170D03*
X759587Y471170D03*
X759587Y483870D03*
X759587Y496570D03*
X759587Y509270D03*
X759587Y521970D03*
X759587Y534670D03*
X759587Y547370D03*
X759587Y560070D03*
D13*
X662220Y440690D03*
X699220Y440690D03*
X762720Y440690D03*
X725720Y440690D03*
D35*
X1228112Y520160D03*
X1228112Y509160D03*
X1228112Y498160D03*
X1228112Y487160D03*
X1228112Y476160D03*
X1228112Y465160D03*
X1228112Y454160D03*
X1228112Y443160D03*
X1228112Y432160D03*
D36*
X1248112Y418360D03*
X1248112Y579860D03*
X1338112Y418360D03*
X1338112Y579860D03*
D14*
X1362710Y705570D03*
X1362710Y668570D03*
X1337310Y705570D03*
X1337310Y668570D03*
X1286510Y706840D03*
X1286510Y669840D03*
X1207770Y671110D03*
X1207770Y708110D03*
X1235710Y671110D03*
X1235710Y708110D03*
D37*
X812430Y59690D02*
X799930Y59690D01*
X800560Y59197D01*
X801068Y58578D01*
X801431Y57865D01*
X801630Y57090D01*
X801530Y47490D01*
X801241Y46739D01*
X800796Y46068D01*
X800217Y45510D01*
X799530Y45090D01*
X812430Y45090D01*
X812430Y59690D01*
X812430Y50800D02*
X801565Y50800D01*
X800100Y45439D02*
X800100Y45090D01*
X800100Y59557D02*
X800100Y59690D01*
X795430Y59690D02*
X792430Y59690D01*
X792430Y45090D01*
X795530Y45090D01*
X794876Y45575D01*
X794342Y46190D01*
X793954Y46907D01*
X793730Y47690D01*
X793830Y57390D01*
X794046Y58035D01*
X794397Y58617D01*
X794866Y59110D01*
X795430Y59490D01*
X795430Y59690D01*
X793762Y50800D02*
X792430Y50800D01*
X746930Y59690D02*
X734430Y59690D01*
X746300Y59197D02*
X746930Y59690D01*
X746300Y59197D02*
X745792Y58578D01*
X745429Y57865D01*
X745230Y57090D01*
X745330Y47490D01*
X745619Y46739D01*
X746064Y46068D01*
X746643Y45510D01*
X747330Y45090D01*
X734430Y45090D01*
X734430Y59690D01*
X734430Y50800D02*
X745296Y50800D01*
X736600Y45090D02*
X736600Y59690D01*
X751430Y59690D02*
X754430Y59690D01*
X754430Y45090D01*
X751330Y45090D01*
X751984Y45575D01*
X752518Y46190D01*
X752906Y46907D01*
X753130Y47690D01*
X753030Y57390D01*
X752814Y58035D01*
X752463Y58617D01*
X751994Y59110D01*
X751430Y59490D01*
X751430Y59690D01*
X753098Y50800D02*
X754430Y50800D01*
D38*
X760430Y50340D03*
X766930Y50340D03*
X773430Y50340D03*
X779930Y50340D03*
X786430Y50340D03*
D39*
X764055Y19590D03*
X782805Y19590D03*
D40*
X64630Y232160D03*
X87630Y232160D03*
X110630Y232160D03*
D41*
X87630Y296160D03*
D13*
X33570Y190500D03*
X70570Y190500D03*
X102150Y191770D03*
X139150Y191770D03*
D42*
X58517Y132080D03*
X93883Y132080D03*
D43*
X217170Y232820D03*
X217170Y315820D03*
M02*
