G04 EAGLE Gerber RS-274X export*
G75*
%MOMM*%
%FSLAX34Y34*%
%LPD*%
%INSoldermask Bottom*%
%IPPOS*%
%AMOC8*
5,1,8,0,0,1.08239X$1,22.5*%
G01*
%ADD10C,3.203200*%
%ADD11C,0.911200*%
%ADD12C,1.958200*%
%ADD13C,2.453200*%
%ADD14C,1.651000*%
%ADD15C,2.082800*%
%ADD16C,1.361200*%
%ADD17C,1.411200*%
%ADD18C,2.082800*%
%ADD19C,1.711200*%
%ADD20C,1.838200*%
%ADD21R,1.501200X1.501200*%
%ADD22C,1.501200*%
%ADD23C,0.762000*%


D10*
X1352550Y847090D03*
X1352550Y40640D03*
X40640Y848360D03*
X40640Y40640D03*
D11*
X371985Y595390D03*
X390335Y595390D03*
X362810Y586215D03*
X381160Y586215D03*
X399510Y586215D03*
X371985Y577040D03*
X390335Y577040D03*
X362810Y567865D03*
X381160Y567865D03*
X399510Y567865D03*
X371985Y558690D03*
X390335Y558690D03*
D12*
X949960Y429590D03*
D13*
X949960Y629590D03*
D14*
X1342390Y460248D03*
X1342390Y528320D03*
D15*
X1210310Y620522D02*
X1210310Y639318D01*
X1235710Y639318D02*
X1235710Y620522D01*
X1261110Y620522D02*
X1261110Y639318D01*
X1286510Y639318D02*
X1286510Y620522D01*
X1311910Y620522D02*
X1311910Y639318D01*
X1337310Y639318D02*
X1337310Y620522D01*
X1362710Y620522D02*
X1362710Y639318D01*
D16*
X749180Y58180D02*
X749180Y46600D01*
X797680Y46600D02*
X797680Y58180D01*
D17*
X814430Y27630D02*
X814430Y15550D01*
X732430Y15550D02*
X732430Y27630D01*
D15*
X1065022Y135890D02*
X1083818Y135890D01*
X1083818Y161290D02*
X1065022Y161290D01*
X1065022Y186690D02*
X1083818Y186690D01*
X1025398Y135890D02*
X1006602Y135890D01*
X1006602Y161290D02*
X1025398Y161290D01*
X1025398Y186690D02*
X1006602Y186690D01*
D18*
X515620Y156210D03*
X541020Y156210D03*
X566420Y156210D03*
D19*
X205660Y141200D02*
X190580Y141200D01*
X190580Y81200D02*
X205660Y81200D01*
X245120Y103660D02*
X245120Y118740D01*
D20*
X402280Y19530D03*
X522280Y19530D03*
X522280Y79530D03*
X402280Y79530D03*
D21*
X422280Y62030D03*
D22*
X462280Y62030D03*
X502280Y62030D03*
D23*
X360680Y609600D03*
X381000Y609600D03*
X400050Y609600D03*
X414020Y577850D03*
X400050Y543560D03*
X381000Y543560D03*
X363220Y543560D03*
X349250Y576580D03*
X1320800Y186690D03*
X1323340Y271780D03*
X764540Y593090D03*
X831850Y68580D03*
X143510Y453390D03*
X114300Y453390D03*
X281940Y639340D03*
X638810Y547370D03*
X939800Y819150D03*
X782320Y97070D03*
X1214120Y731520D03*
X1263650Y358140D03*
X1146810Y308610D03*
X1339850Y133350D03*
X1339850Y219710D03*
X1339850Y308610D03*
X675640Y138430D03*
X241935Y626745D03*
X238760Y445770D03*
X252730Y402590D03*
X618490Y275590D03*
X693420Y275590D03*
X872490Y275590D03*
X1064260Y242570D03*
X872490Y303530D03*
X975360Y281940D03*
X203200Y613410D03*
X185420Y814070D03*
X922295Y808715D03*
X198120Y549910D03*
X828040Y513080D03*
X1195070Y497840D03*
X497840Y537210D03*
X497840Y679450D03*
X937260Y538480D03*
X1191260Y533400D03*
X518160Y563880D03*
X518160Y666750D03*
X910590Y518160D03*
X1167130Y518160D03*
X1195070Y476250D03*
X852170Y492760D03*
X538480Y652780D03*
X538480Y551180D03*
X1209040Y111760D03*
X812800Y317500D03*
X855980Y335280D03*
X1183640Y95250D03*
X949960Y213360D03*
X916940Y236220D03*
X622300Y609600D03*
X577850Y589280D03*
X429260Y242570D03*
X128270Y407670D03*
X784860Y703580D03*
X670560Y245110D03*
X182880Y601980D03*
X109220Y746760D03*
X148590Y703580D03*
X519430Y499110D03*
X554990Y701040D03*
X520700Y421640D03*
X264160Y445770D03*
X406400Y788670D03*
X800100Y186690D03*
X772160Y217170D03*
X782320Y534670D03*
X167365Y219985D03*
M02*
