G04 EAGLE Gerber RS-274X export*
G75*
%MOMM*%
%FSLAX34Y34*%
%LPD*%
%INSoldermask Bottom*%
%IPPOS*%
%AMOC8*
5,1,8,0,0,1.08239X$1,22.5*%
G01*
%ADD10C,3.203200*%
%ADD11C,1.361200*%
%ADD12C,1.411200*%
%ADD13C,2.082800*%
%ADD14C,0.762000*%


D10*
X621030Y309880D03*
X621030Y40640D03*
X40640Y309880D03*
X40640Y40640D03*
D11*
X41520Y226180D02*
X53100Y226180D01*
X53100Y177680D02*
X41520Y177680D01*
D12*
X22550Y160930D02*
X10470Y160930D01*
X10470Y242930D02*
X22550Y242930D01*
D13*
X307340Y160528D02*
X307340Y141732D01*
X332740Y141732D02*
X332740Y160528D01*
X358140Y160528D02*
X358140Y141732D01*
X421640Y141732D02*
X421640Y160528D01*
X447040Y160528D02*
X447040Y141732D01*
X472440Y141732D02*
X472440Y160528D01*
X492760Y290322D02*
X492760Y309118D01*
X467360Y309118D02*
X467360Y290322D01*
X441960Y290322D02*
X441960Y309118D01*
X607822Y236220D02*
X626618Y236220D01*
X626618Y210820D02*
X607822Y210820D01*
X607822Y185420D02*
X626618Y185420D01*
X626618Y160020D02*
X607822Y160020D01*
X607822Y134620D02*
X626618Y134620D01*
X626618Y109220D02*
X607822Y109220D01*
D14*
X570230Y311150D03*
X60960Y215900D03*
X36830Y109220D03*
X130810Y105410D03*
X523240Y200660D03*
X194310Y172720D03*
X157949Y275590D03*
X424180Y248920D03*
X327660Y260350D03*
X246380Y330200D03*
X408940Y261620D03*
X233680Y214630D03*
X130810Y276860D03*
X294640Y88900D03*
X378460Y81280D03*
X166370Y283210D03*
X482600Y81280D03*
X585470Y81280D03*
X148590Y78740D03*
X204470Y80010D03*
X148590Y106680D03*
X111760Y172720D03*
X135890Y316230D03*
X181610Y265430D03*
X156210Y317500D03*
X179070Y220980D03*
X229870Y60960D03*
X95250Y213360D03*
X115570Y312420D03*
X115570Y273050D03*
X73660Y241300D03*
X228600Y31750D03*
X209550Y252730D03*
X547370Y152400D03*
X203200Y316230D03*
X516890Y332740D03*
X546100Y274320D03*
X576580Y162560D03*
X219710Y238760D03*
X544830Y175260D03*
X213360Y330200D03*
X567690Y328930D03*
X572770Y274320D03*
X589280Y210820D03*
X358140Y213360D03*
X560070Y214630D03*
X275160Y129540D03*
X568960Y118110D03*
X448310Y100330D03*
M02*
