G04 EAGLE Gerber RS-274X export*
G75*
%MOMM*%
%FSLAX34Y34*%
%LPD*%
%INSoldermask Top*%
%IPPOS*%
%AMOC8*
5,1,8,0,0,1.08239X$1,22.5*%
G01*
%ADD10C,3.203200*%
%ADD11R,1.400000X1.900000*%
%ADD12R,1.700000X1.500000*%
%ADD13R,1.900000X1.400000*%
%ADD14R,1.727200X0.965200*%
%ADD15C,1.473200*%
%ADD16R,0.457200X1.117600*%
%ADD17R,1.117600X0.457200*%
%ADD18R,2.743200X2.743200*%
%ADD19R,1.603200X1.203200*%
%ADD20R,1.104800X2.269200*%
%ADD21R,3.404800X2.269200*%
%ADD22R,1.646941X2.205431*%
%ADD23R,1.646731X2.197381*%
%ADD24R,1.953200X0.603200*%
%ADD25R,2.703200X1.578200*%
%ADD26C,1.361200*%
%ADD27C,1.411200*%
%ADD28C,2.082800*%
%ADD29R,0.838200X1.473200*%
%ADD30R,1.828800X0.812800*%
%ADD31R,1.500000X1.700000*%
%ADD32R,0.812800X1.828800*%
%ADD33C,0.762000*%


D10*
X621030Y309880D03*
X621030Y40640D03*
X40640Y309880D03*
X40640Y40640D03*
D11*
X311700Y99060D03*
X348700Y99060D03*
D12*
X21590Y124220D03*
X21590Y94220D03*
D13*
X59690Y130260D03*
X59690Y93260D03*
D11*
X417280Y99060D03*
X380280Y99060D03*
D14*
X430530Y27940D03*
X374650Y27940D03*
X430530Y66040D03*
X374650Y66040D03*
X335280Y27940D03*
X279400Y27940D03*
X335280Y66040D03*
X279400Y66040D03*
D15*
X367030Y12700D03*
X340360Y12700D03*
X532130Y311150D03*
X532130Y328930D03*
X551180Y328930D03*
D13*
X267970Y191050D03*
X267970Y228050D03*
X240030Y275040D03*
X240030Y238040D03*
D16*
X162363Y265811D03*
X157362Y265811D03*
X152361Y265811D03*
X147359Y265811D03*
X142358Y265811D03*
X137357Y265811D03*
D17*
X130429Y258883D03*
X130429Y253882D03*
X130429Y248881D03*
X130429Y243879D03*
X130429Y238878D03*
X130429Y233877D03*
D16*
X137357Y226949D03*
X142358Y226949D03*
X147359Y226949D03*
X152361Y226949D03*
X157362Y226949D03*
X162363Y226949D03*
D17*
X169291Y233877D03*
X169291Y238878D03*
X169291Y243879D03*
X169291Y248881D03*
X169291Y253882D03*
X169291Y258883D03*
D18*
X149860Y246380D03*
D11*
X137880Y156210D03*
X100880Y156210D03*
X137880Y187960D03*
X100880Y187960D03*
D19*
X252300Y152400D03*
X230300Y142900D03*
X230300Y161900D03*
X292940Y275590D03*
X270940Y266090D03*
X270940Y285090D03*
D15*
X115570Y330200D03*
X95250Y330200D03*
X175260Y330200D03*
X195580Y330200D03*
X135890Y330200D03*
X154940Y330200D03*
D20*
X345300Y261342D03*
X368300Y261342D03*
X391300Y261342D03*
D21*
X368300Y322858D03*
D11*
X348700Y226060D03*
X311700Y226060D03*
X387900Y226060D03*
X424900Y226060D03*
D15*
X308610Y330200D03*
X288290Y330200D03*
X267970Y330200D03*
D22*
X47275Y230957D03*
D23*
X47276Y172917D03*
D24*
X45260Y214930D03*
X45260Y208430D03*
X45260Y201930D03*
X45260Y195430D03*
X45260Y188930D03*
D25*
X14510Y211305D03*
X14510Y192555D03*
D26*
X41520Y226180D02*
X53100Y226180D01*
X53100Y177680D02*
X41520Y177680D01*
D27*
X22550Y160930D02*
X10470Y160930D01*
X10470Y242930D02*
X22550Y242930D01*
D28*
X307340Y160528D02*
X307340Y141732D01*
X332740Y141732D02*
X332740Y160528D01*
X358140Y160528D02*
X358140Y141732D01*
X421640Y141732D02*
X421640Y160528D01*
X447040Y160528D02*
X447040Y141732D01*
X472440Y141732D02*
X472440Y160528D01*
X492760Y290322D02*
X492760Y309118D01*
X467360Y309118D02*
X467360Y290322D01*
X441960Y290322D02*
X441960Y309118D01*
X607822Y236220D02*
X626618Y236220D01*
X626618Y210820D02*
X607822Y210820D01*
X607822Y185420D02*
X626618Y185420D01*
X626618Y160020D02*
X607822Y160020D01*
X607822Y134620D02*
X626618Y134620D01*
X626618Y109220D02*
X607822Y109220D01*
D29*
X242316Y31750D03*
X250444Y31750D03*
D30*
X194818Y142875D03*
X194818Y161925D03*
X173482Y152400D03*
D11*
X236770Y99060D03*
X273770Y99060D03*
D31*
X176770Y29210D03*
X206770Y29210D03*
D11*
X173270Y59690D03*
X210270Y59690D03*
D29*
X547116Y138430D03*
X555244Y138430D03*
D32*
X450215Y214122D03*
X469265Y214122D03*
X459740Y235458D03*
D11*
X499830Y100330D03*
X462830Y100330D03*
D31*
X463790Y29210D03*
X493790Y29210D03*
D11*
X461560Y62230D03*
X498560Y62230D03*
D29*
X542036Y204470D03*
X550164Y204470D03*
D32*
X503555Y214122D03*
X522605Y214122D03*
X513080Y235458D03*
D11*
X531410Y100330D03*
X568410Y100330D03*
D31*
X534910Y29210D03*
X564910Y29210D03*
D11*
X531410Y62230D03*
X568410Y62230D03*
D29*
X242316Y60960D03*
X250444Y60960D03*
D30*
X124968Y94615D03*
X124968Y113665D03*
X103632Y104140D03*
D11*
X165650Y99060D03*
X202650Y99060D03*
D31*
X99300Y29210D03*
X129300Y29210D03*
D11*
X95800Y60960D03*
X132800Y60960D03*
D15*
X532130Y293370D03*
X551180Y293370D03*
X551180Y311150D03*
D33*
X570230Y311150D03*
X60960Y215900D03*
X36830Y109220D03*
X130810Y105410D03*
X523240Y200660D03*
X194310Y172720D03*
X157949Y275590D03*
X424180Y248920D03*
X327660Y260350D03*
X246380Y330200D03*
X408940Y261620D03*
X233680Y214630D03*
X130810Y276860D03*
X294640Y88900D03*
X378460Y81280D03*
X166370Y283210D03*
X482600Y81280D03*
X585470Y81280D03*
X148590Y78740D03*
X204470Y80010D03*
X148590Y106680D03*
X111760Y172720D03*
X135890Y316230D03*
X181610Y265430D03*
X156210Y317500D03*
X179070Y220980D03*
X229870Y60960D03*
X95250Y213360D03*
X115570Y312420D03*
X115570Y273050D03*
X73660Y241300D03*
X228600Y31750D03*
X209550Y252730D03*
X547370Y152400D03*
X203200Y316230D03*
X516890Y332740D03*
X546100Y274320D03*
X576580Y162560D03*
X219710Y238760D03*
X544830Y175260D03*
X213360Y330200D03*
X567690Y328930D03*
X572770Y274320D03*
X589280Y210820D03*
X358140Y213360D03*
X560070Y214630D03*
X275160Y129540D03*
X568960Y118110D03*
X448310Y100330D03*
M02*
