M48
;GenerationSoftware,Autodesk,EAGLE,9.6.2*%
;CreationDate,2022-12-24T04:25:29Z*%
FMAT,2
ICI,OFF
METRIC,TZ,000.000
T5C0.254
T4C0.650
T3C0.700
T2C1.118
T1C3.000
%
G90
M71
T1
X4064Y4064
X4064Y30988
X62103Y4064
X62103Y30988
T2
X61722Y10922
X61722Y13462
X61722Y16002
X61722Y18542
X61722Y21082
X61722Y23622
X44196Y29972
X46736Y29972
X49276Y29972
X47244Y15113
X44704Y15113
X42164Y15113
X35814Y15113
X33274Y15113
X30734Y15113
T3
X1651Y24293
X1651Y16093
T4
X4731Y17768
X4731Y22618
T5
X18161Y26543
X15621Y31750
X17907Y22098
X22987Y6096
X9525Y21336
X11557Y31242
X11557Y27305
X7366Y24130
X22860Y3175
X20955Y25273
X54737Y15240
X20320Y31623
X51689Y33274
X57023Y31115
X57658Y16256
X21971Y23876
X54483Y17526
X21336Y33020
X56769Y32893
X57277Y27432
X58928Y21082
X35814Y21336
X56007Y21463
X27516Y12954
X56896Y11811
X44831Y10033
X13589Y31623
X11176Y17272
X14859Y10668
X20447Y8001
X14859Y7874
X58547Y8128
X48260Y8128
X16637Y28321
X37846Y8128
X29464Y8890
X13081Y27686
X23368Y21463
X40894Y26162
X24638Y33020
X32766Y26035
X42418Y24892
X15795Y27559
X19431Y17272
X52324Y20066
X13081Y10541
X3683Y10922
X6096Y21590
X54610Y27432
M30